<svg xmlns="http://www.w3.org/2000/svg" viewBox="0 0 114 32"><g class="aoa-logo"><path d="M81.793 20.747c-.211-.07-1.829-.422-2.11-.422-.563-.985-1.196-2.11-1.618-3.235l-6.33-15.754h-1.336s-2.321 5.556-2.532 6.048c-1.688-3.868-5.486-6.259-9.987-6.259h-.141c-4.501 0-8.299 2.462-9.987 6.33-.211-.492-2.532-6.048-2.532-6.048h-1.336l-6.189 15.754c-.492 1.125-1.055 2.321-1.618 3.305-.281.07-1.688.422-1.899.422h.07v.211h6.33v-.211c-.07 0-2.251-.352-2.743-.422.281-1.336 1.125-3.376 1.688-4.782 0 0 .07-.141.141-.141h8.088c.211 0 .492.914.844 1.407.281.422.563.703.844 1.055.422.492.985.914 1.477 1.336.703.563 1.547.985 2.391 1.336.281.07.563.211.844.281.492.141.985.281 1.477.352.281.07.492.07.774.141h.141s.563.07 1.618.07l-.703-1.125h-.141c-2.532-.211-4.782-1.758-5.978-4.079-.141-.352-.352-.703-.422-1.055-.422-1.196-.633-2.462-.633-3.938 0-2.673.774-4.923 2.251-6.611 1.336-1.547 3.235-2.391 5.275-2.391h.281c2.04.07 3.868.914 5.275 2.391 1.477 1.618 2.251 3.938 2.251 6.611 0 1.407-.211 2.743-.633 3.938l-.422 1.055c-1.196 2.321-3.306 3.798-5.767 4.079 0 0 .774.211 1.125.985.281 0 .07 0 .352-.07.492-.07.985-.211 1.477-.352.281-.07.563-.211.844-.281.844-.352 1.688-.774 2.391-1.336a9.355 9.355 0 0 0 1.477-1.407c.281-.352.633-.563.844-.985.352-.492.633-1.407.844-1.407h8.088c.07 0 .141.141.141.141.563 1.407 1.407 3.516 1.688 4.853-.563.07-2.673.352-2.743.422v.211h7.033v-.211l-.563-.211zm-38.118-6.751c-1.125 0-2.391 0-3.587-.141.07-.211.281-.774.281-.774.774-1.969 2.18-5.556 3.165-7.596.141.352 3.446 8.088 3.587 8.369-1.266.141-2.462.141-3.446.141zm10.83-11.675l.07-.281h-.07c-1.196.703-2.321 1.266-3.306 2.251-1.477 1.477-2.391 3.516-2.673 5.697-.07.492-.07.985-.07 1.336 0 3.024 1.547 6.048 4.079 7.736.633.422 1.336.844 2.11 1.055.07 0 .07.07.07.141s-.07.07-.07.07h-.141c-.07 0-.141-.07-.211-.07h-.07c-.281-.141-.844-.352-1.266-.563-.914-.422-1.688-1.055-2.391-1.758-.985-.985-1.758-2.11-2.251-3.306l-1.196-2.884s-3.235-7.666-3.235-7.736c0 0 .352-.844.422-.985.07.211 2.884 6.822 2.884 6.822l.422 1.055h.07c0-.774.211-1.618.422-2.391a10.322 10.322 0 0 1 3.446-4.853c.914-.703 1.969-1.266 3.024-1.547h.141c.07 0 .07 0 .07.07s-.281.141-.281.141zm12.8 12.237c-.492 1.196-1.266 2.391-2.321 3.306-.703.703-1.547 1.266-2.391 1.758a5.996 5.996 0 0 1-1.547.633h-.211c0-.07.07-.141.07-.141.774-.281 1.407-.633 2.11-1.055 2.532-1.758 4.079-4.712 4.079-7.736 0-.422 0-.844-.07-1.336-.281-2.18-1.196-4.149-2.673-5.626-.914-.914-2.04-1.618-3.235-2.11 0 0-.281-.07-.211-.211 0-.07.141-.07.211 0 1.055.352 2.11.844 3.024 1.547 1.618 1.266 2.884 2.954 3.446 4.853.281.774.422 1.547.422 2.391h.07l.422-1.055s2.813-6.681 2.884-6.822c.07.141.352.985.422.985l-3.235 7.736-1.266 2.884zm4.572-.562c-1.055 0-2.251 0-3.446-.141.141-.281 3.376-8.018 3.587-8.369.985 2.04 2.391 5.626 3.165 7.596 0 0 .211.492.281.774-1.196.141-2.462.141-3.587.141z"/><path d="M47.473 10.831l-.422-1.196s-2.813-6.259-2.884-6.963c.07.703 2.884 6.963 2.884 6.963l.422 1.196zm6.751 9.354c.07 0 .141.07.211.07 0 0-.141 0-.211-.07zm-6.681-9.354c0-.774.211-1.618.422-2.391a10.322 10.322 0 0 1 3.446-4.853c.914-.703 1.969-1.266 3.024-1.547-1.055.352-2.11.844-3.024 1.547-1.618 1.266-2.884 2.954-3.446 4.853a14.194 14.194 0 0 0-.422 2.391z"/><path d="M48.246 14.558l-1.196-2.884s-3.235-7.666-3.235-7.736c0 0 .352-.844.422-.985-.07.141-.352.985-.422.985l3.235 7.736 1.196 2.884c.492 1.196 1.266 2.391 2.251 3.305a10.006 10.006 0 0 0 2.391 1.758c-.914-.422-1.618-1.055-2.391-1.758a8.93 8.93 0 0 1-2.251-3.306zm6.4-12.518c.07 0 .07 0 0 0 .07.211-.141.281-.141.281s.281-.07.141-.281c.07 0 .07 0 0 0z"/><path d="M48.527 9.987c-.07.492-.07.914-.07 1.336 0 3.024 1.547 6.048 4.079 7.736a9.838 9.838 0 0 0 2.11 1.055c.07 0 .07.07.07.141l-.07.07c.07 0 .07 0 .07-.07s-.07-.07-.07-.141c-.774-.281-1.407-.633-2.11-1.055-2.532-1.758-4.079-4.712-4.079-7.736 0-.422.07-.844.07-1.336.281-2.18 1.196-4.149 2.673-5.626.914-.914 2.04-1.618 3.235-2.11-1.196.492-2.321 1.196-3.235 2.11-1.477 1.477-2.391 3.446-2.673 5.626z"/><path d="M53.521 6.752c.774 0 1.407.492 1.407 1.266 0 1.125-.844 1.407-1.618 1.407h-1.407v-.141c.211 0 .281-.07.352-.07v-2.11c0-.07-.141-.07-.352-.07v-.281h1.618zm-.422 2.11c0 .352 0 .281.141.281.422 0 .844-.211.844-1.196 0-.703-.352-.985-.985-.985h-.07v1.899h.07zm7.877-.844c0-.703.633-1.336 1.477-1.336.703 0 1.336.563 1.336 1.336 0 .985-.844 1.407-1.477 1.407-.422 0-1.336-.281-1.336-1.407zm1.969 0c0-.844-.352-1.196-.633-1.196s-.492.141-.492.985.281 1.266.633 1.266c.211.07.492 0 .492-1.055zM59.077 22.646c.07-.07.141-.352.141-.633 0-.211 0-.352-.07-.563-.141-.422-.492-.774-1.055-.985l-.281-.07a.528.528 0 0 1-.281-.141c-.352-.211-.492-.492-.563-.844v-.211c0-.281.07-1.055.211-1.266l-.07-.07c-.07 0-.352.07-.633.633-.211.352-.633 1.125-.352 1.899.211.492.633.844 1.266 1.055l.352.141.422.141c.703.352.774.844.774.844s0 .211.141.07z"/><path d="M59.569 17.09c-.141-.422-.633-.774-1.336-.985l-.422-.141a4.877 4.877 0 0 1-.563-.211c-.352-.141-.563-.422-.563-.774v-.141c0-.492.141-1.196.211-1.407 0-.07-.07-.07-.07-.07-.141 0-.492.211-.774.633-.352.492-.563 1.266-.352 1.899.211.563.774.914 1.618 1.055h.07c.07.633.211 2.673.211 2.743.07 0 .07.07.141.07l.07.07h.07s.07 0 .141.07c0-.141.141-2.11.141-2.673 0 0 .07 0 .07.07.352.211.492.422.492.703v.07c-.07.422-.211 1.266-.281 1.477v.07c.07 0 .422-.492.563-.703.422-.563.563-1.055.563-1.477.07-.141.07-.211 0-.352z"/><path d="M59.851 12.378c-.211-.492-.703-.844-1.477-.985-.211-.07-.352-.07-.563-.141a7.281 7.281 0 0 1-.844-.211c-.352-.141-.563-.352-.563-.703v-.141c0-.352.141-1.125.211-1.407 0-.07-.07-.07-.07-.07-.141 0-.492.211-.774.633-.211.281-.492.774-.492 1.336 0 .141 0 .352.07.492.211.563.774.914 1.688 1.125.07.633.141 2.532.211 2.602s.141.07.281.141l.141.07h.211s.141 0 .211.07c0-.141.07-2.04.141-2.602 0 0 .07 0 .07.07.352.141.563.352.563.703v.07c0 .492-.211 1.196-.281 1.407 0 .07.07.07.07.07.141 0 .422-.211.703-.633.141-.211.563-.844.563-1.477 0-.07 0-.281-.07-.422z"/><path d="M62.031 5.626c-.141-.422-.352-.914-.633-1.266-.211-.352-.492-.563-.774-.703s-.774-.281-1.266-.281h-.07c-.633-.563-1.758-.844-2.743-.633-1.196.281-1.899 1.125-1.899 2.391v.07c0 1.618 1.125 2.11 2.18 2.391.07.633.211 2.673.211 2.743.141.07.281.141.422.141l.281.07h.141c.141 0 .352.07.492.07 0-.141.07-2.11.07-2.673.07 0 .07 0 .141.07.352.141.563.352.563.703v.07c0 .492-.211 1.196-.281 1.407 0 .07.07.07.07.07.141 0 .492-.211.774-.633.281-.352.633-1.125.422-1.758-.141-.492-.633-.844-1.477-1.125l-.844-.211a3.683 3.683 0 0 1-1.055-.352c-.422-.281-.633-.633-.633-1.055s.211-.774.563-.985c.07 0 .07-.07.141-.07 0 .352.07 1.266.141 1.336.141.07.352.141.492.211h.211c.211.07.563.07.844.211 0-.141.07-1.196.07-1.196v-.211s0-.07-.07-.07l.211.211c.141.141.211.281.281.422s.141.211.141.281c.633.633 1.618.563 2.743.422.07 0 .141-.07.141-.07zM57.6 2.11c.492 0 .633 0 1.125.07V.703C58.725.14 58.022 0 57.67 0c-.492 0-.774.07-.985.281-.07.141-.141.281-.141.492 0 0 .07 1.336.07 1.477.352-.07.985-.141.985-.141zM.141 24.826h114.286v.633H.141v-.633zm39.103 5.416c0 .985-.703 1.758-1.688 1.758s-1.688-.774-1.688-1.758.703-1.758 1.688-1.758 1.688.774 1.688 1.758zm-.633 0c0-.633-.422-1.125-.985-1.125s-.985.492-.985 1.125.422 1.125.985 1.125.985-.492.985-1.125zm4.501-.633h-.633c0-.281-.211-.492-.633-.492-.352 0-.633.141-.633.422 0 .211.211.352.774.422.774.141 1.336.352 1.336 1.055 0 .633-.563 1.055-1.407 1.055-.633 0-1.407-.352-1.407-1.196h.633c0 .422.422.563.774.563s.774-.141.774-.422c0-.211-.211-.352-.774-.492-.633-.141-1.266-.281-1.266-1.055 0-.563.492-.985 1.336-.985.703 0 1.125.563 1.125 1.125zm2.602-.422V32h-.633v-2.813h-.914v-.633h2.462v.633h-.914zm4.642 2.743h-2.532v-3.376h2.462v.633h-1.758v.703h1.547v.633h-1.547v.844h1.899l-.07.563zm4.36-1.688c0 .985-.703 1.758-1.688 1.758s-1.688-.774-1.688-1.758.703-1.758 1.688-1.758c1.055 0 1.688.774 1.688 1.758zm-.632 0c0-.633-.422-1.125-.985-1.125s-.985.492-.985 1.125.422 1.125.985 1.125.985-.492.985-1.125zm3.446.492h-.774v1.196h-.633v-3.376h1.407c.703 0 1.125.422 1.125 1.125-.07.633-.492 1.055-1.125 1.055zm-.844-1.547v.985h.774c.281 0 .492-.141.492-.492s-.211-.492-.492-.492h-.774zm3.446 2.11l-.211.703h-.703l1.196-3.376h.774L62.384 32h-.703l-.211-.703h-1.336zm.633-2.04l-.492 1.407h.914l-.422-1.407zm3.727-.07V32h-.633v-2.813h-.914v-.633h2.462v.633h-.914zm4.853 2.743h-.633v-1.407h-1.477v1.407h-.633v-3.376h.633v1.336h1.477v-1.336h.633v3.376zm2.11 0h-.633v-3.376h.633v3.376zm2.954.07c-.914 0-1.618-.774-1.618-1.758s.703-1.758 1.618-1.758c.774 0 1.336.422 1.547 1.125h-.703c-.141-.281-.422-.563-.844-.563-.563 0-.985.563-.985 1.196s.422 1.196.985 1.196a.914.914 0 0 0 .844-.563h.703c-.211.703-.774 1.125-1.547 1.125zM5.134 28.554h-.633v3.376h.422v-2.813l.985 2.813h.422l.985-2.813v2.813h.422v-3.376h-.633l-.985 2.884-.985-2.884zm6.892.422v-.352H9.635V32h2.391v-.352h-2.04v-1.196h1.829V30.1H9.986v-1.055c0-.07 2.04-.07 2.04-.07zm4.15 2.11c0-.352-.141-.563-.352-.703.281-.141.492-.492.492-.844 0-.633-.422-.985-1.055-.985h-1.477v3.376h.422v-1.336h1.125c.352 0 .563.141.563.492v.492c0 .141 0 .281.07.352h.422c-.141-.07-.211-.281-.211-.422v-.422zm-.985-.844h-1.125v-1.266h1.055c.422 0 .703.211.703.633.07.352-.211.633-.633.633zM1.758 28.554h-.422S.07 31.859.07 31.93h.422l.352-.985h1.407l.352.985h.422c-.07 0-1.266-3.376-1.266-3.376zm-.844 2.039l.563-1.547.563 1.547H.915zm17.512-2.039h-.422v3.376h.422v-3.376zm3.376 3.094c-.703 0-1.266-.633-1.266-1.407s.563-1.407 1.266-1.407c.492 0 .914.281 1.125.703h.422c-.211-.703-.844-1.125-1.547-1.125-.914 0-1.688.774-1.688 1.758s.774 1.758 1.688 1.758c.703 0 1.336-.422 1.547-1.125h-.422c-.211.563-.633.844-1.125.844zm4.572-3.094h-.422s-1.266 3.305-1.266 3.376h.422l.352-.985h1.407l.352.985h.422c-.07 0-1.266-3.376-1.266-3.376zm-.844 2.039l.563-1.547.563 1.547h-1.125zm3.586-2.039v3.376h.422v-2.813s1.829 2.743 1.829 2.813h.422v-3.376h-.422v2.813s-1.829-2.743-1.829-2.813h-.422zm51.904 0h-.422s-1.266 3.305-1.266 3.376h.422l.352-.985h1.407l.352.985h.422l-1.266-3.376zm-.774 2.039l.563-1.547.563 1.547h-1.125zm4.009-.633c-.633-.141-.844-.281-.844-.563 0-.352.281-.563.774-.563s.774.281.774.633h.422c0-.633-.492-1.055-1.196-1.055s-1.196.352-1.196.914c0 .492.352.774 1.196.914.703.141.914.352.914.633 0 .422-.281.633-.844.633-.492 0-.844-.281-.844-.703h-.422c0 .633.492 1.125 1.266 1.125s1.266-.352 1.266-.985c-.07-.633-.563-.774-1.266-.985zm3.305 0c-.633-.141-.844-.281-.844-.563 0-.352.281-.563.774-.563s.774.281.774.633h.422c0-.633-.492-1.055-1.196-1.055s-1.196.352-1.196.914c0 .492.352.774 1.196.914.774.141.914.352.914.633 0 .422-.281.633-.844.633-.492 0-.844-.281-.844-.703h-.422c0 .633.492 1.125 1.266 1.125s1.266-.352 1.266-.985c-.07-.633-.563-.774-1.266-.985zm3.658-1.476c-.914 0-1.688.774-1.688 1.758S90.233 32 91.218 32c.914 0 1.688-.774 1.688-1.758-.07-.985-.774-1.758-1.688-1.758zm0 3.164c-.703 0-1.266-.633-1.266-1.407s.563-1.407 1.266-1.407 1.266.563 1.266 1.407c0 .774-.563 1.407-1.266 1.407zm4.079 0c-.703 0-1.266-.633-1.266-1.407s.563-1.407 1.266-1.407c.492 0 .914.281 1.125.703h.422c-.211-.703-.844-1.125-1.547-1.125-.914 0-1.688.774-1.688 1.758s.774 1.758 1.688 1.758c.703 0 1.266-.422 1.547-1.125h-.422c-.211.563-.633.844-1.125.844zm2.883-3.094h-.422v3.376h.422v-3.376zm2.602 0h-.422s-1.266 3.305-1.266 3.376h.422l.352-.985h1.407l.352.985h.422l-1.266-3.376zm-.773 2.039l.563-1.547.563 1.547h-1.125zm3.305 1.337h.422v-3.024h1.055v-.352h-2.532v.352h1.055v3.024zm2.813-3.376h-.422v3.376h.422v-3.376zm2.673-.07c-.914 0-1.688.774-1.688 1.758S107.815 32 108.8 32c.914 0 1.688-.774 1.688-1.758s-.703-1.758-1.688-1.758zm0 3.164c-.703 0-1.266-.633-1.266-1.407s.563-1.407 1.266-1.407 1.266.563 1.266 1.407c0 .774-.563 1.407-1.266 1.407zm2.673-3.094v3.376h.422v-2.813s1.829 2.743 1.829 2.813h.422v-3.376h-.422v2.813s-1.829-2.743-1.829-2.813h-.422zM76.8 5.556c-1.196 0-2.18-.985-2.18-2.18s.985-2.18 2.18-2.18 2.18.985 2.18 2.18-.985 2.18-2.18 2.18zm0-3.938c-.985 0-1.758.774-1.758 1.758s.774 1.758 1.758 1.758 1.758-.774 1.758-1.758-.844-1.758-1.758-1.758zm1.055 2.883h-.492l-.422-.844h-.563v.844h-.422V2.11h1.125c.492 0 .844.281.844.774 0 .352-.211.633-.492.703l.422.914zm-.774-1.266c.211 0 .352-.07.352-.352s-.141-.352-.352-.352h-.703v.703h.703z"/></g></svg>