<svg xmlns="http://www.w3.org/2000/svg" viewBox="0 0 31 32"><path class="icon-exhibits" d="M29.957 26.826H1.361c-.681 0-1.362-.545-1.362-1.362V1.362C-.001.681.544 0 1.361 0h28.596c.681 0 1.362.545 1.362 1.362v24.102c0 .681-.545 1.362-1.362 1.362zM1.634 25.192h28.187V1.635H1.634v23.557zM6.672 32c-.272 0-.681-.136-.953-.409-.545-.545-.545-1.362 0-1.906L9.668 25.6c.545-.545 1.362-.545 1.906 0s.545 1.362 0 1.498l-3.949 4.085c-.272.681-.545.817-.953.817zm17.975 0c-.272 0-.681-.136-.953-.681l-3.813-3.949c-.545-.136-.409-.953 0-1.498.545-.545 1.362-.409 1.906 0l3.813 3.949c.545.545.409 1.362 0 1.906-.272.136-.681.272-.953.272z"/></svg>