<svg class="menu-icon" id="iconHotel" xmlns="http://www.w3.org/2000/svg" viewBox="0 0 25 25.1"><style>.icon-hotel { fill: #ffffff; } @media all and (max-width: 25px) { .icon-hotel { fill: #00b0b9; } }</style><g class="icon-hotel"><path d="M19.2 25.1H0V11.7l12.4-5.6 6.8 2.4v16.6zM1 24h17.1V9.2l-5.7-2L1 12.3V24z"/><path class="st1" d="M11.8 7.1h1v17.4h-1z"/><path transform="rotate(-17.215 6.016 12.976)" class="st1" d="M2.1 12.5h7.8v1H2.1z"/><path transform="rotate(-11.918 6.068 16.088)" class="st1" d="M2.3 15.6h7.6v1H2.3z"/><path transform="rotate(-6.027 6.041 19.192)" class="st1" d="M2.3 18.7h7.4v1H2.3z"/><path class="st1" d="M2.3 21.8h7.4v1H2.3z"/><path d="M25 25.1h-8.5V24H24V3.4l-7.1-2.3-6.8 3v3.5h-1V3.5L16.8 0 25 2.7z"/><path d="M20.8 4.6h1v2h-1zM20.8 8.3h1v2h-1zM20.8 11.9h1V14h-1zM20.8 15.6h1v2h-1zM20.8 19.3h1v2h-1z"/></g></svg>