<svg id="Layer_1" xmlns="http://www.w3.org/2000/svg" viewBox="0 0 75.4 75.1"><style>.st0{fill:#000}</style><g class="icon-telephone"><path class="st0" d="M67.2 73.8H8.4c-3.8 0-6.9-3.1-6.9-6.9V8.3c.2-3.8 3.1-6.9 6.9-6.9H67c3.8 0 6.9 3.1 6.9 6.9v58.6c.2 4.1-2.9 6.9-6.7 6.9zM8.4 5C6.5 5 5.1 6.4 5.1 8.3v58.6c0 1.9 1.4 3.3 3.3 3.3H67c1.9 0 3.3-1.4 3.3-3.3V8.3C70.3 6.4 68.9 5 67 5H8.4z"/><path class="st0" d="M21 68.8c-7.1 0-12.8-5.7-12.8-12.8V20c0-7.1 5.7-12.8 12.8-12.8S33.8 12.8 33.8 20v36c0 7.1-5.7 12.8-12.8 12.8zm0-58.1c-5 0-9.3 4-9.3 9.3v36c0 5.2 4.3 9.3 9.3 9.3 5.2 0 9.3-4.3 9.3-9.3V20c-.1-5.3-4.1-9.3-9.3-9.3zM66.3 28H36.9V12.1h29.4V28zm-25.9-3.5h22.3v-8.8H40.4v8.8zM62 31.3h2.6v3.6H62zM54.2 31.3h2.6v3.6h-2.6zM46.4 31.3H49v3.6h-2.6zM38.8 31.3h2.6v3.6h-2.6zM62 39.2h2.6v3.6H62zM54.2 39.2h2.6v3.6h-2.6zM46.4 39.2H49v3.6h-2.6zM38.8 39.2h2.6v3.6h-2.6zM62 47h2.6v3.6H62zM54.2 47h2.6v3.6h-2.6zM46.4 47H49v3.6h-2.6zM38.8 47h2.6v3.6h-2.6zM62 54.6h2.6v3.6H62zM54.2 54.6h2.6v3.6h-2.6zM46.4 54.6H49v3.6h-2.6zM38.8 54.6h2.6v3.6h-2.6z"/></g></svg>