<svg xmlns="http://www.w3.org/2000/svg" viewBox="0 0 48 32"><path class="icon-ticket" d="M29.217 15.098l-2.628 2.113c-.103.103-.155.206-.103.361l.928 3.195c.052.309-.206.515-.464.515-.052 0-.155 0-.206-.052l-2.783-1.804c-.052-.052-.103-.052-.206-.052-.052 0-.103 0-.206.052l-2.783 1.804c-.052.052-.155.052-.206.052-.258 0-.515-.258-.464-.515l.928-3.195c0-.103 0-.258-.103-.361l-2.628-2.113c-.258-.258-.103-.721.258-.773l3.349-.103a.347.347 0 0 0 .309-.206l1.134-3.143c.103-.155.258-.258.412-.258s.309.103.412.258l1.134 3.143c.052.103.155.206.309.206l3.349.103c.361.052.515.515.258.773zM10.873 26.229h25.868c1.288 0 2.319-1.237 2.319-2.731V8.503c0-1.494-1.031-2.731-2.319-2.731H10.873c-1.288 0-2.319 1.237-2.319 2.731v14.995c-.052 1.494 1.031 2.731 2.319 2.731zm0 0v-2.061c-.309 0-.567-.309-.567-.67V8.503c0-.361.258-.67.567-.67h25.868c.309 0 .567.309.567.67v14.995c0 .258-.103.412-.155.464s-.206.206-.412.206H10.873v2.061zM2.628 32C1.185 32 0 30.609 0 28.96v-9.172h.876c1.804 0 3.246-1.7 3.246-3.762S2.679 12.264.876 12.264H0V3.092C0 2.268.258 1.495.773.928 1.288.31 1.958 0 2.628 0h42.254c1.443 0 2.628 1.391 2.628 3.04v9.172h-.876c-1.804 0-3.246 1.7-3.246 3.762s1.443 3.762 3.246 3.762h.876v9.172c0 .824-.258 1.597-.773 2.164s-1.185.876-1.855.876L2.628 32zm-.876-10.306v7.214c0 .567.412 1.031.876 1.031h42.254c.258 0 .464-.103.618-.309s.258-.464.258-.721v-7.214c-2.319-.464-4.122-2.834-4.122-5.668s1.752-5.204 4.122-5.72V3.093c0-.567-.412-1.031-.876-1.031H2.628a.804.804 0 0 0-.618.309c-.155.155-.258.412-.258.721v7.214c2.319.464 4.122 2.834 4.122 5.72 0 2.834-1.804 5.204-4.122 5.668z"/></svg>