<?xml version="1.0" encoding="utf-8"?>
<!-- Generator: Adobe Illustrator 19.2.0, SVG Export Plug-In . SVG Version: 6.00 Build 0)  -->
<svg version="1.1" id="Layer_1" xmlns="http://www.w3.org/2000/svg" xmlns:xlink="http://www.w3.org/1999/xlink" x="0px" y="0px"
	 viewBox="0 0 162.7 45.5" style="enable-background:new 0 0 162.7 45.5;" xml:space="preserve">
<style type="text/css">
	.st0{fill:#FFFFFF;}
</style>
<g>
	<path class="st0" d="M116.3,29.5c-0.3-0.1-2.6-0.6-3-0.6c-0.8-1.4-1.7-3-2.3-4.6l-9-22.4h-1.9c0,0-3.3,7.9-3.6,8.6
		C94.1,5,88.7,1.6,82.3,1.6h-0.2c-6.4,0-11.8,3.5-14.2,9C67.6,9.9,64.3,2,64.3,2h-1.9l-8.8,22.4c-0.7,1.6-1.5,3.3-2.3,4.7
		c-0.4,0.1-2.4,0.6-2.7,0.6h0.1V30h9v-0.3c-0.1,0-3.2-0.5-3.9-0.6c0.4-1.9,1.6-4.8,2.4-6.8c0,0,0.1-0.2,0.2-0.2h11.5
		c0.3,0,0.7,1.3,1.2,2c0.4,0.6,0.8,1,1.2,1.5c0.6,0.7,1.4,1.3,2.1,1.9c1,0.8,2.2,1.4,3.4,1.9c0.4,0.1,0.8,0.3,1.2,0.4
		c0.7,0.2,1.4,0.4,2.1,0.5c0.4,0.1,0.7,0.1,1.1,0.2h0.2c0,0,0.8,0.1,2.3,0.1l-1-1.6h-0.2c-3.6-0.3-6.8-2.5-8.5-5.8
		c-0.2-0.5-0.5-1-0.6-1.5c-0.6-1.7-0.9-3.5-0.9-5.6c0-3.8,1.1-7,3.2-9.4c1.9-2.2,4.6-3.4,7.5-3.4h0.4c2.9,0.1,5.5,1.3,7.5,3.4
		c2.1,2.3,3.2,5.6,3.2,9.4c0,2-0.3,3.9-0.9,5.6l-0.6,1.5c-1.7,3.3-4.7,5.4-8.2,5.8c0,0,1.1,0.3,1.6,1.4c0.4,0,0.1,0,0.5-0.1
		c0.7-0.1,1.4-0.3,2.1-0.5c0.4-0.1,0.8-0.3,1.2-0.4c1.2-0.5,2.4-1.1,3.4-1.9c0.8-0.6,1.5-1.3,2.1-2c0.4-0.5,0.9-0.8,1.2-1.4
		c0.5-0.7,0.9-2,1.2-2h11.5c0.1,0,0.2,0.2,0.2,0.2c0.8,2,2,5,2.4,6.9c-0.8,0.1-3.8,0.5-3.9,0.6v0.3h10v-0.3L116.3,29.5L116.3,29.5z
		 M62.1,19.9c-1.6,0-3.4,0-5.1-0.2c0.1-0.3,0.4-1.1,0.4-1.1c1.1-2.8,3.1-7.9,4.5-10.8c0.2,0.5,4.9,11.5,5.1,11.9
		C65.2,19.9,63.5,19.9,62.1,19.9z M77.5,3.3l0.1-0.4h-0.1c-1.7,1-3.3,1.8-4.7,3.2c-2.1,2.1-3.4,5-3.8,8.1c-0.1,0.7-0.1,1.4-0.1,1.9
		c0,4.3,2.2,8.6,5.8,11c0.9,0.6,1.9,1.2,3,1.5c0.1,0,0.1,0.1,0.1,0.2s-0.1,0.1-0.1,0.1h-0.2c-0.1,0-0.2-0.1-0.3-0.1h-0.1
		c-0.4-0.2-1.2-0.5-1.8-0.8c-1.3-0.6-2.4-1.5-3.4-2.5c-1.4-1.4-2.5-3-3.2-4.7L67,16.7c0,0-4.6-10.9-4.6-11c0,0,0.5-1.2,0.6-1.4
		c0.1,0.3,4.1,9.7,4.1,9.7l0.6,1.5h0.1c0-1.1,0.3-2.3,0.6-3.4C69.3,9.4,71,7,73.3,5.2c1.3-1,2.8-1.8,4.3-2.2h0.2
		c0.1,0,0.1,0,0.1,0.1S77.5,3.3,77.5,3.3z M95.7,20.7c-0.7,1.7-1.8,3.4-3.3,4.7c-1,1-2.2,1.8-3.4,2.5c-0.7,0.4-1.4,0.7-2.2,0.9h-0.3
		c0-0.1,0.1-0.2,0.1-0.2c1.1-0.4,2-0.9,3-1.5c3.6-2.5,5.8-6.7,5.8-11c0-0.6,0-1.2-0.1-1.9c-0.4-3.1-1.7-5.9-3.8-8
		c-1.3-1.3-2.9-2.3-4.6-3c0,0-0.4-0.1-0.3-0.3c0-0.1,0.2-0.1,0.3,0c1.5,0.5,3,1.2,4.3,2.2c2.3,1.8,4.1,4.2,4.9,6.9
		c0.4,1.1,0.6,2.2,0.6,3.4h0.1l0.6-1.5c0,0,4-9.5,4.1-9.7c0.1,0.2,0.5,1.4,0.6,1.4l-4.6,11C97.5,16.6,95.7,20.7,95.7,20.7z
		 M102.2,19.9c-1.5,0-3.2,0-4.9-0.2c0.2-0.4,4.8-11.4,5.1-11.9c1.4,2.9,3.4,8,4.5,10.8c0,0,0.3,0.7,0.4,1.1
		C105.6,19.9,103.8,19.9,102.2,19.9z"/>
	<path class="st0" d="M67.5,15.4l-0.6-1.7c0,0-4-8.9-4.1-9.9c0.1,1,4.1,9.9,4.1,9.9L67.5,15.4z M77.1,28.7c0.1,0,0.2,0.1,0.3,0.1
		h0.2h-0.2C77.4,28.8,77.2,28.8,77.1,28.7z M67.6,15.4c0-1.1,0.3-2.3,0.6-3.4c0.9-2.7,2.6-5.1,4.9-6.9c1.3-1,2.8-1.8,4.3-2.2
		c-1.5,0.5-3,1.2-4.3,2.2C70.8,6.9,69,9.3,68.2,12C67.9,13.1,67.7,14.3,67.6,15.4L67.6,15.4L67.6,15.4z"/>
	<path class="st0" d="M68.6,20.7l-1.7-4.1c0,0-4.6-10.9-4.6-11c0,0,0.5-1.2,0.6-1.4c-0.1,0.2-0.5,1.4-0.6,1.4l4.6,11L68.6,20.7
		c0.7,1.7,1.8,3.4,3.2,4.7c1,1,2.1,1.8,3.4,2.5c-1.3-0.6-2.3-1.5-3.4-2.5C70.4,24.1,69.3,22.5,68.6,20.7z M77.7,2.9
		C77.8,2.9,77.8,2.9,77.7,2.9c0.1,0.3-0.2,0.4-0.2,0.4S77.9,3.2,77.7,2.9C77.8,2.9,77.8,2.9,77.7,2.9z"/>
	<path class="st0" d="M69,14.2c-0.1,0.7-0.1,1.3-0.1,1.9c0,4.3,2.2,8.6,5.8,11c0.9,0.6,1.9,1.1,3,1.5c0.1,0,0.1,0.1,0.1,0.2
		l-0.1,0.1c0.1,0,0.1,0,0.1-0.1s-0.1-0.1-0.1-0.2c-1.1-0.4-2-0.9-3-1.5c-3.6-2.5-5.8-6.7-5.8-11C68.9,15.5,69,14.9,69,14.2
		c0.4-3.1,1.7-5.9,3.8-8c1.3-1.3,2.9-2.3,4.6-3c-1.7,0.7-3.3,1.7-4.6,3C70.7,8.3,69.4,11.1,69,14.2z"/>
	<path class="st0" d="M76.1,9.6c1.1,0,2,0.7,2,1.8c0,1.6-1.2,2-2.3,2h-2v-0.2c0.3,0,0.4-0.1,0.5-0.1v-3c0-0.1-0.2-0.1-0.5-0.1V9.6
		H76.1z M75.5,12.6c0,0.5,0,0.4,0.2,0.4c0.6,0,1.2-0.3,1.2-1.7c0-1-0.5-1.4-1.4-1.4h-0.1v2.7H75.5z M86.7,11.4c0-1,0.9-1.9,2.1-1.9
		c1,0,1.9,0.8,1.9,1.9c0,1.4-1.2,2-2.1,2C88,13.4,86.7,13,86.7,11.4z M89.5,11.4c0-1.2-0.5-1.7-0.9-1.7s-0.7,0.2-0.7,1.4
		s0.4,1.8,0.9,1.8C89.1,13,89.5,12.9,89.5,11.4z"/>
	<path class="st0" d="M84,32.2c0.1-0.1,0.2-0.5,0.2-0.9c0-0.3,0-0.5-0.1-0.8c-0.2-0.6-0.7-1.1-1.5-1.4L82.2,29
		c-0.1,0-0.3-0.1-0.4-0.2c-0.5-0.3-0.7-0.7-0.8-1.2v-0.3c0-0.4,0.1-1.5,0.3-1.8l-0.1-0.1c-0.1,0-0.5,0.1-0.9,0.9
		c-0.3,0.5-0.9,1.6-0.5,2.7c0.3,0.7,0.9,1.2,1.8,1.5l0.5,0.2l0.6,0.2c1,0.5,1.1,1.2,1.1,1.2S83.8,32.4,84,32.2z"/>
	<path class="st0" d="M84.7,24.3c-0.2-0.6-0.9-1.1-1.9-1.4l-0.6-0.2c-0.3-0.1-0.6-0.2-0.8-0.3c-0.5-0.2-0.8-0.6-0.8-1.1v-0.2
		c0-0.7,0.2-1.7,0.3-2c0-0.1-0.1-0.1-0.1-0.1c-0.2,0-0.7,0.3-1.1,0.9c-0.5,0.7-0.8,1.8-0.5,2.7c0.3,0.8,1.1,1.3,2.3,1.5h0.1
		c0.1,0.9,0.3,3.8,0.3,3.9c0.1,0,0.1,0.1,0.2,0.1l0.1,0.1h0.1c0,0,0.1,0,0.2,0.1c0-0.2,0.2-3,0.2-3.8c0,0,0.1,0,0.1,0.1
		c0.5,0.3,0.7,0.6,0.7,1v0.1c-0.1,0.6-0.3,1.8-0.4,2.1v0.1c0.1,0,0.6-0.7,0.8-1c0.6-0.8,0.8-1.5,0.8-2.1
		C84.8,24.6,84.8,24.5,84.7,24.3z"/>
	<path class="st0" d="M85.1,17.6c-0.3-0.7-1-1.2-2.1-1.4c-0.3-0.1-0.5-0.1-0.8-0.2c-0.5-0.1-0.9-0.2-1.2-0.3c-0.5-0.2-0.8-0.5-0.8-1
		v-0.2c0-0.5,0.2-1.6,0.3-2c0-0.1-0.1-0.1-0.1-0.1c-0.2,0-0.7,0.3-1.1,0.9c-0.3,0.4-0.7,1.1-0.7,1.9c0,0.2,0,0.5,0.1,0.7
		c0.3,0.8,1.1,1.3,2.4,1.6c0.1,0.9,0.2,3.6,0.3,3.7c0.1,0.1,0.2,0.1,0.4,0.2l0.2,0.1h0.3c0,0,0.2,0,0.3,0.1c0-0.2,0.1-2.9,0.2-3.7
		c0,0,0.1,0,0.1,0.1c0.5,0.2,0.8,0.5,0.8,1v0.1c0,0.7-0.3,1.7-0.4,2c0,0.1,0.1,0.1,0.1,0.1c0.2,0,0.6-0.3,1-0.9
		c0.2-0.3,0.8-1.2,0.8-2.1C85.2,18.1,85.2,17.8,85.1,17.6L85.1,17.6z"/>
	<path class="st0" d="M88.2,8c-0.2-0.6-0.5-1.3-0.9-1.8c-0.3-0.5-0.7-0.8-1.1-1s-1.1-0.4-1.8-0.4h-0.1c-0.9-0.8-2.5-1.2-3.9-0.9
		c-1.7,0.4-2.7,1.6-2.7,3.4v0.1c0,2.3,1.6,3,3.1,3.4c0.1,0.9,0.3,3.8,0.3,3.9c0.2,0.1,0.4,0.2,0.6,0.2l0.4,0.1h0.2
		c0.2,0,0.5,0.1,0.7,0.1c0-0.2,0.1-3,0.1-3.8c0.1,0,0.1,0,0.2,0.1c0.5,0.2,0.8,0.5,0.8,1v0.1c0,0.7-0.3,1.7-0.4,2
		c0,0.1,0.1,0.1,0.1,0.1c0.2,0,0.7-0.3,1.1-0.9c0.4-0.5,0.9-1.6,0.6-2.5c-0.2-0.7-0.9-1.2-2.1-1.6l-1.2-0.3
		c-0.6-0.1-1.1-0.3-1.5-0.5c-0.6-0.4-0.9-0.9-0.9-1.5s0.3-1.1,0.8-1.4c0.1,0,0.1-0.1,0.2-0.1c0,0.5,0.1,1.8,0.2,1.9
		c0.2,0.1,0.5,0.2,0.7,0.3H82c0.3,0.1,0.8,0.1,1.2,0.3c0-0.2,0.1-1.7,0.1-1.7V6.3c0,0,0-0.1-0.1-0.1l0.3,0.3
		c0.2,0.2,0.3,0.4,0.4,0.6s0.2,0.3,0.2,0.4C85,8.4,86.4,8.3,88,8.1C88.1,8.1,88.2,8,88.2,8L88.2,8z M81.9,3c0.7,0,0.9,0,1.6,0.1V1
		c0-0.8-1-1-1.5-1c-0.7,0-1.1,0.1-1.4,0.4c-0.1,0.2-0.2,0.4-0.2,0.7c0,0,0.1,1.9,0.1,2.1C81,3.1,81.9,3,81.9,3z"/>
	<path class="st0" d="M0.2,35.3h162.5v0.9H0.2V35.3z M55.8,43c0,1.4-1,2.5-2.4,2.5S51,44.4,51,43s1-2.5,2.4-2.5S55.8,41.6,55.8,43z
		 M54.9,43c0-0.9-0.6-1.6-1.4-1.6c-0.8,0-1.4,0.7-1.4,1.6c0,0.9,0.6,1.6,1.4,1.6C54.3,44.6,54.9,43.9,54.9,43z M61.3,42.1h-0.9
		c0-0.4-0.3-0.7-0.9-0.7c-0.5,0-0.9,0.2-0.9,0.6c0,0.3,0.3,0.5,1.1,0.6c1.1,0.2,1.9,0.5,1.9,1.5c0,0.9-0.8,1.5-2,1.5
		c-0.9,0-2-0.5-2-1.7h0.9c0,0.6,0.6,0.8,1.1,0.8s1.1-0.2,1.1-0.6c0-0.3-0.3-0.5-1.1-0.7c-0.9-0.2-1.8-0.4-1.8-1.5
		c0-0.8,0.7-1.4,1.9-1.4C60.7,40.5,61.3,41.3,61.3,42.1z M65,41.5v4h-0.9v-4h-1.3v-0.9h3.5v0.9H65z M71.6,45.4H68v-4.8h3.5v0.9H69v1
		h2.2v0.9H69v1.2h2.7L71.6,45.4L71.6,45.4z M77.8,43c0,1.4-1,2.5-2.4,2.5S73,44.4,73,43s1-2.5,2.4-2.5C76.9,40.5,77.8,41.6,77.8,43z
		 M76.9,43c0-0.9-0.6-1.6-1.4-1.6s-1.4,0.7-1.4,1.6c0,0.9,0.6,1.6,1.4,1.6S76.9,43.9,76.9,43z M81.8,43.7h-1.1v1.7h-0.9v-4.8h2
		c1,0,1.6,0.6,1.6,1.6C83.3,43.1,82.7,43.7,81.8,43.7z M80.6,41.5v1.4h1.1c0.4,0,0.7-0.2,0.7-0.7s-0.3-0.7-0.7-0.7H80.6z M85.5,44.5
		l-0.3,1h-1l1.7-4.8H87l1.7,4.8h-1l-0.3-1C87.4,44.5,85.5,44.5,85.5,44.5z M86.4,41.6l-0.7,2H87L86.4,41.6z M91.7,41.5v4h-0.9v-4
		h-1.3v-0.9H93v0.9C93,41.5,91.7,41.5,91.7,41.5z M98.6,45.4h-0.9v-2h-2.1v2h-0.9v-4.8h0.9v1.9h2.1v-1.9h0.9V45.4z M101.6,45.4h-0.9
		v-4.8h0.9V45.4z M105.8,45.5c-1.3,0-2.3-1.1-2.3-2.5s1-2.5,2.3-2.5c1.1,0,1.9,0.6,2.2,1.6h-1c-0.2-0.4-0.6-0.8-1.2-0.8
		c-0.8,0-1.4,0.8-1.4,1.7s0.6,1.7,1.4,1.7c0.5,0,1-0.3,1.2-0.8h1C107.7,44.9,106.9,45.5,105.8,45.5z"/>
	<path class="st0" d="M7.3,40.6H6.4v4.8H7v-4l1.4,4H9l1.4-4v4H11v-4.8h-0.9l-1.4,4.1C8.7,44.7,7.3,40.6,7.3,40.6z M17.1,41.2v-0.5
		h-3.4v4.8h3.4V45h-2.9v-1.7h2.6v-0.5h-2.6v-1.5C14.2,41.2,17.1,41.2,17.1,41.2z M23,44.2c0-0.5-0.2-0.8-0.5-1
		c0.4-0.2,0.7-0.7,0.7-1.2c0-0.9-0.6-1.4-1.5-1.4h-2.1v4.8h0.6v-1.9h1.6c0.5,0,0.8,0.2,0.8,0.7v0.7c0,0.2,0,0.4,0.1,0.5h0.6
		C23.1,45.3,23,45,23,44.8C23,44.8,23,44.2,23,44.2z M21.6,43H20v-1.8h1.5c0.6,0,1,0.3,1,0.9C22.6,42.6,22.2,43,21.6,43z M2.5,40.6
		H1.9c0,0-1.8,4.7-1.8,4.8h0.6L1.2,44h2l0.5,1.4h0.6C4.2,45.4,2.5,40.6,2.5,40.6z M1.3,43.5l0.8-2.2l0.8,2.2H1.3z M26.2,40.6h-0.6
		v4.8h0.6V40.6z M31,45c-1,0-1.8-0.9-1.8-2s0.8-2,1.8-2c0.7,0,1.3,0.4,1.6,1h0.6c-0.3-1-1.2-1.6-2.2-1.6c-1.3,0-2.4,1.1-2.4,2.5
		s1.1,2.5,2.4,2.5c1,0,1.9-0.6,2.2-1.6h-0.6C32.3,44.6,31.7,45,31,45z M37.5,40.6h-0.6c0,0-1.8,4.7-1.8,4.8h0.6l0.5-1.4h2l0.5,1.4
		h0.6C39.2,45.4,37.5,40.6,37.5,40.6z M36.3,43.5l0.8-2.2l0.8,2.2H36.3z M41.4,40.6v4.8H42v-4c0,0,2.6,3.9,2.6,4h0.6v-4.8h-0.6v4
		c0,0-2.6-3.9-2.6-4H41.4z M115.2,40.6h-0.6c0,0-1.8,4.7-1.8,4.8h0.6l0.5-1.4h2l0.5,1.4h0.6C117,45.4,115.2,40.6,115.2,40.6z
		 M114.1,43.5l0.8-2.2l0.8,2.2C115.7,43.5,114.1,43.5,114.1,43.5z M119.8,42.6c-0.9-0.2-1.2-0.4-1.2-0.8c0-0.5,0.4-0.8,1.1-0.8
		s1.1,0.4,1.1,0.9h0.6c0-0.9-0.7-1.5-1.7-1.5s-1.7,0.5-1.7,1.3c0,0.7,0.5,1.1,1.7,1.3c1,0.2,1.3,0.5,1.3,0.9c0,0.6-0.4,0.9-1.2,0.9
		c-0.7,0-1.2-0.4-1.2-1H118c0,0.9,0.7,1.6,1.8,1.6s1.8-0.5,1.8-1.4C121.5,43.1,120.8,42.9,119.8,42.6L119.8,42.6z M124.5,42.6
		c-0.9-0.2-1.2-0.4-1.2-0.8c0-0.5,0.4-0.8,1.1-0.8s1.1,0.4,1.1,0.9h0.6c0-0.9-0.7-1.5-1.7-1.5s-1.7,0.5-1.7,1.3
		c0,0.7,0.5,1.1,1.7,1.3c1.1,0.2,1.3,0.5,1.3,0.9c0,0.6-0.4,0.9-1.2,0.9c-0.7,0-1.2-0.4-1.2-1h-0.6c0,0.9,0.7,1.6,1.8,1.6
		s1.8-0.5,1.8-1.4C126.2,43.1,125.5,42.9,124.5,42.6L124.5,42.6z M129.7,40.5c-1.3,0-2.4,1.1-2.4,2.5s1,2.5,2.4,2.5
		c1.3,0,2.4-1.1,2.4-2.5C132,41.6,131,40.5,129.7,40.5z M129.7,45c-1,0-1.8-0.9-1.8-2s0.8-2,1.8-2s1.8,0.8,1.8,2
		C131.5,44.1,130.7,45,129.7,45z M135.5,45c-1,0-1.8-0.9-1.8-2s0.8-2,1.8-2c0.7,0,1.3,0.4,1.6,1h0.6c-0.3-1-1.2-1.6-2.2-1.6
		c-1.3,0-2.4,1.1-2.4,2.5s1.1,2.5,2.4,2.5c1,0,1.8-0.6,2.2-1.6h-0.6C136.8,44.6,136.2,45,135.5,45z M139.6,40.6H139v4.8h0.6V40.6z
		 M143.3,40.6h-0.6c0,0-1.8,4.7-1.8,4.8h0.6L142,44h2l0.5,1.4h0.6L143.3,40.6z M142.2,43.5l0.8-2.2l0.8,2.2H142.2z M146.9,45.4h0.6
		v-4.3h1.5v-0.5h-3.6v0.5h1.5V45.4z M150.9,40.6h-0.6v4.8h0.6V40.6z M154.7,40.5c-1.3,0-2.4,1.1-2.4,2.5s1,2.5,2.4,2.5
		c1.3,0,2.4-1.1,2.4-2.5S156.1,40.5,154.7,40.5z M154.7,45c-1,0-1.8-0.9-1.8-2s0.8-2,1.8-2s1.8,0.8,1.8,2
		C156.5,44.1,155.7,45,154.7,45z M158.5,40.6v4.8h0.6v-4c0,0,2.6,3.9,2.6,4h0.6v-4.8h-0.6v4c0,0-2.6-3.9-2.6-4H158.5z"/>
	<path class="st0" d="M109.2,7.9c-1.7,0-3.1-1.4-3.1-3.1s1.4-3.1,3.1-3.1s3.1,1.4,3.1,3.1S110.9,7.9,109.2,7.9z M109.2,2.3
		c-1.4,0-2.5,1.1-2.5,2.5s1.1,2.5,2.5,2.5s2.5-1.1,2.5-2.5S110.5,2.3,109.2,2.3z M110.7,6.4H110l-0.6-1.2h-0.8v1.2H108V3h1.6
		c0.7,0,1.2,0.4,1.2,1.1c0,0.5-0.3,0.9-0.7,1C110.1,5.1,110.7,6.4,110.7,6.4z M109.6,4.6c0.3,0,0.5-0.1,0.5-0.5s-0.2-0.5-0.5-0.5h-1
		v1H109.6z"/>
</g>
</svg>
