<svg class="menu-icon" id="iconExhibit" preserveAspectRatio="xMidYMid meet" xmlns="http://www.w3.org/2000/svg" xmlns:xlink="http://www.w3.org/1999/xlink" 
	 viewBox="0 0 23 23.5" style="enable-background:new 0 0 23 23.5;" xml:space="preserve">
  <style type="text/css">
  	.menu-icon {
      fill: #00B0B9;
    }
  </style>
  <g>
  	<path d="M22,19.7H1c-0.5,0-1-0.4-1-1V1c0-0.5,0.4-1,1-1H22c0.5,0,1,0.4,1,1v17.7C23,19.2,22.6,19.7,22,19.7z
      M1.2,18.5h20.7V1.2H1.2V18.5z M4.9,23.5c-0.2,0-0.5-0.1-0.7-0.3c-0.4-0.4-0.4-1,0-1.4l2.9-3c0.4-0.4,1-0.4,1.4,0c0.4,0.4,0.4,1,0,1.1
      l-2.9,3C5.4,23.4,5.2,23.5,4.9,23.5z M18.1,23.5c-0.2,0-0.5-0.1-0.7-0.5l-2.8-2.9c-0.4-0.1-0.3-0.7,0-1.1c0.4-0.4,1-0.3,1.4,0l2.8,2.9
      c0.4,0.4,0.3,1,0,1.4C18.6,23.4,18.3,23.5,18.1,23.5z"/>
  </g>
</svg>
