<svg id="Layer_1" xmlns="http://www.w3.org/2000/svg" viewBox="0 0 82.2 73.1"><style>.st0{fill:#ffffff;}</style><path class="st0" d="M41.1 54.2c-.9 0-1.6.7-1.6 1.6V64c0 .9.7 1.6 1.6 1.6.9 0 1.6-.7 1.6-1.6v-8.2c0-.8-.7-1.6-1.6-1.6zm0-47.6c-2.8 0-4.4 2.2-4.8 3.5-.3.8.1 1.8 1 2.1.8.3 1.8-.1 2.1-.9 0-.1.6-1.4 1.7-1.4s1.7 1.4 1.7 1.4c.2.7.9 1.1 1.6 1.1.2 0 .4 0 .6-.1.8-.3 1.3-1.2 1-2.1-.6-1.4-2.1-3.6-4.9-3.6z"/><path class="st0" d="M82.2 45.8l-.9-5.8c-.1-.6-.4-1.1-1-1.2l-13.8-6.2v-7.1c0-.9-.7-1.6-1.6-1.6h-7.4c-.9 0-1.6.7-1.6 1.6v2.3l-5.7-2.5V8.6c0-4.8-3.9-8.6-8.6-8.6h-.8c-4.8 0-8.6 3.9-8.6 8.6v16.6l-5.7 2.5v-2.3c0-.9-.7-1.6-1.6-1.6h-7.4c-.9 0-1.6.7-1.6 1.6v7.1L1.8 38.8c-.5.2-.9.7-1 1.2L0 45.8c-.1.5.1 1 .4 1.3.3.3.7.6 1.2.6H32V59l-11.8 5.3c-.5.2-.9.7-1 1.2l-.3 2.5c-.1.5.1 1 .4 1.3.3.3.7.6 1.2.6h13.3c1.6 2 4 3.3 6.8 3.3h.8c2.8 0 5.2-1.3 6.8-3.3h13.3c.5 0 .9-.2 1.2-.6.3-.3.5-.8.4-1.3l-.3-2.4c-.1-.6-.4-1.1-1-1.2L50 59V47.6h30.4c.5 0 .9-.2 1.2-.6.5-.3.6-.8.6-1.2zM32.1 64.5v2.1h-8.9l8.9-4v1.9zM18.9 27.1H23v2.1L18.9 31v-3.9zm13.2 17.3H3.6l.4-3 28.1-12.6v15.6zM46.8 9.9v54.2c0 3-2.4 5.7-5.3 5.7h-.8c-3 0-5.3-2.8-5.3-5.7V8.6c0-3 2.4-5.3 5.3-5.3h.8c3 0 5.3 2.4 5.3 5.3v1.3zM59 66.5h-8.9v-4.1l8.9 4.1zm.2-39.4h4.1v4l-4.1-1.8v-2.2zm-9.1 17.3V28.8l28.1 12.6.4 3H50.1z"/></svg>