<svg class="menu-icon" id="iconTicket" preserveAspectRatio="xMidYMid meet" xmlns="http://www.w3.org/2000/svg" viewBox="0 0 92.3 62.1">
	<style>
    .menu-icon path { 
      fill: #ffffff;
    }

    @media all and (max-width: 25px) {
      .menu-icon path {
        fill: #00b0b9;
      }
    }
  </style>
  <path d="M56.7 29.3l-5.1 4.1c-.2.2-.3.4-.2.7l1.8 6.2c.1.6-.4 1-.9 1-.1 0-.3 0-.4-.1l-5.4-3.5c-.1-.1-.2-.1-.4-.1-.1 0-.2 0-.4.1l-5.4 3.5c-.1.1-.3.1-.4.1-.5 0-1-.5-.9-1l1.8-6.2c0-.2 0-.5-.2-.7l-5.1-4.1c-.5-.5-.2-1.4.5-1.5l6.5-.2c.3 0 .5-.2.6-.4l2.2-6.1c.2-.3.5-.5.8-.5.3 0 .6.2.8.5l2.2 6.1c.1.2.3.4.6.4l6.5.2c.7.1 1 1 .5 1.5z M21.1 50.9h50.2c2.5 0 4.5-2.4 4.5-5.3V16.5c0-2.9-2-5.3-4.5-5.3H21.1c-2.5 0-4.5 2.4-4.5 5.3v29.1c-.1 2.9 2 5.3 4.5 5.3m0 0v-4c-.6 0-1.1-.6-1.1-1.3V16.5c0-.7.5-1.3 1.1-1.3h50.2c.6 0 1.1.6 1.1 1.3v29.1c0 .5-.2.8-.3.9-.1.1-.4.4-.8.4H21.1v4z M5.1 62.1c-2.8 0-5.1-2.7-5.1-5.9V38.4h1.7c3.5 0 6.3-3.3 6.3-7.3s-2.8-7.3-6.3-7.3H0V6c0-1.6.5-3.1 1.5-4.2C2.5.6 3.8 0 5.1 0h82c2.8 0 5.1 2.7 5.1 5.9v17.8h-1.7c-3.5 0-6.3 3.3-6.3 7.3s2.8 7.3 6.3 7.3h1.7v17.8c0 1.6-.5 3.1-1.5 4.2S88.4 62 87.1 62l-82 .1zm-1.7-20v14c0 1.1.8 2 1.7 2h82c.5 0 .9-.2 1.2-.6.3-.4.5-.9.5-1.4v-14c-4.5-.9-8-5.5-8-11s3.4-10.1 8-11.1V6c0-1.1-.8-2-1.7-2h-82c-.4 0-.9.2-1.2.6-.3.3-.5.8-.5 1.4v14c4.5.9 8 5.5 8 11.1 0 5.5-3.5 10.1-8 11z"/>
</svg>
