<svg class="menu-icon" id="iconHotel" preserveAspectRatio="xMidYMid meet" xmlns="http://www.w3.org/2000/svg" xmlns:xlink="http://www.w3.org/1999/xlink" viewBox="0 0 25 25.1">
  <style type="text/css">
    <!--.st0{opacity:0.8;}-->
    <!--.st1{fill:#00B0B9;}-->
    .icon-hotel { 
      fill: #ffffff;
    }

    @media all and (max-width: 25px) {
      .icon-hotel {
        fill: #00b0b9;
      }
    }
  </style>
  <g class="icon-hotel">
  	<path d="M19.2,25.1H0V11.7l12.4-5.6l6.8,2.4V25.1z M1,24h17.1V9.2l-5.7-2L1,12.3V24z"/>
  	<rect x="11.8" y="7.1" class="st1" width="1" height="17.4"/>
  	<g>
  		<rect x="2.1" y="12.5" transform="matrix(0.9552 -0.2959 0.2959 0.9552 -3.5702 2.3615)" class="st1" width="7.8" height="1"/>
  		<rect x="2.3" y="15.6" transform="matrix(0.9784 -0.2065 0.2065 0.9784 -3.1914 1.5998)" class="st1" width="7.6" height="1"/>
  		<rect x="2.3" y="18.7" transform="matrix(0.9945 -0.105 0.105 0.9945 -1.9818 0.7404)" class="st1" width="7.4" height="1"/>
  		<rect x="2.3" y="21.8" class="st1" width="7.4" height="1"/>
  	</g>
  	<polygon points="25,25.1 16.5,25.1 16.5,24 24,24 24,3.4 16.9,1.1 10.1,4.1 10.1,7.6 9.1,7.6 9.1,3.5 16.8,0 25,2.7 	"/>
  	<rect x="20.8" y="4.6"  width="1" height="2"/>
  	<rect x="20.8" y="8.3"  width="1" height="2"/>
  	<rect x="20.8" y="11.9" width="1" height="2.1"/>
  	<rect x="20.8" y="15.6" width="1" height="2"/>
  	<rect x="20.8" y="19.3" width="1" height="2"/>
  </g>
</svg>
