<?xml version="1.0" encoding="utf-8"?>
<?xml-stylesheet type="text/css" href="../styles/style.css" ?>
<!-- Generator: Adobe Illustrator 19.2.0, SVG Export Plug-In . SVG Version: 6.00 Build 0)  -->
<svg version="1.1" class="omed-logo" xmlns="http://www.w3.org/2000/svg" xmlns:xlink="http://www.w3.org/1999/xlink" 
  preserveAspectRatio="xMidYMid meet" viewBox="0 0 514.6 47" xml:space="preserve">
  <style type="text/css">
  	<!--.st0{fill:#00B0B9;}-->
  	<!--.st1{fill:#BBBDBF;}-->
  	<!--.st2{fill:#404041;}-->
  	<!--.st3{fill:#58595B;}-->
  </style>
  <path class="omed-big-words" d="M45.8,2.2h13.9l8.6,14l8.5-14h14v40H77.5V22.3l-9.2,14.3H68l-9.2-14.3v19.9h-13V2.2z
  	 M130.4,2.2h15.3c15.9,0,23.8,7.8,23.8,19.7V22c0,11.8-8.1,20.2-24.3,20.2h-14.9L130.4,2.2L130.4,2.2z M146,30.5
  	c6.1,0,10.1-2.5,10.1-8.3v-0.1c0-5.8-3.9-8.3-10.1-8.3h-2.2v16.7H146z M0,21.8v-0.1C0,10.1,9.5,0.8,21.9,0.8
  	c12.3,0,21.8,9.1,21.8,20.7v0.1c0,11.6-9.5,20.9-21.9,20.9S0,33.4,0,21.8 M30.2,21.8v-0.1c0-4.7-3.3-9-8.4-9s-8.3,4.2-8.3,8.9v0.1
  	c0,4.7,3.3,9,8.4,9S30.2,26.5,30.2,21.8 M127.7,13.2v-11H93.6v40h34.1v-11h-23.1v-4.3h19.7v-9.7h-19.7v-4L127.7,13.2z M175.7,0.3
  	c0.5,0.2,1,0.5,1.4,0.9s0.7,0.9,0.9,1.4s0.3,1.1,0.3,1.7S178.2,5.5,178,6s-0.5,1-0.9,1.4s-0.9,0.7-1.4,0.9s-1.1,0.3-1.7,0.3
  	c-0.6,0-1.2-0.1-1.7-0.3s-1-0.5-1.4-0.9S170.2,6.5,170,6s-0.3-1.1-0.3-1.7s0.1-1.2,0.3-1.7s0.5-1,0.9-1.4s0.9-0.7,1.4-0.9
  	S173.4,0,174,0S175.2,0.1,175.7,0.3 M172.5,0.9c-0.5,0.2-0.9,0.5-1.2,0.8s-0.6,0.7-0.8,1.2s-0.3,1-0.3,1.5s0.1,1,0.3,1.5
  	s0.4,0.9,0.8,1.2c0.3,0.3,0.7,0.6,1.2,0.8c0.5,0.2,0.9,0.3,1.5,0.3c0.5,0,1-0.1,1.5-0.3s0.9-0.5,1.2-0.8s0.6-0.7,0.8-1.2
  	s0.3-1,0.3-1.5s-0.1-1-0.3-1.5S177,2,176.7,1.7s-0.7-0.6-1.2-0.8s-0.9-0.3-1.5-0.3S172.9,0.7,172.5,0.9 M172.3,7V1.9h2
  	c0.6,0,1,0.1,1.3,0.4c0.3,0.2,0.4,0.6,0.4,1c0,0.2,0,0.4-0.1,0.6c-0.1,0.2-0.2,0.3-0.3,0.4s-0.3,0.2-0.4,0.3
  	c-0.2,0.1-0.3,0.1-0.5,0.1l1.5,2.3h-0.7L174,4.7h-1V7H172.3z M174.4,4.1c0.2,0,0.4,0,0.5-0.1s0.3-0.1,0.3-0.3
  	c0.1-0.1,0.1-0.3,0.1-0.5s0-0.3-0.1-0.4l-0.3-0.3c-0.1-0.1-0.2-0.1-0.4-0.1H173v1.8h0.8C174,4.2,174.2,4.2,174.4,4.1 M193.3,12.5
  	l-6.6,1.5l-2.1-8.4l11.5-3.3h8V42h-10.8L193.3,12.5z M213.6,38.1c-3-3-4.9-7.5-4.9-15V23c0-12.5,6.1-22.1,18.7-22.1
  	c5.6,0,9.5,1.6,13.4,4.4l-5.2,7.9c-2.5-1.8-4.8-3-8-3c-4.7,0-7.1,3.5-7.6,8.6c2.1-1.6,4.7-3.1,8.7-3.1c7.1,0,13.3,4.5,13.3,12.5
  	v0.1c0,9-7.2,14.5-16,14.5C220.2,42.7,216.5,41,213.6,38.1z M231,28.9v-0.1c0-2.9-2.2-5.2-5.7-5.2s-5.6,2.2-5.6,5.1v0.1
  	c0,2.9,2.2,5.2,5.7,5.2S231,31.8,231,28.9z"/>
  <path class="omed-rule" d="M266.9,4h2v39.8h-2V4z"/>
  <g class="omed-tagline">
    <path class="omed-renew" d="M291.2,3.5h5.5c2.3,0,3.8,0.5,4.8,1.5c0.8,0.8,1.2,1.8,1.2,3.1c0,1.5-0.5,2.7-1.4,3.6
    	c-0.8,0.8-2,1.5-3.5,1.8l2.6,5.2h-3.8l-2.4-4.9h-2.5l-1.3,4.9H287L291.2,3.5z M295.5,10.9c1.3,0,2.4-0.3,3.1-1
    	c0.4-0.4,0.6-0.9,0.6-1.5c0-0.5-0.2-0.9-0.5-1.2c-0.4-0.4-1.2-0.6-2.2-0.6h-2.8l-1.2,4.4h3V10.9z M306.6,14c0.1,1.4,0.9,2.3,2.7,2.3
    	c0.9,0,1.6-0.3,2.6-0.9l1.5,2c-1,0.9-2.5,1.5-4.5,1.5c-3.4,0-5.4-2-5.4-5.2c0-3.4,2.7-7,6.9-7c3,0,4.8,2,4.8,4.5
    	c0,0.8-0.2,1.8-0.6,2.7h-8V14z M306.9,12h5.1c0.1-0.2,0.1-0.5,0.1-0.8c0-1-0.6-1.7-1.9-1.7C308.7,9.5,307.5,10.5,306.9,12L306.9,12z
    	 M318.9,7h3.3l-0.3,1.2c0.8-0.7,1.9-1.4,3.2-1.4c2.1,0,3.4,1.3,3.4,3.4c0,0.7-0.2,1.5-0.4,2.2l-1.7,6.3h-3.3l1.7-6.4
    	c0.1-0.3,0.2-0.8,0.2-1c0-0.9-0.6-1.4-1.6-1.4c-1.3,0-2.2,0.9-2.5,2.3l-1.8,6.5h-3.3L318.9,7z M333.3,14c0.1,1.4,0.9,2.3,2.7,2.3
    	c0.9,0,1.6-0.3,2.6-0.9l1.5,2c-1,0.9-2.5,1.5-4.5,1.5c-3.4,0-5.4-2-5.4-5.2c0-3.4,2.7-7,6.9-7c3,0,4.8,2,4.8,4.5
    	c0,0.8-0.2,1.8-0.6,2.7h-8V14z M333.6,12h5.1c0.1-0.2,0.1-0.5,0.1-0.8c0-1-0.6-1.7-1.9-1.7C335.4,9.5,334.2,10.5,333.6,12L333.6,12z
    	 M343.9,7h3.4v7.1l4.1-7.1h2.9l0.3,7.1l3.8-7.1h3.3l-6.8,11.7h-3l-0.3-7.2l-4.2,7.2h-3L343.9,7L343.9,7z"/>
    <path class="omed-your" d="M368.4,21.7l0.6-1.3c0.5,0.3,1,0.4,1.8,0.4c1,0,1.6-0.5,2.3-2.1L368,7.5h1.8l4.1,9.4
    	l3.6-9.4h1.8l-4.7,11.6c-1,2.3-2,3.2-3.7,3.2C369.9,22.3,369.2,22.1,368.4,21.7L368.4,21.7z M380.6,13.1c0-3.2,2.5-5.9,5.9-5.9
    	s5.9,2.7,5.9,5.8c0,3.2-2.5,5.9-5.9,5.9C383,19,380.6,16.3,380.6,13.1z M390.6,13.1c0-2.5-1.8-4.4-4.2-4.4c-2.4,0-4.1,2-4.1,4.4
    	s1.8,4.4,4.2,4.4C388.9,17.5,390.6,15.5,390.6,13.1z M395.1,14.4v-7h1.7V14c0,2.1,1.1,3.4,3.1,3.4c1.9,0,3.4-1.4,3.4-3.5V7.5h1.7
    	v11.2h-1.7v-2c-0.8,1.2-1.9,2.2-3.9,2.2C396.7,19,395.1,17.1,395.1,14.4L395.1,14.4z M408.7,7.5h1.7v2.9c0.8-1.9,2.5-3.2,4.6-3.1
    	v1.8h-0.1c-2.5,0-4.5,1.8-4.5,5.2v4.5h-1.7V7.5z M424.1,7.5h1.7v2.3c0.9-1.3,2.2-2.5,4.3-2.5c2.7,0,5.4,2.1,5.4,5.8
    	s-2.7,5.9-5.4,5.9c-2.1,0-3.4-1.1-4.3-2.4v5.6h-1.7V7.5z M433.7,13.1c0-2.7-1.8-4.4-4-4.4c-2.1,0-4.1,1.8-4.1,4.3
    	c0,2.6,2,4.4,4.1,4.4C431.9,17.4,433.7,15.8,433.7,13.1z M438.3,14.4v-7h1.7V14c0,2.1,1.1,3.4,3.1,3.4c1.9,0,3.4-1.4,3.4-3.5V7.5
    	h1.7v11.2h-1.7v-2c-0.8,1.2-1.9,2.2-3.9,2.2C439.9,19,438.3,17.1,438.3,14.4L438.3,14.4z M451.9,7.5h1.7v2.9
    	c0.8-1.9,2.5-3.2,4.6-3.1v1.8h-0.1c-2.5,0-4.5,1.8-4.5,5.2v4.5h-1.7V7.5z M460.7,7.5h1.7v2.3c0.9-1.3,2.2-2.5,4.3-2.5
    	c2.7,0,5.4,2.1,5.4,5.8s-2.7,5.9-5.4,5.9c-2.1,0-3.4-1.1-4.3-2.4v5.6h-1.7V7.5z M470.4,13.1c0-2.7-1.8-4.4-4-4.4
    	c-2.1,0-4.1,1.8-4.1,4.3c0,2.6,2,4.4,4.1,4.4C468.6,17.4,470.4,15.8,470.4,13.1z M474.5,13.1c0-3.2,2.5-5.9,5.9-5.9s5.9,2.7,5.9,5.8
    	c0,3.2-2.5,5.9-5.9,5.9C477,19,474.5,16.3,474.5,13.1z M484.5,13.1c0-2.5-1.8-4.4-4.2-4.4c-2.4,0-4.1,2-4.1,4.4s1.8,4.4,4.2,4.4
    	C482.8,17.5,484.5,15.5,484.5,13.1z M488.3,17.3l0.8-1.2c1.2,0.9,2.6,1.4,3.9,1.4s2.3-0.7,2.3-1.8s-1.3-1.6-2.8-2
    	c-1.8-0.5-3.7-1.1-3.7-3.2c0-1.9,1.6-3.2,3.8-3.2c1.4,0,2.9,0.5,4,1.2L496,9.8c-1-0.7-2.2-1.1-3.3-1.1c-1.3,0-2.2,0.7-2.2,1.6
    	c0,1.1,1.4,1.5,2.9,1.9c1.7,0.5,3.6,1.2,3.6,3.2c0,2.1-1.8,3.4-4,3.4C491.4,18.9,489.6,18.3,488.3,17.3L488.3,17.3z M505.1,17.5
    	c1.5,0,2.6-0.6,3.5-1.6l1,0.9c-1.1,1.3-2.5,2.1-4.6,2.1c-3.1,0-5.6-2.4-5.6-5.9c0-3.3,2.3-5.9,5.4-5.9c3.3,0,5.2,2.7,5.2,6v0.6h-8.9
    	C501.3,16.1,503.1,17.5,505.1,17.5z M508.3,12.4c-0.2-2-1.4-3.8-3.6-3.8c-1.9,0-3.4,1.6-3.7,3.8H508.3L508.3,12.4z M512.6,16.4h2
    	v2.3h-2V16.4z"/>
    <path class="omed-renew" d="M291.2,28.2h5.5c2.3,0,3.8,0.5,4.8,1.5c0.8,0.8,1.2,1.8,1.2,3.1c0,1.5-0.5,2.7-1.4,3.6
    	c-0.8,0.8-2,1.5-3.5,1.8l2.6,5.2h-3.8l-2.4-4.9h-2.5l-1.3,4.9H287C287,43.4,291.2,28.2,291.2,28.2z M295.5,35.6c1.3,0,2.4-0.3,3.1-1
    	c0.4-0.4,0.6-0.9,0.6-1.5c0-0.5-0.2-0.9-0.5-1.2c-0.4-0.4-1.2-0.6-2.2-0.6h-2.8l-1.2,4.4L295.5,35.6L295.5,35.6z M306.6,38.8
    	c0.1,1.4,0.9,2.3,2.7,2.3c0.9,0,1.6-0.3,2.6-0.9l1.5,2c-1,0.9-2.5,1.5-4.5,1.5c-3.4,0-5.4-2-5.4-5.2c0-3.4,2.7-7,6.9-7
    	c3,0,4.8,2,4.8,4.5c0,0.8-0.2,1.8-0.6,2.7h-8V38.8z M306.9,36.7h5.1c0.1-0.2,0.1-0.5,0.1-0.8c0-1-0.6-1.7-1.9-1.7
    	C308.7,34.2,307.5,35.2,306.9,36.7L306.9,36.7z M318.9,31.8h3.3l-0.3,1.2c0.8-0.7,1.9-1.4,3.2-1.4c2.1,0,3.4,1.3,3.4,3.4
    	c0,0.7-0.2,1.5-0.4,2.2l-1.7,6.3h-3.3l1.7-6.4c0.1-0.3,0.2-0.8,0.2-1c0-0.9-0.6-1.4-1.6-1.4c-1.3,0-2.2,0.9-2.5,2.3l-1.8,6.5h-3.3
    	L318.9,31.8L318.9,31.8z M333.3,38.8c0.1,1.4,0.9,2.3,2.7,2.3c0.9,0,1.6-0.3,2.6-0.9l1.5,2c-1,0.9-2.5,1.5-4.5,1.5
    	c-3.4,0-5.4-2-5.4-5.2c0-3.4,2.7-7,6.9-7c3,0,4.8,2,4.8,4.5c0,0.8-0.2,1.8-0.6,2.7h-8V38.8z M333.6,36.7h5.1
    	c0.1-0.2,0.1-0.5,0.1-0.8c0-1-0.6-1.7-1.9-1.7C335.4,34.2,334.2,35.2,333.6,36.7L333.6,36.7z M343.9,31.8h3.4v7.1l4.1-7.1h2.9
    	l0.3,7.1l3.8-7.1h3.3l-6.8,11.8h-3l-0.3-7.2l-4.2,7.2h-3L343.9,31.8L343.9,31.8z"/>
    <path class="omed-your" d="M368.4,46.4l0.6-1.3c0.5,0.3,1,0.4,1.8,0.4c1,0,1.6-0.5,2.3-2.1L368,32.2h1.8l4.1,9.4
    	l3.6-9.4h1.8l-4.7,11.6c-1,2.3-2,3.2-3.7,3.2C369.9,47,369.2,46.8,368.4,46.4L368.4,46.4z M380.6,37.9c0-3.2,2.5-5.9,5.9-5.9
    	s5.9,2.7,5.9,5.8c0,3.2-2.5,5.9-5.9,5.9C383,43.7,380.6,41.1,380.6,37.9z M390.6,37.9c0-2.5-1.8-4.4-4.2-4.4c-2.4,0-4.1,2-4.1,4.4
    	s1.8,4.4,4.2,4.4C388.9,42.2,390.6,40.2,390.6,37.9z M395.1,39.2v-7h1.7v6.6c0,2.1,1.1,3.4,3.1,3.4c1.9,0,3.4-1.4,3.4-3.5v-6.4h1.7
    	v11.2h-1.7v-2c-0.8,1.2-1.9,2.2-3.9,2.2C396.7,43.7,395.1,41.9,395.1,39.2L395.1,39.2z M408.7,32.2h1.7v2.9c0.8-1.9,2.5-3.2,4.6-3.1
    	v1.8h-0.1c-2.5,0-4.5,1.8-4.5,5.2v4.5h-1.7V32.2z M424.1,32.2h1.7v2.3c0.9-1.3,2.2-2.5,4.3-2.5c2.7,0,5.4,2.1,5.4,5.8
    	s-2.7,5.9-5.4,5.9c-2.1,0-3.4-1.1-4.3-2.4v5.6h-1.7V32.2z M433.7,37.9c0-2.7-1.8-4.4-4-4.4c-2.1,0-4.1,1.8-4.1,4.3
    	c0,2.6,2,4.4,4.1,4.4C431.9,42.2,433.7,40.6,433.7,37.9z M437.7,40.2c0-2.5,2-3.7,4.8-3.7c1.4,0,2.4,0.2,3.4,0.5v-0.3
    	c0-2-1.2-3-3.3-3c-1.3,0-2.4,0.3-3.4,0.8l-0.5-1.4c1.2-0.6,2.4-1,4.1-1c1.6,0,2.8,0.4,3.6,1.2c0.8,0.8,1.2,1.9,1.2,3.3v6.9h-1.7
    	v-1.7c-0.8,1-2.1,1.9-4,1.9C439.8,43.7,437.7,42.5,437.7,40.2z M445.9,39.3v-1c-0.8-0.2-1.9-0.5-3.3-0.5c-2.1,0-3.3,0.9-3.3,2.3
    	s1.3,2.2,2.8,2.2C444.3,42.3,445.9,41.1,445.9,39.3z M450.2,42l0.8-1.2c1.2,0.9,2.6,1.4,3.9,1.4s2.3-0.7,2.3-1.8s-1.3-1.6-2.8-2
    	c-1.8-0.5-3.7-1.1-3.7-3.2c0-1.9,1.6-3.2,3.8-3.2c1.4,0,2.9,0.5,4,1.2l-0.8,1.3c-1-0.7-2.2-1.1-3.3-1.1c-1.3,0-2.2,0.7-2.2,1.6
    	c0,1.1,1.4,1.5,2.9,1.9c1.7,0.5,3.6,1.2,3.6,3.2c0,2.1-1.8,3.4-4,3.4C453.2,43.7,451.5,43,450.2,42L450.2,42z M460.8,42l0.8-1.2
    	c1.2,0.9,2.6,1.4,3.9,1.4s2.3-0.7,2.3-1.8s-1.3-1.6-2.8-2c-1.8-0.5-3.7-1.1-3.7-3.2c0-1.9,1.6-3.2,3.8-3.2c1.4,0,2.9,0.5,4,1.2
    	l-0.8,1.3c-1-0.7-2.2-1.1-3.3-1.1c-1.3,0-2.2,0.7-2.2,1.6c0,1.1,1.4,1.5,2.9,1.9c1.7,0.5,3.6,1.2,3.6,3.2c0,2.1-1.8,3.4-4,3.4
    	C463.9,43.7,462.1,43,460.8,42L460.8,42z M472.6,27.9h1.9v1.8h-1.9V27.9z M472.7,32.2h1.7v11.2h-1.7V32.2z M477.6,37.9
    	c0-3.2,2.5-5.9,5.9-5.9s5.9,2.7,5.9,5.8c0,3.2-2.5,5.9-5.9,5.9S477.6,41.1,477.6,37.9z M487.6,37.9c0-2.5-1.8-4.4-4.2-4.4
    	c-2.4,0-4.1,2-4.1,4.4s1.8,4.4,4.2,4.4C485.9,42.2,487.6,40.2,487.6,37.9z M492.4,32.2h1.7v2C494.8,33,496,32,498,32
    	c2.7,0,4.3,1.8,4.3,4.5v7h-1.7v-6.6c0-2.1-1.1-3.4-3.1-3.4c-1.9,0-3.4,1.4-3.4,3.5v6.4h-1.7L492.4,32.2L492.4,32.2z M505.6,41.2h2
    	v2.3h-2V41.2z"/>
  </g>
</svg>
