<svg id="Layer_1" xmlns="http://www.w3.org/2000/svg" viewBox="0 0 246 68.3"><style>.st0{fill:#404041;} .st1{fill:#BBBDBF;} .st2{fill:#00B0B9;}</style><path class="st0" d="M235.8 63.2l2.1-4.8 2.1 4.8h-4.2zm-2.7 3.4h1.1l1.1-2.5h5.1l1.1 2.5h1.1l-4.3-9.5h-1l-4.2 9.5zm-4.8.2c1.7 0 2.8-.7 3.8-1.7l-.7-.7c-.9.9-1.7 1.4-3 1.4-2.1 0-3.6-1.7-3.6-3.9s1.6-3.9 3.6-3.9c1.3 0 2.2.5 3 1.3l.7-.8c-.9-.9-2-1.5-3.7-1.5-2.8 0-4.8 2.2-4.8 4.9s2 4.9 4.7 4.9m-12.2 1.5c1-.2 1.5-.8 1.5-1.8v-1.2h-1.2v1.4h.5c.1.6-.2.9-.9 1.2l.1.4zM205 66.6h1V59l3.4 5h.1l3.4-5v7.6h1.1v-9.4h-1l-3.4 5.1-3.4-5.1H205v9.4zm-3.8 0h1.1v-9.4h-1.1v9.4zm-9.1 0h6.9v-1h-5.8v-3.3h5.1v-1h-5.1v-3.2h5.7v-1h-6.8v9.5zm-10.2 0h1.1v-4.2h5.4v4.2h1.1v-9.4h-1.1v4.2H183v-4.2h-1.1v9.4zm-8.8-3.4l2.2-4.8 2.1 4.8h-4.3zm-2.6 3.4h1.1l1.1-2.5h5.1l1.1 2.5h1.1l-4.3-9.5h-1l-4.2 9.5zm-9.9 0h1v-7.7l6.1 7.7h.8v-9.4h-1v7.5l-5.9-7.5h-1v9.4zm-8.8-3.4l2.2-4.8 2.1 4.8h-4.3zm-2.6 3.4h1.1l1.1-2.5h5.1l1.1 2.5h1.1l-4.3-9.5h-1l-4.2 9.5z"/><path class="st1" d="M138.1 55.9h.9v12.5h-.9z"/><path class="st0" d="M123.7 65.8c-1.8 0-2.9-1.8-2.9-3.9 0-2.1 1.1-3.9 2.9-3.9 1.7 0 2.9 1.8 2.9 3.9-.1 2.1-1.2 3.9-2.9 3.9m0 1c2.4 0 4-2.2 4-4.9 0-2.6-1.5-4.8-4-4.8-2.4 0-4 2.2-4 4.9 0 2.6 1.5 4.8 4 4.8m-12.2-.2h6.6v-1h-5l2.5-2.2c1.7-1.4 2.4-2.3 2.4-3.7 0-1.5-1.2-2.7-2.9-2.7s-2.5.7-3.4 2l.8.6c.8-1 1.5-1.6 2.5-1.6s1.9.7 1.9 1.8c0 .9-.5 1.7-2 3l-3.4 3v.8zm-6.9-3.5h5.3v-1h-5.3v1zm-6.7 3.5h1.2l4.3-8.6v-.8H97v1h5.2l-4.3 8.4zm-4.2 0h1v-9.5H94l-2.3.8.3.9 1.8-.6v8.4zM79.9 62v-3.8h2.9c1.5 0 2.4.7 2.4 1.9s-1 1.9-2.4 1.9h-2.9zm-1 4.6H80V63h2.7l2.7 3.7h1.3l-2.9-3.8c1.5-.3 2.6-1.2 2.6-2.7 0-.7-.3-1.4-.7-1.9-.6-.6-1.5-.9-2.7-.9h-4v9.2zm-9.1 0h6.9v-1h-5.8v-3.3H76v-1h-5.1v-3.2h5.7v-1h-6.8v9.5zm-8.6-.9v-3.3h3c1.6 0 2.5.6 2.5 1.6s-.9 1.7-2.3 1.7h-3.2zm0-4.3v-3.2h2.9c1.3 0 2.1.6 2.1 1.5 0 1.1-.9 1.7-2.2 1.7h-2.8zm-1.1 5.2h4.2c2.1 0 3.4-1 3.4-2.6 0-1.3-.9-1.9-2-2.3.7-.3 1.5-1 1.5-2.2 0-.6-.2-1.1-.6-1.5-.5-.5-1.4-.8-2.5-.8h-4v9.4zm-11.6 0h1V59l3.4 5h.1l3.4-5v7.6h1.1v-9.4h-1.1L53 62.3l-3.4-5.1h-1.1v9.4zm-9 0h6.9v-1h-5.8v-3.3h5.1v-1h-5.1v-3.2h5.7v-1h-6.8v9.5zm-6.3 0h1.1v-8.4h3.2v-1h-7.4v1h3.2v8.4zm-10.4-4.3v-4.1h2.4c1.5 0 2.5.7 2.5 2 0 1.2-1 2.1-2.6 2.1h-2.3zm-1 4.3h1.1v-3.3h2.3c2 0 3.7-1 3.7-3.1 0-1.9-1.4-3-3.5-3h-3.5v9.4zm-9 0h6.9v-1h-5.8v-3.3H19v-1h-5.1v-3.2h5.7v-1h-6.8v9.5zm-5.4.2c1.9 0 3.2-1 3.2-2.7 0-1.4-1-2.2-3.1-2.7-2-.4-2.5-.9-2.5-1.8S5.7 58 7 58c1 0 1.8.3 2.7 1l.6-.8C9.3 57.4 8.4 57 7 57c-1.8 0-3.1 1.1-3.1 2.6s1 2.2 3.2 2.7c2 .4 2.4.9 2.4 1.8s-.8 1.6-2.1 1.6-2.2-.4-3.2-1.3l-.7.8c1.2 1.1 2.4 1.6 3.9 1.6"/><path class="st2" d="M47.9 2.2h14l8.5 14 8.6-14h14v40H79.6V22.3l-9.2 14.3h-.2L61 22.3v19.9H47.9zm84.7 0h15.3c15.9 0 23.8 7.8 23.8 19.7v.1c0 11.8-8.1 20.2-24.3 20.2h-14.9v-40zm15.6 28.3c6.1 0 10.1-2.5 10.1-8.3v-.1c0-5.8-3.9-8.3-10.1-8.3H146v16.7h2.2zm-146-8.7v-.1C2.2 10.1 11.7.8 24.1.8c12.3 0 21.8 9.1 21.8 20.7v.1c0 11.6-9.5 20.9-21.9 20.9S2.2 33.4 2.2 21.8m30.2 0v-.1c0-4.7-3.3-9-8.4-9-5.1 0-8.3 4.2-8.3 8.9v.1c0 4.7 3.3 9 8.4 9 5.1 0 8.3-4.2 8.3-8.9m97.5-8.6v-11H95.8v40h34.1v-11h-23.1v-4.3h19.7v-9.7h-19.7v-4zm48-12.9c.5.2 1 .5 1.4.9.4.4.7.9.9 1.4.2.5.3 1.1.3 1.7 0 .6-.1 1.2-.3 1.7-.2.5-.5 1-.9 1.4-.4.4-.9.7-1.4.9-.5.2-1.1.3-1.7.3-.6 0-1.2-.1-1.7-.3-.5-.2-1-.5-1.4-.9-.4-.4-.7-.9-.9-1.4-.2-.5-.3-1.1-.3-1.7 0-.6.1-1.2.3-1.7.2-.5.5-1 .9-1.4.4-.4.9-.7 1.4-.9.5-.2 1.1-.3 1.7-.3.6 0 1.1.1 1.7.3m-3.3.6c-.5.2-.9.5-1.2.8-.3.3-.6.7-.8 1.2-.2.5-.3 1-.3 1.5s.1 1 .3 1.5c.2.5.4.9.8 1.2.3.3.7.6 1.2.8.5.2.9.3 1.5.3.5 0 1-.1 1.5-.3.5-.2.9-.5 1.2-.8.3-.3.6-.7.8-1.2.2-.5.3-1 .3-1.5s-.1-1-.3-1.5c-.2-.5-.5-.9-.8-1.2-.3-.3-.7-.6-1.2-.8-.5-.2-.9-.3-1.5-.3-.5 0-1 .1-1.5.3m-.1 6.1V1.9h2c.6 0 1 .1 1.3.4.3.2.4.6.4 1 0 .2 0 .4-.1.6-.1.2-.2.3-.3.4-.1.1-.3.2-.4.3-.2.1-.3.1-.5.1l1.5 2.3h-.7l-1.4-2.3h-1.1V7h-.7zm2.1-2.9c.2 0 .4 0 .5-.1.1-.1.3-.1.3-.3.1-.1.1-.3.1-.5s0-.3-.1-.4l-.3-.3c-.1-.1-.2-.1-.4-.1H175v1.8h.8c.4 0 .6 0 .8-.1m18.9 8.4l-6.6 1.5-2.1-8.4 11.5-3.3h7.9V42h-10.7zM215.8 38.1c-3-3-4.9-7.5-4.9-15V23c0-12.5 6.1-22.1 18.7-22.1 5.6 0 9.5 1.6 13.4 4.4l-5.2 7.9c-2.5-1.8-4.8-3-8-3-4.7 0-7.1 3.5-7.6 8.6 2.1-1.6 4.7-3.1 8.7-3.1 7.1 0 13.3 4.5 13.3 12.5v.1c0 9-7.2 14.5-16 14.5-5.8-.1-9.5-1.8-12.4-4.7zm17.4-9.2v-.1c0-2.9-2.2-5.2-5.7-5.2s-5.6 2.2-5.6 5.1v.1c0 2.9 2.2 5.2 5.7 5.2s5.6-2.2 5.6-5.1z"/></svg>