<svg id="Layer_1" xmlns="http://www.w3.org/2000/svg" viewBox="0 0 514.6 47"><style>.st0{fill:#00B0B9;} .st1{display:none;} .st2{display:inline;} .st3{fill:#FFFFFF;} .st4{opacity:0.6;}</style><g id="logo_1_"><path class="st0" d="M45.8 2.2h13.9l8.6 14 8.5-14h14v40H77.5V22.3l-9.2 14.3H68l-9.2-14.3v19.9h-13zM130.4 2.2h15.3c15.9 0 23.8 7.8 23.8 19.7v.1c0 11.8-8.1 20.2-24.3 20.2h-14.9v-40zM146 30.5c6.1 0 10.1-2.5 10.1-8.3v-.1c0-5.8-3.9-8.3-10.1-8.3h-2.2v16.7h2.2zM0 21.8v-.1C0 10.1 9.5.8 21.9.8c12.3 0 21.8 9.1 21.8 20.7v.1c0 11.6-9.5 20.9-21.9 20.9S0 33.4 0 21.8m30.2 0v-.1c0-4.7-3.3-9-8.4-9-5.1 0-8.3 4.2-8.3 8.9v.1c0 4.7 3.3 9 8.4 9 5.1 0 8.3-4.2 8.3-8.9M127.7 13.2v-11H93.6v40h34.1v-11h-23.1v-4.3h19.7v-9.7h-19.7v-4zM175.7.3c.5.2 1 .5 1.4.9.4.4.7.9.9 1.4.2.5.3 1.1.3 1.7 0 .6-.1 1.2-.3 1.7-.2.5-.5 1-.9 1.4-.4.4-.9.7-1.4.9-.5.2-1.1.3-1.7.3-.6 0-1.2-.1-1.7-.3-.5-.2-1-.5-1.4-.9-.4-.4-.7-.9-.9-1.4-.2-.5-.3-1.1-.3-1.7 0-.6.1-1.2.3-1.7.2-.5.5-1 .9-1.4.4-.4.9-.7 1.4-.9.5-.2 1.1-.3 1.7-.3.6 0 1.2.1 1.7.3m-3.2.6c-.5.2-.9.5-1.2.8-.3.3-.6.7-.8 1.2-.2.5-.3 1-.3 1.5s.1 1 .3 1.5c.2.5.4.9.8 1.2.3.3.7.6 1.2.8.5.2.9.3 1.5.3.5 0 1-.1 1.5-.3.5-.2.9-.5 1.2-.8.3-.3.6-.7.8-1.2.2-.5.3-1 .3-1.5s-.1-1-.3-1.5c-.2-.5-.5-.9-.8-1.2-.3-.3-.7-.6-1.2-.8s-.9-.3-1.5-.3-1.1.1-1.5.3m-.2 6.1V1.9h2c.6 0 1 .1 1.3.4.3.2.4.6.4 1 0 .2 0 .4-.1.6-.1.2-.2.3-.3.4-.1.1-.3.2-.4.3-.2.1-.3.1-.5.1l1.5 2.3h-.7L174 4.7h-1V7h-.7zm2.1-2.9c.2 0 .4 0 .5-.1.1-.1.3-.1.3-.3.1-.1.1-.3.1-.5s0-.3-.1-.4l-.3-.3c-.1-.1-.2-.1-.4-.1H173v1.8h.8c.2 0 .4 0 .6-.1M193.3 12.5l-6.6 1.5-2.1-8.4 11.5-3.3h8V42h-10.8z"/><g><path class="st0" d="M213.6 38.1c-3-3-4.9-7.5-4.9-15V23c0-12.5 6.1-22.1 18.7-22.1 5.6 0 9.5 1.6 13.4 4.4l-5.2 7.9c-2.5-1.8-4.8-3-8-3-4.7 0-7.1 3.5-7.6 8.6 2.1-1.6 4.7-3.1 8.7-3.1 7.1 0 13.3 4.5 13.3 12.5v.1c0 9-7.2 14.5-16 14.5-5.8-.1-9.5-1.8-12.4-4.7zm17.4-9.2v-.1c0-2.9-2.2-5.2-5.7-5.2s-5.6 2.2-5.6 5.1v.1c0 2.9 2.2 5.2 5.7 5.2s5.6-2.2 5.6-5.1z"/></g></g><g class="st1"><g class="st2"><path class="st3" d="M50.5 3.5h13.9l8.6 14 8.6-14h13.9v40H82.2V23.6L73 37.9h-.2l-9.2-14.3v19.9H50.5zM135.1 3.5h15.3c15.9 0 23.8 7.8 23.8 19.7v.1c0 11.8-8.1 20.2-24.3 20.2H135v-40zm15.6 28.3c6.1 0 10.1-2.5 10.1-8.3v-.1c0-5.8-3.9-8.3-10.1-8.3h-2.2v16.7h2.2zM4.7 23.1V23c0-11.6 9.5-20.9 21.9-20.9 12.3 0 21.8 9.1 21.8 20.7v.1c0 11.6-9.5 20.9-21.9 20.9S4.7 34.7 4.7 23.1m30.2 0V23c0-4.7-3.3-9-8.4-9-5.1 0-8.3 4.2-8.3 8.9v.1c0 4.7 3.3 9 8.4 9 5.1 0 8.3-4.3 8.3-8.9M132.5 14.4V3.5H98.4v40h34.1v-11h-23.1v-4.4h19.7v-9.6h-19.7v-4.1zM180.4 1.6c.5.2 1 .5 1.4.9.4.4.7.9.9 1.4.2.5.3 1.1.3 1.7 0 .6-.1 1.2-.3 1.7-.2.5-.5 1-.9 1.4-.4.4-.9.7-1.4.9-.5.2-1.1.3-1.7.3-.6 0-1.2-.1-1.7-.3-.5-.2-1-.5-1.4-.9-.4-.4-.7-.9-.9-1.4-.2-.5-.3-1.1-.3-1.7 0-.6.1-1.2.3-1.7.2-.5.5-1 .9-1.4.4-.4.9-.7 1.4-.9.5-.2 1.1-.3 1.7-.3.6 0 1.2.1 1.7.3m-3.2.6c-.5.2-.9.5-1.2.8-.3.3-.6.7-.8 1.2-.2.5-.3 1-.3 1.5s.1 1 .3 1.5c.2.5.4.9.8 1.2.3.3.7.6 1.2.8.5.2.9.3 1.5.3.5 0 1-.1 1.5-.3.5-.2.9-.5 1.2-.8.3-.3.6-.7.8-1.2.2-.5.3-1 .3-1.5s-.1-1-.3-1.5c-.2-.5-.5-.9-.8-1.2-.3-.3-.7-.6-1.2-.8s-.9-.3-1.5-.3c-.5 0-1 .1-1.5.3m-.1 6V3.1h2c.6 0 1 .1 1.3.4.3.2.4.6.4 1 0 .2 0 .4-.1.6-.1.2-.2.3-.3.4-.1.1-.3.2-.4.3-.2.1-.3.1-.5.1l1.5 2.3h-.7L178.8 6h-1.1v2.3h-.6zm2-2.8c.2 0 .4 0 .5-.1.1-.1.3-.1.3-.3.1-.1.1-.3.1-.5s0-.3-.1-.4l-.3-.3c-.1-.1-.2-.1-.4-.1h-1.7v1.8h.8c.4-.1.6-.1.8-.1M198.1 13.8l-6.7 1.5-2-8.4 11.5-3.3h7.9v39.6h-10.7z"/></g><path class="st2 st3" d="M218.4 39.4c-3-3-4.9-7.5-4.9-15v-.1c0-12.5 6.1-22.1 18.7-22.1 5.6 0 9.5 1.6 13.4 4.4l-5.2 7.9c-2.5-1.8-4.8-3-8-3-4.7 0-7.1 3.5-7.6 8.6 2.1-1.6 4.7-3.1 8.7-3.1 7.1 0 13.3 4.5 13.3 12.5v.1c0 9-7.2 14.5-16 14.5-5.8-.1-9.6-1.8-12.4-4.7zm17.4-9.2V30c0-2.9-2.2-5.2-5.7-5.2s-5.6 2.2-5.6 5.1v.1c0 2.9 2.2 5.2 5.7 5.2s5.6-2.1 5.6-5z"/></g><g class="st4"><path class="st3" d="M291.2 3.5h5.5c2.3 0 3.8.5 4.8 1.5.8.8 1.2 1.8 1.2 3.1 0 1.5-.5 2.7-1.4 3.6-.8.8-2 1.5-3.5 1.8l2.6 5.2h-3.8l-2.4-4.9h-2.5l-1.3 4.9H287l4.2-15.2zm4.3 7.4c1.3 0 2.4-.3 3.1-1 .4-.4.6-.9.6-1.5 0-.5-.2-.9-.5-1.2-.4-.4-1.2-.6-2.2-.6h-2.8l-1.2 4.4h3zM306.6 14c.1 1.4.9 2.3 2.7 2.3.9 0 1.6-.3 2.6-.9l1.5 2c-1 .9-2.5 1.5-4.5 1.5-3.4 0-5.4-2-5.4-5.2 0-3.4 2.7-7 6.9-7 3 0 4.8 2 4.8 4.5 0 .8-.2 1.8-.6 2.7h-8zm.3-2h5.1c.1-.2.1-.5.1-.8 0-1-.6-1.7-1.9-1.7-1.5 0-2.7 1-3.3 2.5zM318.9 7h3.3l-.3 1.2c.8-.7 1.9-1.4 3.2-1.4 2.1 0 3.4 1.3 3.4 3.4 0 .7-.2 1.5-.4 2.2l-1.7 6.3h-3.3l1.7-6.4c.1-.3.2-.8.2-1 0-.9-.6-1.4-1.6-1.4-1.3 0-2.2.9-2.5 2.3l-1.8 6.5h-3.3L318.9 7zM333.3 14c.1 1.4.9 2.3 2.7 2.3.9 0 1.6-.3 2.6-.9l1.5 2c-1 .9-2.5 1.5-4.5 1.5-3.4 0-5.4-2-5.4-5.2 0-3.4 2.7-7 6.9-7 3 0 4.8 2 4.8 4.5 0 .8-.2 1.8-.6 2.7h-8zm.3-2h5.1c.1-.2.1-.5.1-.8 0-1-.6-1.7-1.9-1.7-1.5 0-2.7 1-3.3 2.5zM343.9 7h3.4v7.1l4.1-7.1h2.9l.3 7.1 3.8-7.1h3.3l-6.8 11.7h-3l-.3-7.2-4.2 7.2h-3L343.9 7zM368.4 21.7l.6-1.3c.5.3 1 .4 1.8.4 1 0 1.6-.5 2.3-2.1L368 7.5h1.8l4.1 9.4 3.6-9.4h1.8l-4.7 11.6c-1 2.3-2 3.2-3.7 3.2-1 0-1.7-.2-2.5-.6zM380.6 13.1c0-3.2 2.5-5.9 5.9-5.9 3.4 0 5.9 2.7 5.9 5.8 0 3.2-2.5 5.9-5.9 5.9-3.5.1-5.9-2.6-5.9-5.8zm10 0c0-2.5-1.8-4.4-4.2-4.4-2.4 0-4.1 2-4.1 4.4 0 2.4 1.8 4.4 4.2 4.4 2.4 0 4.1-2 4.1-4.4zM395.1 14.4v-7h1.7V14c0 2.1 1.1 3.4 3.1 3.4 1.9 0 3.4-1.4 3.4-3.5V7.5h1.7v11.2h-1.7v-2c-.8 1.2-1.9 2.2-3.9 2.2-2.7.1-4.3-1.8-4.3-4.5zM408.7 7.5h1.7v2.9c.8-1.9 2.5-3.2 4.6-3.1v1.8h-.1c-2.5 0-4.5 1.8-4.5 5.2v4.5h-1.7V7.5zM424.1 7.5h1.7v2.3c.9-1.3 2.2-2.5 4.3-2.5 2.7 0 5.4 2.1 5.4 5.8 0 3.7-2.7 5.9-5.4 5.9-2.1 0-3.4-1.1-4.3-2.4v5.6h-1.7V7.5zm9.6 5.6c0-2.7-1.8-4.4-4-4.4-2.1 0-4.1 1.8-4.1 4.3 0 2.6 2 4.4 4.1 4.4 2.2 0 4-1.6 4-4.3zM438.3 14.4v-7h1.7V14c0 2.1 1.1 3.4 3.1 3.4 1.9 0 3.4-1.4 3.4-3.5V7.5h1.7v11.2h-1.7v-2c-.8 1.2-1.9 2.2-3.9 2.2-2.7.1-4.3-1.8-4.3-4.5zM451.9 7.5h1.7v2.9c.8-1.9 2.5-3.2 4.6-3.1v1.8h-.1c-2.5 0-4.5 1.8-4.5 5.2v4.5h-1.7V7.5zM460.7 7.5h1.7v2.3c.9-1.3 2.2-2.5 4.3-2.5 2.7 0 5.4 2.1 5.4 5.8 0 3.7-2.7 5.9-5.4 5.9-2.1 0-3.4-1.1-4.3-2.4v5.6h-1.7V7.5zm9.7 5.6c0-2.7-1.8-4.4-4-4.4-2.1 0-4.1 1.8-4.1 4.3 0 2.6 2 4.4 4.1 4.4 2.2 0 4-1.6 4-4.3zM474.5 13.1c0-3.2 2.5-5.9 5.9-5.9 3.4 0 5.9 2.7 5.9 5.8 0 3.2-2.5 5.9-5.9 5.9-3.4.1-5.9-2.6-5.9-5.8zm10 0c0-2.5-1.8-4.4-4.2-4.4-2.4 0-4.1 2-4.1 4.4 0 2.4 1.8 4.4 4.2 4.4 2.4 0 4.1-2 4.1-4.4zM488.3 17.3l.8-1.2c1.2.9 2.6 1.4 3.9 1.4 1.3 0 2.3-.7 2.3-1.8s-1.3-1.6-2.8-2c-1.8-.5-3.7-1.1-3.7-3.2 0-1.9 1.6-3.2 3.8-3.2 1.4 0 2.9.5 4 1.2l-.6 1.3c-1-.7-2.2-1.1-3.3-1.1-1.3 0-2.2.7-2.2 1.6 0 1.1 1.4 1.5 2.9 1.9 1.7.5 3.6 1.2 3.6 3.2 0 2.1-1.8 3.4-4 3.4-1.6.1-3.4-.5-4.7-1.5zM505.1 17.5c1.5 0 2.6-.6 3.5-1.6l1 .9c-1.1 1.3-2.5 2.1-4.6 2.1-3.1 0-5.6-2.4-5.6-5.9 0-3.3 2.3-5.9 5.4-5.9 3.3 0 5.2 2.7 5.2 6v.6h-8.9c.2 2.4 2 3.8 4 3.8zm3.2-5.1c-.2-2-1.4-3.8-3.6-3.8-1.9 0-3.4 1.6-3.7 3.8h7.3zM512.6 16.4h2v2.3h-2v-2.3zM291.2 28.2h5.5c2.3 0 3.8.5 4.8 1.5.8.8 1.2 1.8 1.2 3.1 0 1.5-.5 2.7-1.4 3.6-.8.8-2 1.5-3.5 1.8l2.6 5.2h-3.8l-2.4-4.9h-2.5l-1.3 4.9H287l4.2-15.2zm4.3 7.4c1.3 0 2.4-.3 3.1-1 .4-.4.6-.9.6-1.5 0-.5-.2-.9-.5-1.2-.4-.4-1.2-.6-2.2-.6h-2.8l-1.2 4.4h3zM306.6 38.8c.1 1.4.9 2.3 2.7 2.3.9 0 1.6-.3 2.6-.9l1.5 2c-1 .9-2.5 1.5-4.5 1.5-3.4 0-5.4-2-5.4-5.2 0-3.4 2.7-7 6.9-7 3 0 4.8 2 4.8 4.5 0 .8-.2 1.8-.6 2.7h-8zm.3-2.1h5.1c.1-.2.1-.5.1-.8 0-1-.6-1.7-1.9-1.7-1.5 0-2.7 1-3.3 2.5zM318.9 31.8h3.3l-.3 1.2c.8-.7 1.9-1.4 3.2-1.4 2.1 0 3.4 1.3 3.4 3.4 0 .7-.2 1.5-.4 2.2l-1.7 6.3h-3.3l1.7-6.4c.1-.3.2-.8.2-1 0-.9-.6-1.4-1.6-1.4-1.3 0-2.2.9-2.5 2.3l-1.8 6.5h-3.3l3.1-11.7zM333.3 38.8c.1 1.4.9 2.3 2.7 2.3.9 0 1.6-.3 2.6-.9l1.5 2c-1 .9-2.5 1.5-4.5 1.5-3.4 0-5.4-2-5.4-5.2 0-3.4 2.7-7 6.9-7 3 0 4.8 2 4.8 4.5 0 .8-.2 1.8-.6 2.7h-8zm.3-2.1h5.1c.1-.2.1-.5.1-.8 0-1-.6-1.7-1.9-1.7-1.5 0-2.7 1-3.3 2.5zM343.9 31.8h3.4v7.1l4.1-7.1h2.9l.3 7.1 3.8-7.1h3.3l-6.8 11.8h-3l-.3-7.2-4.2 7.2h-3l-.5-11.8zM368.4 46.4l.6-1.3c.5.3 1 .4 1.8.4 1 0 1.6-.5 2.3-2.1L368 32.2h1.8l4.1 9.4 3.6-9.4h1.8l-4.7 11.6c-1 2.3-2 3.2-3.7 3.2-1 0-1.7-.2-2.5-.6zM380.6 37.9c0-3.2 2.5-5.9 5.9-5.9 3.4 0 5.9 2.7 5.9 5.8 0 3.2-2.5 5.9-5.9 5.9-3.5 0-5.9-2.6-5.9-5.8zm10 0c0-2.5-1.8-4.4-4.2-4.4-2.4 0-4.1 2-4.1 4.4 0 2.4 1.8 4.4 4.2 4.4 2.4-.1 4.1-2.1 4.1-4.4zM395.1 39.2v-7h1.7v6.6c0 2.1 1.1 3.4 3.1 3.4 1.9 0 3.4-1.4 3.4-3.5v-6.4h1.7v11.2h-1.7v-2c-.8 1.2-1.9 2.2-3.9 2.2-2.7 0-4.3-1.8-4.3-4.5zM408.7 32.2h1.7v2.9c.8-1.9 2.5-3.2 4.6-3.1v1.8h-.1c-2.5 0-4.5 1.8-4.5 5.2v4.5h-1.7V32.2zM424.1 32.2h1.7v2.3c.9-1.3 2.2-2.5 4.3-2.5 2.7 0 5.4 2.1 5.4 5.8 0 3.7-2.7 5.9-5.4 5.9-2.1 0-3.4-1.1-4.3-2.4v5.6h-1.7V32.2zm9.6 5.7c0-2.7-1.8-4.4-4-4.4-2.1 0-4.1 1.8-4.1 4.3 0 2.6 2 4.4 4.1 4.4 2.2 0 4-1.6 4-4.3zM437.7 40.2c0-2.5 2-3.7 4.8-3.7 1.4 0 2.4.2 3.4.5v-.3c0-2-1.2-3-3.3-3-1.3 0-2.4.3-3.4.8l-.5-1.4c1.2-.6 2.4-1 4.1-1 1.6 0 2.8.4 3.6 1.2.8.8 1.2 1.9 1.2 3.3v6.9h-1.7v-1.7c-.8 1-2.1 1.9-4 1.9-2.1 0-4.2-1.2-4.2-3.5zm8.2-.9v-1c-.8-.2-1.9-.5-3.3-.5-2.1 0-3.3.9-3.3 2.3s1.3 2.2 2.8 2.2c2.2 0 3.8-1.2 3.8-3zM450.2 42l.8-1.2c1.2.9 2.6 1.4 3.9 1.4 1.3 0 2.3-.7 2.3-1.8s-1.3-1.6-2.8-2c-1.8-.5-3.7-1.1-3.7-3.2 0-1.9 1.6-3.2 3.8-3.2 1.4 0 2.9.5 4 1.2l-.8 1.3c-1-.7-2.2-1.1-3.3-1.1-1.3 0-2.2.7-2.2 1.6 0 1.1 1.4 1.5 2.9 1.9 1.7.5 3.6 1.2 3.6 3.2 0 2.1-1.8 3.4-4 3.4-1.5.2-3.2-.5-4.5-1.5zM460.8 42l.8-1.2c1.2.9 2.6 1.4 3.9 1.4 1.3 0 2.3-.7 2.3-1.8s-1.3-1.6-2.8-2c-1.8-.5-3.7-1.1-3.7-3.2 0-1.9 1.6-3.2 3.8-3.2 1.4 0 2.9.5 4 1.2l-.8 1.3c-1-.7-2.2-1.1-3.3-1.1-1.3 0-2.2.7-2.2 1.6 0 1.1 1.4 1.5 2.9 1.9 1.7.5 3.6 1.2 3.6 3.2 0 2.1-1.8 3.4-4 3.4-1.4.2-3.2-.5-4.5-1.5zM472.6 27.9h1.9v1.8h-1.9v-1.8zm.1 4.3h1.7v11.2h-1.7V32.2zM477.6 37.9c0-3.2 2.5-5.9 5.9-5.9 3.4 0 5.9 2.7 5.9 5.8 0 3.2-2.5 5.9-5.9 5.9-3.4 0-5.9-2.6-5.9-5.8zm10 0c0-2.5-1.8-4.4-4.2-4.4-2.4 0-4.1 2-4.1 4.4 0 2.4 1.8 4.4 4.2 4.4 2.4-.1 4.1-2.1 4.1-4.4zM492.4 32.2h1.7v2c.7-1.2 1.9-2.2 3.9-2.2 2.7 0 4.3 1.8 4.3 4.5v7h-1.7v-6.6c0-2.1-1.1-3.4-3.1-3.4-1.9 0-3.4 1.4-3.4 3.5v6.4h-1.7V32.2zM505.6 41.2h2v2.3h-2v-2.3z"/></g><path class="st3" d="M266.9 4h2v39.8h-2z"/></svg>