<svg version="1.1" xmlns="http://www.w3.org/2000/svg" preserveAspectRatio="xMidYMid meet" xmlns:xlink="http://www.w3.org/1999/xlink" viewBox="0 0 204.5 201.5">
<style type="text/css">
	.innerO{fill:#FFFFFF;}
</style>
<g class="aoaLogoVert">
	<g>
		<g id="o">
			<path class="innerO" d="M76.7,80.5c-3.2-2.3-6.3-5.2-8.7-8.2c-4.9-5.9-8.2-16.3-12.2-25.8C50.4,33.7,45,21,44,18.5l2.2-5.7L59.7,45
				c0,0,1.8-24.7,28.2-34.8c0,0,4-0.3,1.6,1.4c-2.7,1.9-10.7,2.9-18.1,13.9c-2.2,3.2-5.2,9.8-6.3,14.5c-1.7,7.3-1,17.5,4.2,27.1
				c4.9,9,13.9,14.8,17.9,16.7c7,3.3,0.5,2.4-1,1.7C85.8,85.4,81.1,83.7,76.7,80.5z"/>
			<path class="innerO" d="M127.8,80.5c3.2-2.3,6.3-5.2,8.7-8.2c4.9-5.9,8.2-16.3,12.2-25.8c5.4-12.8,10.9-25.5,11.8-28l-2.2-5.7
				L144.8,45c0,0-1.8-24.7-28.2-34.8c0,0-4-0.3-1.6,1.4c2.7,1.9,10.7,2.9,18.1,13.9c2.2,3.2,5.2,9.8,6.3,14.5
				c1.7,7.3,1,17.5-4.2,27.1c-4.9,9-13.9,14.8-17.9,16.7c-7,3.3-0.5,2.4,1,1.7C118.8,85.4,123.4,83.7,127.8,80.5z"/>
		</g>
		<g id="logoVert">
			<g>
				<path d="M110.5,71.3L110.5,71.3L110.5,71.3z"/>
				<path d="M108.4,89.6L108.4,89.6L108.4,89.6z"/>
				<path d="M110.2,89.6c1.2-0.1,0.3,0,1.4-0.2c2.1-0.4,4.2-0.9,6.2-1.5c1.2-0.4,2.3-0.8,3.4-1.2c3.5-1.4,6.9-3.3,9.8-5.5
					c2.3-1.7,4.3-3.6,6.2-5.8c1.3-1.5,2.5-3.1,3.6-4.7c1.3-2,2.5-4.2,3.4-6.4c0.6,0,32.6,0,33.3,0c0.2,0.4,0.5,1.3,0.5,1.3
					c2.3,5.9,5.8,14.8,6.9,20.4c-2.3,0.4-11.2,1.8-11.7,1.8l-0.4,0.1v2.3h28.5V88l-0.4-0.1c-0.8-0.2-7.2-1.6-8.5-1.9
					c-2.3-4-4.7-9-6.6-13.8L160.1,6.9h-5.4c0,0-9.7,23.3-10.6,25.3c-6.9-15.9-22.6-25.8-41.3-25.8h-0.3h-0.1h-0.1H102
					c-18.7,0-34.4,9.9-41.3,25.8C59.7,30.2,50,6.9,50,6.9h-5.4L18.9,72.2C17,77,14.6,82,12.3,86c-1.3,0.3-7.7,1.7-8.5,1.9L3.4,88v2.2
					h28.5v-2.3l-0.4-0.1c-0.4-0.1-9.3-1.5-11.6-1.8c1.1-5.6,4.6-14.5,6.9-20.4c0,0,0.3-0.9,0.5-1.3c0.7,0,32.7,0,33.3,0
					c1,2.2,2.1,4.4,3.4,6.4c1.1,1.7,2.3,3.2,3.6,4.7c1.8,2.1,3.9,4.1,6.2,5.8c3,2.3,6.3,4.1,9.8,5.5c1.1,0.4,2.2,0.8,3.4,1.2
					c2,0.6,4.1,1.1,6.2,1.5c1,0.2,2.1,0.3,3.3,0.5L97,90c0,0,2.4,0.4,6.6,0.2l-3-4.5l-0.6-0.1c-10.5-0.9-19.7-7.2-24.6-16.8
					c-0.7-1.4-1.3-2.8-1.9-4.3c-1.7-4.8-2.6-10.3-2.6-16.2C70.8,37.2,74,27.7,80,21c5.6-6.3,13.3-9.8,21.7-9.9h0.2c0,0,0.3,0,0.4,0
					s0.4,0,0.4,0h0.2c8.4,0.1,16.1,3.7,21.7,9.9c6,6.8,9.2,16.2,9.2,27.2c0,5.9-0.9,11.4-2.6,16.2c-0.5,1.5-1.1,2.9-1.9,4.3
					c-4.9,9.5-13.8,15.7-24,16.8C105.4,85.5,108.8,86.3,110.2,89.6z M44,59.9c-4.6,0-9.8-0.1-14.8-0.7c0.3-0.9,1.3-3.2,1.3-3.2
					c3.2-8.1,8.9-23,13.1-31.4c0.6,1.5,14.2,33.5,14.7,34.7C53.2,59.9,48.2,59.9,44,59.9z M88.8,11.6L88.8,11.6
					c-5,1.9-9.6,4.8-13.4,8.6c-6.1,6.1-10,14.1-11.1,23.1c-0.3,2-0.4,3.8-0.4,5.5c0,12.6,6.5,24.8,16.9,32c2.7,1.8,5.6,3.3,8.6,4.4
					c0.2,0.1,0.4,0.3,0.4,0.6c-0.1,0.3-0.6,0.2-1,0.1c-0.3-0.1-0.5-0.2-0.8-0.3l0,0l0,0c-1.9-0.6-3.7-1.4-5.5-2.3
					c-3.7-1.9-7-4.3-10-7.1c-4.1-3.9-7.4-8.7-9.5-13.8l-5-12c0,0-13.3-31.8-13.3-31.9s1.4-3.5,1.6-4.2c0.3,0.8,11.8,28.3,11.8,28.3
					l1.8,4.4l0.3-0.1c0.1-3.3,0.7-6.6,1.8-9.8c2.5-7.8,7.6-14.8,14.3-20c3.9-3,8.1-5.1,12.6-6.5c0.4-0.1,0.9-0.1,0.9,0.1
					C89.9,11.2,88.8,11.6,88.8,11.6z M141.7,62.4c-2.1,5.1-5.4,9.8-9.5,13.8c-3,2.9-6.3,5.3-10,7.1c-2.1,1-4.2,1.9-6.4,2.6
					c-0.4,0.1-0.9,0.1-1-0.1s0.2-0.4,0.4-0.6c3.1-1.1,5.9-2.6,8.6-4.4c10.4-7.1,16.9-19.4,16.9-32c0-1.7-0.1-3.4-0.4-5.5
					c-1.1-9-5-17-11.1-23.1c-3.8-3.8-8.4-6.7-13.4-8.6h0.1c0,0-1.1-0.3-1-0.8c0.1-0.2,0.5-0.2,0.9-0.1c4.5,1.4,8.7,3.6,12.6,6.5
					c6.7,5.1,11.8,12.2,14.3,20c1,3.2,1.6,6.5,1.8,9.8l0.3,0.1l1.8-4.4c0,0,11.5-27.6,11.8-28.3c0.2,0.6,1.6,4.1,1.6,4.2
					c-0.1,0.1-13.3,31.9-13.3,31.9L141.7,62.4z M160.7,59.9c-4.2,0-9.2-0.1-14.2-0.6c0.5-1.2,14.1-33.2,14.7-34.7
					c4.2,8.5,10,23.3,13.1,31.4c0,0,0.8,2.1,1.3,3.2C170.5,59.8,165.2,59.9,160.7,59.9z"/>
			</g>
			<g>
				<path d="M84.8,30c3.2,0,5.7,1.9,5.7,5.2c0,4.7-3.5,5.8-6.5,5.8h-5.7v-0.6c0.8,0,1.3-0.2,1.4-0.4s0.1-0.4,0.1-0.7v-7.6
					c0-0.3,0-0.5-0.1-0.7s-0.6-0.4-1.4-0.4V30H84.8z M83,38.7c0,1.4,0,1.3,0.7,1.3c1.8,0,3.5-0.9,3.5-4.8c0-3-1.3-4.2-4-4.2H83V38.7z
					"/>
				<path d="M115.6,35.1c0-2.9,2.5-5.6,6.1-5.6c2.9,0,5.6,2.2,5.6,5.5c0,4.1-3.5,5.9-6.1,5.9C119.3,40.9,115.6,39.7,115.6,35.1z
					 M123.9,35.3c0-3.5-1.4-4.8-2.7-4.8c-1.1,0-2.1,0.7-2.1,4.1c0,3.6,1.1,5.2,2.5,5.2C122.5,39.9,123.9,39.6,123.9,35.3z"/>
				<path d="M107.6,95.8c0.2-0.4,0.5-1.4,0.5-2.7c0-0.8-0.1-1.5-0.4-2.2l0,0c-0.6-1.7-2.1-3.1-4.2-4l-1.2-0.4
					c-0.4-0.1-0.8-0.3-1.2-0.5c-1.3-0.8-2.2-2.1-2.2-3.5v-0.8c0-1.1,0.3-4.2,0.8-5.3c-0.1-0.1-0.2-0.2-0.4-0.2
					c-0.4,0-1.3,0.2-2.7,2.5c-0.8,1.3-2.5,4.7-1.4,7.8c0.7,2,2.6,3.5,5.4,4.4c0,0,1.3,0.5,1.4,0.5l1.7,0.7c2.8,1.4,3.1,3.5,3.1,3.5
					S107.1,96.3,107.6,95.8z"/>
				<path d="M109.9,72.7L109.9,72.7c-0.6-1.9-2.5-3.3-5.6-4.2l-1.8-0.5c-1-0.2-1.8-0.5-2.4-0.7c-1.5-0.7-2.2-1.7-2.3-3.2v-0.5
					c0-2,0.7-4.9,0.9-5.7c-0.1-0.2-0.2-0.3-0.2-0.3c-0.6-0.1-2,1-3.1,2.6c-1.4,2-2.5,5.1-1.4,7.8c0.9,2.2,3.1,3.7,6.6,4.4h0.1
					c0,0,0.1,0,0.2,0c0.2,2.7,0.8,11.1,0.8,11.3l0.1,0.1c0.2,0.1,0.3,0.2,0.5,0.3l0.4,0.2l0.3,0.1c0,0,0.3,0.1,0.5,0.2
					c0-0.6,0.5-8.7,0.6-11c0.1,0.1,0.2,0.1,0.3,0.2c1.4,0.8,2.1,1.7,2.1,2.8c0,0.1,0,0.2,0,0.4c-0.2,1.6-1,5.1-1.2,6
					c0,0.1,0.1,0.2,0.1,0.2c0.4,0,1.8-2,2.5-2.9c1.6-2.2,2.4-4.3,2.4-6C110.1,73.6,110.1,73.1,109.9,72.7z"/>
				<path d="M111,53.3c-0.8-2-2.8-3.4-6-4.2c-0.8-0.2-1.6-0.3-2.5-0.4c-1.4-0.3-2.6-0.6-3.5-0.9c-1.6-0.7-2.4-1.6-2.4-2.9v-0.5
					c0-1.5,0.6-4.7,0.9-5.7c-0.1-0.2-0.2-0.3-0.2-0.3c-0.6-0.1-2,1-3.1,2.6c-0.8,1.2-1.9,3.3-1.9,5.4c0,0.7,0.1,1.3,0.4,2
					c0.8,2.2,3.2,3.8,7,4.8c0,0,0,0,0.1,0c0.2,2.5,0.7,10.5,0.7,10.7c0.3,0.2,0.7,0.3,1.1,0.5l0.7,0.2c0.1,0,0.1,0,0.2,0l0.6,0.1
					c0,0,0.6,0.1,0.9,0.2c0-0.5,0.4-8.3,0.5-10.7c0.1,0.1,0.3,0.1,0.4,0.2c1.5,0.6,2.2,1.6,2.3,3c0,0.1,0,0.2,0,0.3
					c0,1.9-0.8,5-1.3,5.9c0.1,0.2,0.1,0.3,0.2,0.3c0.4,0.1,1.8-0.8,3-2.6c0.7-1,2.2-3.5,2.2-6.1C111.3,54.6,111.2,53.9,111,53.3z"/>
				<path d="M119.9,25.2c-0.6-1.8-1.5-3.7-2.5-5.1s-2-2.3-3.1-2.9c-1.2-0.6-3.2-1.1-5.4-1.2h-0.2h-0.1l-0.1-0.1
					c-2.7-2.5-7.3-3.6-11.4-2.7c-4.9,1.1-7.7,4.7-7.7,9.8v0.2c0.1,6.8,4.6,8.8,9,9.8h0.1c0.2,2.6,0.7,11,0.8,11.2
					c0.6,0.3,1.2,0.5,1.6,0.6l1,0.3l0.7,0.1c0.7,0.1,1.5,0.2,2.1,0.4c0-0.5,0.3-8.7,0.3-11.1c0.2,0.1,0.3,0.1,0.5,0.2
					c1.5,0.6,2.2,1.5,2.3,2.8c0,0.1,0,0.2,0,0.3c0,2.1-0.9,5.1-1.3,5.9c0.1,0.2,0.1,0.2,0.2,0.3c0.6,0.1,2-1,3.1-2.6
					c1-1.5,2.6-4.5,1.6-7.3c-0.7-2-2.7-3.6-6-4.6c-1-0.3-2.2-0.6-3.5-0.8c-1.7-0.3-3.2-0.8-4.3-1.5c-1.8-1.1-2.7-2.5-2.7-4.4
					c0-1.7,0.8-3.2,2.2-4.1c0.2-0.1,0.3-0.2,0.5-0.3c0.1,1.4,0.4,5.2,0.5,5.4c0.7,0.4,1.4,0.7,2.1,1l1.4,0.4c0.1,0,0.2,0.1,0.4,0.1
					c1,0.2,2.3,0.4,3.4,0.7c0-0.6,0.3-4.9,0.3-5c0-0.2,0-0.5-0.1-0.8c0-0.1-0.1-0.2-0.2-0.3l0.1,0.1c0,0,0.7,0.9,0.8,0.9
					c0.5,0.6,0.8,1.2,1.1,1.8c0.3,0.4,0.5,0.8,0.7,1.1c2.6,2.5,6.6,2.3,11.2,1.8C119.7,25.7,119.9,25.4,119.9,25.2
					C119.9,25.3,119.9,25.2,119.9,25.2z"/>
				<path d="M101.6,10.9c2,0,2.7,0,4.6,0.3l0.3-6.2c0-2.3-2.8-2.8-4.4-2.9c-2-0.1-3.3,0.3-4.1,1.2c-0.4,0.5-0.6,1.2-0.6,2.1
					c0,0,0.2,5.4,0.3,6C99.1,11.1,101.6,10.9,101.6,10.9z"/>
			</g>
			<rect x="1.2" y="104.6" width="202" height="2.7"/>
			<path d="M10.9,122.6h1.6l5.8,14.7h-1.5l-1.6-3.9H7.9l-1.6,3.9H4.9L10.9,122.6z M11.6,124l-3.1,8h6.4L11.6,124z"/>
			<path d="M33.7,122.6H36l5.4,12.9l5.4-12.9h2.1v14.7h-1.4V124l0,0L42,137.2h-1.2L35.2,124l0,0v13.2h-1.5V122.6z"/>
			<path d="M65.7,122.6h7.2v1.3h-5.7v5.2h5.4v1.3h-5.4v5.6h6v1.3h-7.4L65.7,122.6L65.7,122.6z"/>
			<path d="M89.5,122.6h3.8c2.6,0,4.3,1.1,4.3,3.8c0,1.9-1.4,3.1-3.3,3.4l0,0c1.2,0.1,1.4,0.8,1.9,1.8l2.5,5.7h-1.6l-2.1-5
				c-0.8-1.9-1.5-2-2.9-2h-1.2v6.9h-1.4C89.5,137.2,89.5,122.6,89.5,122.6z M90.9,129.1h1.5c1.7,0,3.7-0.6,3.7-2.7
				c0-2.4-1.7-2.5-3.7-2.5h-1.5V129.1z"/>
			<path d="M114.2,122.6h1.4v14.7h-1.4V122.6z"/>
			<path d="M142.3,124.2c-0.9-0.5-2.2-0.6-3.3-0.6c-3.8,0-5.9,2.7-5.9,6.3c0,3.7,2.1,6.3,5.9,6.3c1,0,2.4-0.1,3.3-0.6l0.1,1.3
				c-0.8,0.5-2.4,0.6-3.4,0.6c-4.6,0-7.4-3-7.4-7.6c0-4.5,2.9-7.6,7.4-7.6c0.9,0,2.6,0.1,3.4,0.5L142.3,124.2z"/>
			<path d="M164,122.6h1.6l5.8,14.7H170l-1.6-3.9H161l-1.6,3.9H158L164,122.6z M164.7,124l-3.2,8.1h6.4L164.7,124z"/>
			<path d="M186.6,122.6h1.8l7.5,12.9l0,0v-12.9h1.5v14.7h-2l-7.3-12.6l0,0v12.6h-1.4v-14.7H186.6z"/>
			<path d="M10.9,185.6h1.6l5.8,14.7h-1.5l-1.6-3.9H7.9l-1.6,3.9H4.9L10.9,185.6z M11.6,186.9L8.5,195h6.4L11.6,186.9z"/>
			<path d="M27,198.3c0.9,0.5,1.9,0.9,3.2,0.9c1.8,0,3.3-0.9,3.3-3c0-2.9-6.7-3.2-6.7-7.1c0-2.4,2.1-3.8,4.6-3.8
				c0.7,0,1.9,0.1,2.9,0.5l-0.2,1.3c-0.6-0.4-1.7-0.5-2.7-0.5c-1.5,0-3.2,0.6-3.2,2.5c0,2.9,6.7,3,6.7,7.2c0,3-2.5,4.1-4.8,4.1
				c-1.4,0-2.5-0.3-3.3-0.6L27,198.3z"/>
			<path d="M44.4,198.3c0.9,0.5,1.9,0.9,3.2,0.9c1.8,0,3.3-0.9,3.3-3c0-2.9-6.7-3.2-6.7-7.1c0-2.4,2.1-3.8,4.6-3.8
				c0.7,0,1.9,0.1,2.9,0.5l-0.2,1.3c-0.7-0.4-1.7-0.5-2.7-0.5c-1.5,0-3.2,0.6-3.2,2.5c0,2.9,6.7,3,6.7,7.2c0,3-2.5,4.1-4.8,4.1
				c-1.4,0-2.5-0.3-3.3-0.6L44.4,198.3z"/>
			<path d="M67.9,185.3c4.4,0,6.5,3.6,6.4,7.6c0,4.5-2.2,7.6-6.4,7.6s-6.4-3.1-6.4-7.6C61.5,188.9,63.5,185.3,67.9,185.3z M63,192.9
				c0,3.1,1.6,6.3,5,6.3s5-3.2,5-6.3s-1.6-6.3-5-6.3C64.5,186.6,63,189.8,63,192.9z"/>
			<path d="M94.3,187.2c-0.9-0.5-2.2-0.6-3.3-0.6c-3.8,0-5.9,2.7-5.9,6.3c0,3.7,2.1,6.3,5.9,6.3c1,0,2.4-0.1,3.3-0.6l0.1,1.3
				c-0.8,0.5-2.4,0.6-3.4,0.6c-4.6,0-7.4-3-7.4-7.6c0-4.4,2.9-7.6,7.4-7.6c0.9,0,2.6,0.1,3.4,0.5L94.3,187.2z"/>
			<path d="M105,185.6h1.4v14.7H105V185.6z"/>
			<path d="M121.2,185.6h1.6l5.8,14.7h-1.5l-1.6-3.9h-7.4l-1.6,3.9h-1.4L121.2,185.6z M121.9,186.9l-3.2,8.1h6.4L121.9,186.9z"/>
			<path d="M138.9,186.8h-4.3v-1.3h10.1v1.3h-4.3v13.4H139v-13.4H138.9z"/>
			<path d="M153.4,185.6h1.4v14.7h-1.4V185.6z"/>
			<path d="M170.9,185.3c4.4,0,6.5,3.6,6.4,7.6c0,4.5-2.2,7.6-6.4,7.6s-6.4-3.1-6.4-7.6C164.5,188.9,166.5,185.3,170.9,185.3z
				 M165.9,192.9c0,3.1,1.6,6.3,5,6.3s5-3.2,5-6.3s-1.6-6.3-5-6.3C167.5,186.6,165.9,189.8,165.9,192.9z"/>
			<path d="M187,185.6h1.8l7.5,12.9l0,0v-12.9h1.4v14.7h-2l-7.3-12.6l0,0v12.6H187V185.6z"/>
			<path d="M11.3,153.8c4.6,0,7.2,3.1,7.2,7.5s-2.5,7.6-7.2,7.6s-7.2-3.1-7.2-7.6C4.1,156.9,6.7,153.8,11.3,153.8z M11.3,166.7
				c3,0,4.1-2.7,4.1-5.3s-1.2-5.2-4.1-5.2s-4.1,2.6-4.1,5.2C7.2,164,8.3,166.7,11.3,166.7z"/>
			<path d="M35,156.8c-0.9-0.4-1.9-0.6-3-0.6c-1,0-2.3,0.4-2.3,2c0,2.5,6.4,1.5,6.4,6.4c0,3.2-2.5,4.4-5.5,4.4
				c-1.6,0-2.3-0.2-3.8-0.6l0.3-2.6c1,0.5,2.2,0.9,3.3,0.9c1.1,0,2.6-0.6,2.6-1.9c0-2.8-6.4-1.6-6.4-6.5c0-3.3,2.5-4.5,5.1-4.5
				c1.3,0,2.4,0.2,3.5,0.5L35,156.8z"/>
			<path d="M47.3,156.4h-4.2v-2.3h11.3v2.3h-4.2v12.3h-2.9C47.3,168.7,47.3,156.4,47.3,156.4z"/>
			<path d="M62.2,154.1h8.6v2.3h-5.7v3.6h5.2v2.3h-5.2v4.1h5.8v2.3h-8.7C62.2,168.7,62.2,154.1,62.2,154.1z"/>
			<path d="M86.3,153.8c4.6,0,7.2,3.1,7.2,7.5s-2.5,7.6-7.2,7.6s-7.2-3.1-7.2-7.6C79.1,156.9,81.6,153.8,86.3,153.8z M86.3,166.7
				c3,0,4.1-2.7,4.1-5.3s-1.2-5.2-4.1-5.2s-4.1,2.6-4.1,5.2C82.1,164,83.3,166.7,86.3,166.7z"/>
			<path d="M101.8,154.1h3.7c3.2,0,6.1,0.9,6.1,4.4c0,3.4-2.5,4.7-5.6,4.7h-1.2v5.6h-2.9L101.8,154.1L101.8,154.1z M104.7,160.8h1
				c1.5,0,2.8-0.5,2.8-2.2s-1.3-2.3-2.8-2.3h-1V160.8z"/>
			<path d="M122.2,154.1h3.3l5.8,14.7H128l-1.3-3.4h-5.9l-1.3,3.4h-3L122.2,154.1z M123.9,157L123.9,157l-2.2,6h4.3L123.9,157z"/>
			<path d="M140.1,156.4h-4.2v-2.3h11.3v2.3H143v12.3h-2.9V156.4z"/>
			<path d="M155,154.1h2.9v5.9h5.9v-5.9h2.9v14.7h-2.9v-6.4h-5.9v6.4H155V154.1z"/>
			<path d="M175.8,154.1h2.9v14.7h-2.9V154.1z"/>
			<path d="M198.5,168.5c-1.1,0.3-2.2,0.5-3.3,0.5c-4.7,0-8-2.4-8-7.3c0-5,3.1-7.8,8-7.8c1,0,2.2,0.2,3.3,0.6l-0.2,2.5
				c-1.1-0.6-2.1-0.8-3.2-0.8c-3,0-4.9,2.3-4.9,5.3s1.8,5.2,5,5.2c1.2,0,2.5-0.3,3.2-0.6L198.5,168.5z"/>
			<path d="M172,14.8c-2.4,0-4.3-1.9-4.3-4.3s1.9-4.3,4.3-4.3c2.4,0,4.3,1.9,4.3,4.3S174.3,14.8,172,14.8z M172,7
				c-1.9,0-3.5,1.6-3.5,3.5s1.6,3.5,3.5,3.5s3.5-1.6,3.5-3.5C175.4,8.6,173.9,7,172,7z M174.1,12.8h-1l-0.9-1.7H171v1.6h-0.9V8h2.3
				c1,0,1.6,0.6,1.6,1.6c0,0.7-0.4,1.2-1,1.4L174.1,12.8z M172.5,10.3c0.4,0,0.7-0.2,0.7-0.7s-0.3-0.7-0.7-0.7h-1.4v1.5
				C171.6,10.3,172.5,10.3,172.5,10.3z"/>
		</g>
	</g>
</g>
</svg>
