<svg version="1.1" xmlns="http://www.w3.org/2000/svg" preserveAspectRatio="xMidYMid meet" xmlns:xlink="http://www.w3.org/1999/xlink" viewBox="0 0 114 32">
  <g class="aoa-logo">
    <path d="M81.793 20.747c-0.211-0.070-1.829-0.422-2.11-0.422-0.563-0.985-1.196-2.11-1.618-3.235l-6.33-15.754h-1.336c0 0-2.321 5.556-2.532 6.048-1.688-3.868-5.486-6.259-9.987-6.259h-0.141c-4.501 0-8.299 2.462-9.987 6.33-0.211-0.492-2.532-6.048-2.532-6.048h-1.336l-6.189 15.754c-0.492 1.125-1.055 2.321-1.618 3.305-0.281 0.070-1.688 0.422-1.899 0.422h0.070v0.211h6.33v-0.211c-0.070 0-2.251-0.352-2.743-0.422 0.281-1.336 1.125-3.376 1.688-4.782 0 0 0.070-0.141 0.141-0.141h8.088c0.211 0 0.492 0.914 0.844 1.407 0.281 0.422 0.563 0.703 0.844 1.055 0.422 0.492 0.985 0.914 1.477 1.336 0.703 0.563 1.547 0.985 2.391 1.336 0.281 0.070 0.563 0.211 0.844 0.281 0.492 0.141 0.985 0.281 1.477 0.352 0.281 0.070 0.492 0.070 0.774 0.141h0.141c0 0 0.563 0.070 1.618 0.070l-0.703-1.125h-0.141c-2.532-0.211-4.782-1.758-5.978-4.079-0.141-0.352-0.352-0.703-0.422-1.055-0.422-1.196-0.633-2.462-0.633-3.938 0-2.673 0.774-4.923 2.251-6.611 1.336-1.547 3.235-2.391 5.275-2.391h0.281c2.040 0.070 3.868 0.914 5.275 2.391 1.477 1.618 2.251 3.938 2.251 6.611 0 1.407-0.211 2.743-0.633 3.938l-0.422 1.055c-1.196 2.321-3.306 3.798-5.767 4.079 0 0 0.774 0.211 1.125 0.985 0.281 0 0.070 0 0.352-0.070 0.492-0.070 0.985-0.211 1.477-0.352 0.281-0.070 0.563-0.211 0.844-0.281 0.844-0.352 1.688-0.774 2.391-1.336 0.563-0.422 1.055-0.914 1.477-1.407 0.281-0.352 0.633-0.563 0.844-0.985 0.352-0.492 0.633-1.407 0.844-1.407h8.088c0.070 0 0.141 0.141 0.141 0.141 0.563 1.407 1.407 3.516 1.688 4.853-0.563 0.070-2.673 0.352-2.743 0.422v0.211h7.033v-0.211l-0.563-0.211zM43.675 13.996c-1.125 0-2.391 0-3.587-0.141 0.070-0.211 0.281-0.774 0.281-0.774 0.774-1.969 2.18-5.556 3.165-7.596 0.141 0.352 3.446 8.088 3.587 8.369-1.266 0.141-2.462 0.141-3.446 0.141zM54.505 2.321l0.070-0.281h-0.070c-1.196 0.703-2.321 1.266-3.306 2.251-1.477 1.477-2.391 3.516-2.673 5.697-0.070 0.492-0.070 0.985-0.070 1.336 0 3.024 1.547 6.048 4.079 7.736 0.633 0.422 1.336 0.844 2.11 1.055 0.070 0 0.070 0.070 0.070 0.141s-0.070 0.070-0.070 0.070h-0.141c-0.070 0-0.141-0.070-0.211-0.070h-0.070c-0.281-0.141-0.844-0.352-1.266-0.563-0.914-0.422-1.688-1.055-2.391-1.758-0.985-0.985-1.758-2.11-2.251-3.306l-1.196-2.884c0 0-3.235-7.666-3.235-7.736 0 0 0.352-0.844 0.422-0.985 0.070 0.211 2.884 6.822 2.884 6.822l0.422 1.055h0.070c0-0.774 0.211-1.618 0.422-2.391 0.633-1.899 1.829-3.587 3.446-4.853 0.914-0.703 1.969-1.266 3.024-1.547h0.141c0.070 0 0.070 0 0.070 0.070s-0.281 0.141-0.281 0.141zM67.305 14.558c-0.492 1.196-1.266 2.391-2.321 3.306-0.703 0.703-1.547 1.266-2.391 1.758-0.492 0.281-0.985 0.492-1.547 0.633h-0.211c0-0.070 0.070-0.141 0.070-0.141 0.774-0.281 1.407-0.633 2.11-1.055 2.532-1.758 4.079-4.712 4.079-7.736 0-0.422 0-0.844-0.070-1.336-0.281-2.18-1.196-4.149-2.673-5.626-0.914-0.914-2.040-1.618-3.235-2.11 0 0-0.281-0.070-0.211-0.211 0-0.070 0.141-0.070 0.211 0 1.055 0.352 2.11 0.844 3.024 1.547 1.618 1.266 2.884 2.954 3.446 4.853 0.281 0.774 0.422 1.547 0.422 2.391h0.070l0.422-1.055c0 0 2.813-6.681 2.884-6.822 0.070 0.141 0.352 0.985 0.422 0.985l-3.235 7.736c0 0-1.266 2.884-1.266 2.884zM71.877 13.996c-1.055 0-2.251 0-3.446-0.141 0.141-0.281 3.376-8.018 3.587-8.369 0.985 2.040 2.391 5.626 3.165 7.596 0 0 0.211 0.492 0.281 0.774-1.196 0.141-2.462 0.141-3.587 0.141z"></path>
    <path d="M47.473 10.831l-0.422-1.196c0 0-2.813-6.259-2.884-6.963 0.070 0.703 2.884 6.963 2.884 6.963l0.422 1.196zM54.224 20.185c0.070 0 0.141 0.070 0.211 0.070v0c0 0-0.141 0-0.211-0.070zM47.543 10.831c0-0.774 0.211-1.618 0.422-2.391 0.633-1.899 1.829-3.587 3.446-4.853 0.914-0.703 1.969-1.266 3.024-1.547-1.055 0.352-2.11 0.844-3.024 1.547-1.618 1.266-2.884 2.954-3.446 4.853-0.211 0.774-0.352 1.618-0.422 2.391v0 0z"></path>
    <path d="M48.246 14.558l-1.196-2.884c0 0-3.235-7.666-3.235-7.736 0 0 0.352-0.844 0.422-0.985-0.070 0.141-0.352 0.985-0.422 0.985l3.235 7.736 1.196 2.884c0.492 1.196 1.266 2.391 2.251 3.305 0.703 0.703 1.477 1.266 2.391 1.758-0.914-0.422-1.618-1.055-2.391-1.758-0.985-0.914-1.758-2.040-2.251-3.306zM54.646 2.040c0.070 0 0.070 0 0 0 0.070 0.211-0.141 0.281-0.141 0.281s0.281-0.070 0.141-0.281c0.070 0 0.070 0 0 0z"></path>
    <path d="M48.527 9.987c-0.070 0.492-0.070 0.914-0.070 1.336 0 3.024 1.547 6.048 4.079 7.736 0.633 0.422 1.336 0.774 2.11 1.055 0.070 0 0.070 0.070 0.070 0.141l-0.070 0.070c0.070 0 0.070 0 0.070-0.070s-0.070-0.070-0.070-0.141c-0.774-0.281-1.407-0.633-2.11-1.055-2.532-1.758-4.079-4.712-4.079-7.736 0-0.422 0.070-0.844 0.070-1.336 0.281-2.18 1.196-4.149 2.673-5.626 0.914-0.914 2.040-1.618 3.235-2.11-1.196 0.492-2.321 1.196-3.235 2.11-1.477 1.477-2.391 3.446-2.673 5.626z"></path>
    <path d="M53.521 6.752c0.774 0 1.407 0.492 1.407 1.266 0 1.125-0.844 1.407-1.618 1.407h-1.407v-0.141c0.211 0 0.281-0.070 0.352-0.070v-2.11c0-0.070-0.141-0.070-0.352-0.070v-0.281h1.618zM53.099 8.862c0 0.352 0 0.281 0.141 0.281 0.422 0 0.844-0.211 0.844-1.196 0-0.703-0.352-0.985-0.985-0.985h-0.070v1.899h0.070zM60.976 8.018c0-0.703 0.633-1.336 1.477-1.336 0.703 0 1.336 0.563 1.336 1.336 0 0.985-0.844 1.407-1.477 1.407-0.422 0-1.336-0.281-1.336-1.407zM62.945 8.018c0-0.844-0.352-1.196-0.633-1.196s-0.492 0.141-0.492 0.985 0.281 1.266 0.633 1.266c0.211 0.070 0.492 0 0.492-1.055z"></path>
    <path d="M59.077 22.646c0.070-0.070 0.141-0.352 0.141-0.633 0-0.211 0-0.352-0.070-0.563-0.141-0.422-0.492-0.774-1.055-0.985l-0.281-0.070c-0.070 0-0.211-0.070-0.281-0.141-0.352-0.211-0.492-0.492-0.563-0.844v-0.211c0-0.281 0.070-1.055 0.211-1.266l-0.070-0.070c-0.070 0-0.352 0.070-0.633 0.633-0.211 0.352-0.633 1.125-0.352 1.899 0.211 0.492 0.633 0.844 1.266 1.055l0.352 0.141 0.422 0.141c0.703 0.352 0.774 0.844 0.774 0.844s0 0.211 0.141 0.070z"></path>
    <path d="M59.569 17.090c-0.141-0.422-0.633-0.774-1.336-0.985l-0.422-0.141c-0.211-0.070-0.422-0.141-0.563-0.211-0.352-0.141-0.563-0.422-0.563-0.774v-0.141c0-0.492 0.141-1.196 0.211-1.407 0-0.070-0.070-0.070-0.070-0.070-0.141 0-0.492 0.211-0.774 0.633-0.352 0.492-0.563 1.266-0.352 1.899 0.211 0.563 0.774 0.914 1.618 1.055h0.070c0.070 0.633 0.211 2.673 0.211 2.743 0.070 0 0.070 0.070 0.141 0.070l0.070 0.070h0.070c0 0 0.070 0 0.141 0.070 0-0.141 0.141-2.11 0.141-2.673 0 0 0.070 0 0.070 0.070 0.352 0.211 0.492 0.422 0.492 0.703v0.070c-0.070 0.422-0.211 1.266-0.281 1.477v0.070c0.070 0 0.422-0.492 0.563-0.703 0.422-0.563 0.563-1.055 0.563-1.477 0.070-0.141 0.070-0.211 0-0.352z"></path>
    <path d="M59.851 12.378c-0.211-0.492-0.703-0.844-1.477-0.985-0.211-0.070-0.352-0.070-0.563-0.141-0.352-0.070-0.633-0.141-0.844-0.211-0.352-0.141-0.563-0.352-0.563-0.703v-0.141c0-0.352 0.141-1.125 0.211-1.407 0-0.070-0.070-0.070-0.070-0.070-0.141 0-0.492 0.211-0.774 0.633-0.211 0.281-0.492 0.774-0.492 1.336 0 0.141 0 0.352 0.070 0.492 0.211 0.563 0.774 0.914 1.688 1.125 0.070 0.633 0.141 2.532 0.211 2.602s0.141 0.070 0.281 0.141l0.141 0.070h0.211c0 0 0.141 0 0.211 0.070 0-0.141 0.070-2.040 0.141-2.602 0 0 0.070 0 0.070 0.070 0.352 0.141 0.563 0.352 0.563 0.703v0.070c0 0.492-0.211 1.196-0.281 1.407 0 0.070 0.070 0.070 0.070 0.070 0.141 0 0.422-0.211 0.703-0.633 0.141-0.211 0.563-0.844 0.563-1.477 0-0.070 0-0.281-0.070-0.422v0z"></path>
    <path d="M62.031 5.626c-0.141-0.422-0.352-0.914-0.633-1.266-0.211-0.352-0.492-0.563-0.774-0.703s-0.774-0.281-1.266-0.281h-0.070c-0.633-0.563-1.758-0.844-2.743-0.633-1.196 0.281-1.899 1.125-1.899 2.391v0.070c0 1.618 1.125 2.11 2.18 2.391 0.070 0.633 0.211 2.673 0.211 2.743 0.141 0.070 0.281 0.141 0.422 0.141l0.281 0.070h0.141c0.141 0 0.352 0.070 0.492 0.070 0-0.141 0.070-2.11 0.070-2.673 0.070 0 0.070 0 0.141 0.070 0.352 0.141 0.563 0.352 0.563 0.703v0.070c0 0.492-0.211 1.196-0.281 1.407 0 0.070 0.070 0.070 0.070 0.070 0.141 0 0.492-0.211 0.774-0.633 0.281-0.352 0.633-1.125 0.422-1.758-0.141-0.492-0.633-0.844-1.477-1.125l-0.844-0.211c-0.422-0.070-0.774-0.211-1.055-0.352-0.422-0.281-0.633-0.633-0.633-1.055s0.211-0.774 0.563-0.985c0.070 0 0.070-0.070 0.141-0.070 0 0.352 0.070 1.266 0.141 1.336 0.141 0.070 0.352 0.141 0.492 0.211h0.211c0.211 0.070 0.563 0.070 0.844 0.211 0-0.141 0.070-1.196 0.070-1.196v-0.211c0 0 0-0.070-0.070-0.070l0.211 0.211c0.141 0.141 0.211 0.281 0.281 0.422s0.141 0.211 0.141 0.281c0.633 0.633 1.618 0.563 2.743 0.422 0.070 0 0.141-0.070 0.141-0.070v0zM57.6 2.11c0.492 0 0.633 0 1.125 0.070v-1.477c0-0.563-0.703-0.703-1.055-0.703-0.492 0-0.774 0.070-0.985 0.281-0.070 0.141-0.141 0.281-0.141 0.492 0 0 0.070 1.336 0.070 1.477 0.352-0.070 0.985-0.141 0.985-0.141z"></path>
    <path d="M0.141 24.826h114.286v0.633h-114.286v-0.633zM39.244 30.242c0 0.985-0.703 1.758-1.688 1.758s-1.688-0.774-1.688-1.758 0.703-1.758 1.688-1.758 1.688 0.774 1.688 1.758zM38.611 30.242c0-0.633-0.422-1.125-0.985-1.125s-0.985 0.492-0.985 1.125c0 0.633 0.422 1.125 0.985 1.125s0.985-0.492 0.985-1.125zM43.112 29.609h-0.633c0-0.281-0.211-0.492-0.633-0.492-0.352 0-0.633 0.141-0.633 0.422 0 0.211 0.211 0.352 0.774 0.422 0.774 0.141 1.336 0.352 1.336 1.055 0 0.633-0.563 1.055-1.407 1.055-0.633 0-1.407-0.352-1.407-1.196h0.633c0 0.422 0.422 0.563 0.774 0.563s0.774-0.141 0.774-0.422c0-0.211-0.211-0.352-0.774-0.492-0.633-0.141-1.266-0.281-1.266-1.055 0-0.563 0.492-0.985 1.336-0.985 0.703 0 1.125 0.563 1.125 1.125zM45.714 29.187v2.813h-0.633v-2.813h-0.914v-0.633h2.462v0.633h-0.914zM50.356 31.93h-2.532v-3.376h2.462v0.633h-1.758v0.703h1.547v0.633h-1.547v0.844h1.899l-0.070 0.563zM54.716 30.242c0 0.985-0.703 1.758-1.688 1.758s-1.688-0.774-1.688-1.758 0.703-1.758 1.688-1.758c1.055 0 1.688 0.774 1.688 1.758zM54.084 30.242c0-0.633-0.422-1.125-0.985-1.125s-0.985 0.492-0.985 1.125c0 0.633 0.422 1.125 0.985 1.125s0.985-0.492 0.985-1.125zM57.53 30.734h-0.774v1.196h-0.633v-3.376h1.407c0.703 0 1.125 0.422 1.125 1.125-0.070 0.633-0.492 1.055-1.125 1.055zM56.686 29.187v0.985h0.774c0.281 0 0.492-0.141 0.492-0.492s-0.211-0.492-0.492-0.492h-0.774zM60.132 31.297l-0.211 0.703h-0.703l1.196-3.376h0.774l1.196 3.376h-0.703l-0.211-0.703c0 0-1.336 0-1.336 0zM60.765 29.257l-0.492 1.407h0.914l-0.422-1.407zM64.492 29.187v2.813h-0.633v-2.813h-0.914v-0.633h2.462v0.633h-0.914zM69.345 31.93h-0.633v-1.407h-1.477v1.407h-0.633v-3.376h0.633v1.336h1.477v-1.336h0.633v3.376zM71.455 31.93h-0.633v-3.376h0.633v3.376zM74.409 32c-0.914 0-1.618-0.774-1.618-1.758s0.703-1.758 1.618-1.758c0.774 0 1.336 0.422 1.547 1.125h-0.703c-0.141-0.281-0.422-0.563-0.844-0.563-0.563 0-0.985 0.563-0.985 1.196s0.422 1.196 0.985 1.196c0.352 0 0.703-0.211 0.844-0.563h0.703c-0.211 0.703-0.774 1.125-1.547 1.125z"></path>
    <path d="M5.134 28.554h-0.633v3.376h0.422v-2.813l0.985 2.813h0.422l0.985-2.813v2.813h0.422v-3.376h-0.633l-0.985 2.884c0 0-0.985-2.884-0.985-2.884zM12.026 28.976v-0.352h-2.391v3.376h2.391v-0.352h-2.040v-1.196h1.829v-0.352h-1.829v-1.055c0-0.070 2.040-0.070 2.040-0.070zM16.176 31.086c0-0.352-0.141-0.563-0.352-0.703 0.281-0.141 0.492-0.492 0.492-0.844 0-0.633-0.422-0.985-1.055-0.985h-1.477v3.376h0.422v-1.336h1.125c0.352 0 0.563 0.141 0.563 0.492v0.492c0 0.141 0 0.281 0.070 0.352h0.422c-0.141-0.070-0.211-0.281-0.211-0.422v-0.422zM15.191 30.242h-1.125v-1.266h1.055c0.422 0 0.703 0.211 0.703 0.633 0.070 0.352-0.211 0.633-0.633 0.633zM1.758 28.554h-0.422c0 0-1.266 3.305-1.266 3.376h0.422l0.352-0.985h1.407l0.352 0.985h0.422c-0.070 0-1.266-3.376-1.266-3.376zM0.914 30.593l0.563-1.547 0.563 1.547h-1.125zM18.426 28.554h-0.422v3.376h0.422v-3.376zM21.802 31.648c-0.703 0-1.266-0.633-1.266-1.407s0.563-1.407 1.266-1.407c0.492 0 0.914 0.281 1.125 0.703h0.422c-0.211-0.703-0.844-1.125-1.547-1.125-0.914 0-1.688 0.774-1.688 1.758s0.774 1.758 1.688 1.758c0.703 0 1.336-0.422 1.547-1.125h-0.422c-0.211 0.563-0.633 0.844-1.125 0.844zM26.374 28.554h-0.422c0 0-1.266 3.305-1.266 3.376h0.422l0.352-0.985h1.407l0.352 0.985h0.422c-0.070 0-1.266-3.376-1.266-3.376zM25.53 30.593l0.563-1.547 0.563 1.547h-1.125zM29.116 28.554v3.376h0.422v-2.813c0 0 1.829 2.743 1.829 2.813h0.422v-3.376h-0.422v2.813c0 0-1.829-2.743-1.829-2.813h-0.422zM81.020 28.554h-0.422c0 0-1.266 3.305-1.266 3.376h0.422l0.352-0.985h1.407l0.352 0.985h0.422c0 0-1.266-3.376-1.266-3.376zM80.246 30.593l0.563-1.547 0.563 1.547c0 0-1.125 0-1.125 0zM84.255 29.96c-0.633-0.141-0.844-0.281-0.844-0.563 0-0.352 0.281-0.563 0.774-0.563s0.774 0.281 0.774 0.633h0.422c0-0.633-0.492-1.055-1.196-1.055s-1.196 0.352-1.196 0.914c0 0.492 0.352 0.774 1.196 0.914 0.703 0.141 0.914 0.352 0.914 0.633 0 0.422-0.281 0.633-0.844 0.633-0.492 0-0.844-0.281-0.844-0.703h-0.422c0 0.633 0.492 1.125 1.266 1.125s1.266-0.352 1.266-0.985c-0.070-0.633-0.563-0.774-1.266-0.985v0zM87.56 29.96c-0.633-0.141-0.844-0.281-0.844-0.563 0-0.352 0.281-0.563 0.774-0.563s0.774 0.281 0.774 0.633h0.422c0-0.633-0.492-1.055-1.196-1.055s-1.196 0.352-1.196 0.914c0 0.492 0.352 0.774 1.196 0.914 0.774 0.141 0.914 0.352 0.914 0.633 0 0.422-0.281 0.633-0.844 0.633-0.492 0-0.844-0.281-0.844-0.703h-0.422c0 0.633 0.492 1.125 1.266 1.125s1.266-0.352 1.266-0.985c-0.070-0.633-0.563-0.774-1.266-0.985v0zM91.218 28.484c-0.914 0-1.688 0.774-1.688 1.758s0.703 1.758 1.688 1.758c0.914 0 1.688-0.774 1.688-1.758-0.070-0.985-0.774-1.758-1.688-1.758zM91.218 31.648c-0.703 0-1.266-0.633-1.266-1.407s0.563-1.407 1.266-1.407 1.266 0.563 1.266 1.407c0 0.774-0.563 1.407-1.266 1.407zM95.297 31.648c-0.703 0-1.266-0.633-1.266-1.407s0.563-1.407 1.266-1.407c0.492 0 0.914 0.281 1.125 0.703h0.422c-0.211-0.703-0.844-1.125-1.547-1.125-0.914 0-1.688 0.774-1.688 1.758s0.774 1.758 1.688 1.758c0.703 0 1.266-0.422 1.547-1.125h-0.422c-0.211 0.563-0.633 0.844-1.125 0.844zM98.18 28.554h-0.422v3.376h0.422v-3.376zM100.782 28.554h-0.422c0 0-1.266 3.305-1.266 3.376h0.422l0.352-0.985h1.407l0.352 0.985h0.422l-1.266-3.376zM100.009 30.593l0.563-1.547 0.563 1.547h-1.125zM103.314 31.93h0.422v-3.024h1.055v-0.352h-2.532v0.352h1.055v3.024zM106.127 28.554h-0.422v3.376h0.422v-3.376zM108.8 28.484c-0.914 0-1.688 0.774-1.688 1.758s0.703 1.758 1.688 1.758c0.914 0 1.688-0.774 1.688-1.758s-0.703-1.758-1.688-1.758zM108.8 31.648c-0.703 0-1.266-0.633-1.266-1.407s0.563-1.407 1.266-1.407 1.266 0.563 1.266 1.407c0 0.774-0.563 1.407-1.266 1.407zM111.473 28.554v3.376h0.422v-2.813c0 0 1.829 2.743 1.829 2.813h0.422v-3.376h-0.422v2.813c0 0-1.829-2.743-1.829-2.813h-0.422z"></path>
    <path d="M76.8 5.556c-1.196 0-2.18-0.985-2.18-2.18s0.985-2.18 2.18-2.18 2.18 0.985 2.18 2.18-0.985 2.18-2.18 2.18zM76.8 1.618c-0.985 0-1.758 0.774-1.758 1.758s0.774 1.758 1.758 1.758 1.758-0.774 1.758-1.758-0.844-1.758-1.758-1.758zM77.855 4.501h-0.492l-0.422-0.844h-0.563v0.844h-0.422v-2.391h1.125c0.492 0 0.844 0.281 0.844 0.774 0 0.352-0.211 0.633-0.492 0.703l0.422 0.914zM77.081 3.235c0.211 0 0.352-0.070 0.352-0.352s-0.141-0.352-0.352-0.352h-0.703v0.703h0.703z"></path>
  </g>
</svg>
