<svg version="1.1" id="Layer_1" xmlns="http://www.w3.org/2000/svg" xmlns:xlink="http://www.w3.org/1999/xlink" viewBox="0 0 90 73.8">
<g transform="translate(0,-952.36218)">
	<path d="M4,953.1c-1.6,0-3,1.4-3,3v66c0,1.6,1.4,3,3,3h70c0.3,0,0.5-0.1,0.7-0.3l14-14c0.2-0.2,0.3-0.4,0.3-0.7v-54
		c0-1.6-1.4-3-3-3C86,953.1,4,953.1,4,953.1z M4,955.1h82c0.6,0,1,0.4,1,1v17H3v-17C3,955.5,3.4,955.1,4,955.1z M3,975.1h84v34H76
		c-1.6,0-3,1.4-3,3v11H4c-0.6,0-1-0.4-1-1V975.1z M12,982.1v34h50v-16h16v-18H12z M14,984.1h14v14H14V984.1z M30,984.1h14v14H30
		V984.1z M46,984.1h14v14H46V984.1z M62,984.1h14v14H62V984.1z M14,1000.1h14v14H14V1000.1z M30,1000.1h14v14H30V1000.1z M46,1000.1
		h14v14H46V1000.1z M76,1011.1h9.6L75,1021.7v-9.6C75,1011.5,75.4,1011.1,76,1011.1z"/>
</g>
<g>
	<path d="M31.1,14l3.1-2.4c0.8-0.6,1.1-1,1.1-1.5c0-0.5-0.4-0.9-0.9-0.9c-0.6,0-1,0.3-1.7,1.1L31.1,9c0.9-1.2,1.8-1.8,3.4-1.8
		c1.8,0,3.1,1.1,3.1,2.7v0c0,1.3-0.7,2-1.9,2.9l-1.4,1h3.5v1.9h-6.6V14z"/>
	<path d="M38.6,11.6L38.6,11.6c0-2.4,1.5-4.4,3.9-4.4s3.9,2,3.9,4.3v0c0,2.4-1.5,4.4-3.9,4.4C40.1,15.9,38.6,14,38.6,11.6z
		 M44.1,11.6L44.1,11.6c0-1.4-0.6-2.3-1.6-2.3c-0.9,0-1.5,0.9-1.5,2.3v0c0,1.3,0.6,2.3,1.6,2.3S44.1,12.9,44.1,11.6z"/>
	<path d="M48.7,9.5l-1.4,0.3L46.8,8l2.5-0.7H51v8.5h-2.3V9.5z"/>
	<path d="M52.1,13.4L52.1,13.4c0-1,0.5-1.7,1.4-2c-0.6-0.4-1.1-0.9-1.1-1.8v0c0-1.3,1.3-2.3,3.2-2.3s3.2,1,3.2,2.3v0
		c0,0.9-0.5,1.5-1.2,1.8c0.9,0.4,1.4,1,1.4,2v0c0,1.5-1.4,2.5-3.5,2.5C53.5,15.9,52.1,14.9,52.1,13.4z M56.8,13.2L56.8,13.2
		c0-0.6-0.5-0.9-1.2-0.9c-0.7,0-1.2,0.4-1.2,0.9v0c0,0.5,0.4,0.9,1.2,0.9S56.8,13.7,56.8,13.2z M56.6,9.8L56.6,9.8
		c0-0.5-0.4-0.9-1-0.9c-0.6,0-1,0.4-1,0.9v0c0,0.5,0.4,0.9,1,0.9C56.2,10.8,56.6,10.4,56.6,9.8z"/>
</g>
</svg>
