<svg version="1.1" id="Layer_1" xmlns="http://www.w3.org/2000/svg" xmlns:xlink="http://www.w3.org/1999/xlink" viewBox="0 0 90 73.8">
<g transform="translate(0,-952.36218)">
	<path d="M4,953.1c-1.6,0-3,1.4-3,3v66c0,1.6,1.4,3,3,3h70c0.3,0,0.5-0.1,0.7-0.3l14-14c0.2-0.2,0.3-0.4,0.3-0.7v-54
		c0-1.6-1.4-3-3-3C86,953.1,4,953.1,4,953.1z M4,955.1h82c0.6,0,1,0.4,1,1v17H3v-17C3,955.5,3.4,955.1,4,955.1z M22,960.1
		c-2.2,0-4,1.8-4,4s1.8,4,4,4s4-1.8,4-4S24.2,960.1,22,960.1z M68,960.1c-2.2,0-4,1.8-4,4s1.8,4,4,4s4-1.8,4-4S70.2,960.1,68,960.1z
		 M3,975.1h84v34H76c-1.6,0-3,1.4-3,3v11H4c-0.6,0-1-0.4-1-1V975.1z M12,982.1v34h50v-16h16v-18H12z M14,984.1h14v14H14V984.1z
		 M30,984.1h14v14H30V984.1z M46,984.1h14v14H46C46,998.1,46,984.1,46,984.1z M62,984.1h14v14H62V984.1z M14,1000.1h14v14H14V1000.1
		z M30,1000.1h14v14H30V1000.1z M46,1000.1h14v14H46V1000.1z M76,1011.1h9.6L75,1021.7v-9.6C75,1011.5,75.4,1011.1,76,1011.1z"/>
</g>
</svg>
