<svg version="1.1" id="Layer_1" xmlns="http://www.w3.org/2000/svg" xmlns:xlink="http://www.w3.org/1999/xlink"
	 viewBox="0 0 40 48">
<g>
	<g>
		
			<line fill="none" stroke="#1A1A1A" stroke-width="2" stroke-linecap="round" stroke-linejoin="round" x1="19" y1="15" x2="31" y2="15"/>
		
			<line fill="none" stroke="#1A1A1A" stroke-width="2" stroke-linecap="round" stroke-linejoin="round" x1="19" y1="19" x2="27" y2="19"/>
		
			<line fill="none" stroke="#1A1A1A" stroke-width="2" stroke-linecap="round" stroke-linejoin="round" x1="19" y1="25" x2="31" y2="25"/>
		
			<line fill="none" stroke="#1A1A1A" stroke-width="2" stroke-linecap="round" stroke-linejoin="round" x1="19" y1="29" x2="27" y2="29"/>
		
			<line fill="none" stroke="#1A1A1A" stroke-width="2" stroke-linecap="round" stroke-linejoin="round" x1="19" y1="35" x2="31" y2="35"/>
		
			<line fill="none" stroke="#1A1A1A" stroke-width="2" stroke-linecap="round" stroke-linejoin="round" x1="19" y1="39" x2="27" y2="39"/>
		<polyline fill="none" stroke="#1A1A1A" stroke-width="2" stroke-linecap="round" stroke-linejoin="round" points="13,15 9,19 
			7,17 		"/>
		<polyline fill="none" stroke="#1A1A1A" stroke-width="2" stroke-linecap="round" stroke-linejoin="round" points="13,25 9,29 
			7,27 		"/>
		<polyline fill="none" stroke="#1A1A1A" stroke-width="2" stroke-linecap="round" stroke-linejoin="round" points="13,35 9,39 
			7,37 		"/>
	</g>
	<path fill="none" stroke="#1A1A1A" stroke-width="2" stroke-linejoin="round" d="M11,1v8c0,1.1-0.9,2-2,2H1"/>
	<path fill="none" stroke="#1A1A1A" stroke-width="2" stroke-linecap="round" stroke-linejoin="round" d="M39,3c0-1.1-0.9-2-2-2H11
		L1,11v34c0,1.1,0.9,2,2,2h34c1.1,0,2-0.9,2-2V3z"/>
</g>
</svg>
