<svg version="1.1" id="Layer_1" xmlns="http://www.w3.org/2000/svg" xmlns:xlink="http://www.w3.org/1999/xlink" preserveAspectRatio="xMidYMid meet"
	 viewBox="0 0 90 90">
<g display="none">
	<rect x="-70.9" y="-85.3" display="inline" width="435.6" height="207"/>
</g>
<g display="none">
	<g display="inline">
		<g>
			<g>
				<path d="M31,1v23.1H1V1H31 M32,0H0v25.1h32V0L32,0z"/>
			</g>
		</g>
		<line fill="none" stroke="#000000" stroke-miterlimit="10" x1="8.8" y1="31.5" x2="23.2" y2="31.5"/>
		<line fill="none" stroke="#000000" stroke-miterlimit="10" x1="0.5" y1="21" x2="31.4" y2="21"/>
	</g>
	<g display="inline">
		<g>
			<g>
				<path d="M19.8,5.7l1.7,1.5l-7,8.5l-4-3.9l1.5-1.7l2.3,2.2L19.8,5.7 M19.7,4.3L19,5.1l-4.8,5.8l-1.5-1.5L12,8.7l-0.7,0.8
					l-1.5,1.7l-0.7,0.7l0.7,0.7l4,3.9l0.8,0.8l0.7-0.8l7-8.5l0.6-0.8l-0.7-0.6L20.5,5L19.7,4.3L19.7,4.3z"/>
			</g>
		</g>
	</g>
	<line display="inline" fill="none" stroke="#000000" stroke-miterlimit="10" x1="16" y1="24.6" x2="16" y2="31.5"/>
</g>
<g display="none">
	<g display="inline">
		<g>
			<path d="M19.8,5.7l1.7,1.5l-7,8.5l-4-3.9l1.5-1.7l2.3,2.2L19.8,5.7 M19.6,2.9l-1.3,1.6l-4.1,5l-0.8-0.7l-1.5-1.4l-1.4,1.5L9,10.5
				l-1.3,1.4l1.4,1.4l4,3.9l1.6,1.5L16,17l7-8.5L24.3,7l-1.5-1.3l-1.7-1.5L19.6,2.9L19.6,2.9z"/>
		</g>
	</g>
	<g display="inline">
		<g>
			<g>
				<path d="M30,2v21.1H2V2H30 M32,0H0v25.1h32V0L32,0z"/>
			</g>
		</g>
		<line fill="none" stroke="#000000" stroke-width="2" stroke-miterlimit="10" x1="8.8" y1="31" x2="23.2" y2="31"/>
		<line fill="none" stroke="#000000" stroke-width="2" stroke-miterlimit="10" x1="0.5" y1="20.6" x2="31.4" y2="20.6"/>
	</g>
	
		<line display="inline" fill="none" stroke="#000000" stroke-width="2" stroke-miterlimit="10" x1="16" y1="24.6" x2="16" y2="31.5"/>
</g>
<g>
	<g>
		<path d="M2.5,69.2h42.1v17.2h1.3V69.2H88v-67H2.5V69.2z M3.8,3.6h82.8v54H3.8V3.6z M3.8,59h82.8v8.9H3.8V59z"/>
		<rect x="25.9" y="86.4" width="38.7" height="1.3"/>
		<path d="M60.8,20.5l-4.5-3.9l-1-0.9l-0.9,1.1L40.7,33.4l-5.1-5l-1-1l-0.9,1l-4.1,4.4l-0.9,1l0.9,0.9l10.7,10.4l1,1l0.9-1.1
			L61,22.3l0.8-1L60.8,20.5z M41.3,44.2L30.5,33.8l4.1-4.4l6.2,6l14.7-17.8l4.5,3.9L41.3,44.2z"/>
	</g>
</g>
<g display="none">
	<g display="inline">
		<polygon points="0,25.3 15.8,25.3 15.8,30.5 8.8,30.5 8.8,31 23.2,31 23.2,30.5 16.2,30.5 16.2,25.3 32,25.3 32,21.5 0,21.5 		"/>
		<polygon points="21.5,6.8 19.8,5.4 14.3,12.1 12,9.8 10.5,11.5 14.5,15.4 		"/>
		<path d="M0,21h32V0H0V21z M10.1,11.1l1.5-1.7L12,9.1l0.4,0.4l1.9,1.9l5.1-6.3l0.3-0.4L20.1,5l1.7,1.5l0.4,0.3l-0.3,0.4l-7,8.5
			l-0.3,0.4l-0.4-0.4l-4-3.9l-0.3-0.3L10.1,11.1z"/>
	</g>
</g>
</svg>
