<svg version="1.1" id="Layer_1" xmlns="http://www.w3.org/2000/svg" xmlns:xlink="http://www.w3.org/1999/xlink" 
	 viewBox="0 0 75.4 75.1">
<g class="icon-telephone">
	<g>
		<path class="st0" d="M67.2,73.8H8.4c-3.8,0-6.9-3.1-6.9-6.9V8.3c0.2-3.8,3.1-6.9,6.9-6.9H67c3.8,0,6.9,3.1,6.9,6.9v58.6
			C74.1,71,71,73.8,67.2,73.8z M8.4,5C6.5,5,5.1,6.4,5.1,8.3v58.6c0,1.9,1.4,3.3,3.3,3.3H67c1.9,0,3.3-1.4,3.3-3.3V8.3
			C70.3,6.4,68.9,5,67,5L8.4,5z"/>
	</g>
	<g>
		<path class="st0" d="M21,68.8c-7.1,0-12.8-5.7-12.8-12.8V20c0-7.1,5.7-12.8,12.8-12.8S33.8,12.8,33.8,20V56
			C33.8,63.1,28.1,68.8,21,68.8z M21,10.7c-5,0-9.3,4-9.3,9.3V56c0,5.2,4.3,9.3,9.3,9.3c5.2,0,9.3-4.3,9.3-9.3V20
			C30.2,14.7,26.2,10.7,21,10.7z"/>
	</g>
	<g>
		<path class="st0" d="M66.3,28H36.9V12.1h29.4V28z M40.4,24.5h22.3v-8.8H40.4V24.5z"/>
	</g>
	<g>
		<rect x="62" y="31.3" class="st0" width="2.6" height="3.6"/>
	</g>
	<g>
		<rect x="54.2" y="31.3" class="st0" width="2.6" height="3.6"/>
	</g>
	<g>
		<rect x="46.4" y="31.3" class="st0" width="2.6" height="3.6"/>
	</g>
	<g>
		<rect x="38.8" y="31.3" class="st0" width="2.6" height="3.6"/>
	</g>
	<g>
		<rect x="62" y="39.2" class="st0" width="2.6" height="3.6"/>
	</g>
	<g>
		<rect x="54.2" y="39.2" class="st0" width="2.6" height="3.6"/>
	</g>
	<g>
		<rect x="46.4" y="39.2" class="st0" width="2.6" height="3.6"/>
	</g>
	<g>
		<rect x="38.8" y="39.2" class="st0" width="2.6" height="3.6"/>
	</g>
	<g>
		<rect x="62" y="47" class="st0" width="2.6" height="3.6"/>
	</g>
	<g>
		<rect x="54.2" y="47" class="st0" width="2.6" height="3.6"/>
	</g>
	<g>
		<rect x="46.4" y="47" class="st0" width="2.6" height="3.6"/>
	</g>
	<g>
		<rect x="38.8" y="47" class="st0" width="2.6" height="3.6"/>
	</g>
	<g>
		<rect x="62" y="54.6" class="st0" width="2.6" height="3.6"/>
	</g>
	<g>
		<rect x="54.2" y="54.6" class="st0" width="2.6" height="3.6"/>
	</g>
	<g>
		<rect x="46.4" y="54.6" class="st0" width="2.6" height="3.6"/>
	</g>
	<g>
		<rect x="38.8" y="54.6" class="st0" width="2.6" height="3.6"/>
	</g>
</g>
</svg>
