<svg version="1.1" xmlns="http://www.w3.org/2000/svg" xmlns:xlink="http://www.w3.org/1999/xlink" preserveAspectRatio="xMidYMid meet" viewBox="0 0 31 32">
<path class="icon-exhibits" d="M29.957 26.826h-28.596c-0.681 0-1.362-0.545-1.362-1.362v-24.102c0-0.681 0.545-1.362 1.362-1.362h28.596c0.681 0 1.362 0.545 1.362 1.362v24.102c0 0.681-0.545 1.362-1.362 1.362zM1.634 25.192h28.187v-23.557h-28.187v23.557zM6.672 32c-0.272 0-0.681-0.136-0.953-0.409-0.545-0.545-0.545-1.362 0-1.906l3.949-4.085c0.545-0.545 1.362-0.545 1.906 0s0.545 1.362 0 1.498l-3.949 4.085c-0.272 0.681-0.545 0.817-0.953 0.817zM24.647 32c-0.272 0-0.681-0.136-0.953-0.681l-3.813-3.949c-0.545-0.136-0.409-0.953 0-1.498 0.545-0.545 1.362-0.409 1.906 0l3.813 3.949c0.545 0.545 0.409 1.362 0 1.906-0.272 0.136-0.681 0.272-0.953 0.272z"></path>
</svg>
