<?xml version="1.0" encoding="utf-8"?>
<!-- Generator: Adobe Illustrator 20.1.0, SVG Export Plug-In . SVG Version: 6.00 Build 0)  -->
<svg version="1.1" id="Layer_1" xmlns="http://www.w3.org/2000/svg" xmlns:xlink="http://www.w3.org/1999/xlink" x="0px" y="0px"
	 viewBox="0 0 32 32" style="enable-background:new 0 0 32 32;" xml:space="preserve">
<g id="XMLID_2630_">
	<path id="XMLID_691_" class="st0" d="M12.3,31.5c-0.1,0-0.2,0-0.3-0.1c-0.3-0.1-0.5-0.4-0.5-0.7v-5.1H7.5c-3.5,0-6.3-2.8-6.3-6.3
		V6.9c0-3.5,2.8-6.3,6.3-6.3h17.2c3.5,0,6.3,2.8,6.3,6.3v12.4c0,3.5-2.8,6.3-6.3,6.3h-5.3l-6.5,5.7C12.7,31.5,12.5,31.5,12.3,31.5z
		 M7.5,2.2c-2.6,0-4.7,2.1-4.7,4.7v12.4c0,2.6,2.1,4.7,4.7,4.7h4.9c0.4,0,0.8,0.4,0.8,0.8v4.1l5.4-4.7c0.1-0.1,0.3-0.2,0.5-0.2h5.6
		c2.6,0,4.7-2.1,4.7-4.7V6.9c0-2.6-2.1-4.7-4.7-4.7H7.5z"/>
	<g id="XMLID_723_">
		<path id="XMLID_724_" class="st0" d="M15.7,4.8c-1.3,0-2.6,0.4-3.6,1.1c-1.1,0.8-1.8,1.9-1.8,3c0,1.3,0.3,2,1.4,2.9
			c0.1,0.1,0.3,0.1,0.5,0l0.9-0.6c0.1-0.1,0.2-0.2,0.2-0.3c0-0.1,0-0.2-0.1-0.3c-0.6-0.5-0.8-1-0.8-1.5c0-1.2,1.6-2.3,3.4-2.3
			c2,0,3.2,1.1,3.2,2.2c0,0.6-0.3,1.2-0.9,1.7l-2,1.6c0,0,0,0,0,0c-0.8,0.8-1.2,1.6-1.2,2.7v2.6c0,0.2,0.2,0.4,0.4,0.4h1.2
			c0.2,0,0.4-0.2,0.4-0.4V15c0-0.6,0.3-1.2,0.9-1.8l1.9-1.5c0,0,0,0,0,0c0.8-0.8,1.2-1.7,1.2-2.8C20.8,6.5,18.7,4.8,15.7,4.8z"/>
		<circle id="XMLID_725_" class="st0" cx="15.8" cy="20.2" r="1.2"/>
	</g>
</g>
</svg>
