<svg version="1.1" id="Layer_1" xmlns="http://www.w3.org/2000/svg" xmlns:xlink="http://www.w3.org/1999/xlink"
	 viewBox="0 0 60 52">
<g>
	
		<line fill="none" stroke="#1A1A1A" stroke-width="2" stroke-linecap="round" stroke-linejoin="round" x1="30" y1="45" x2="30" y2="51"/>
	
		<line fill="none" stroke="#1A1A1A" stroke-width="2" stroke-linecap="round" stroke-linejoin="round" x1="16.6" y1="39.4" x2="15.2" y2="40.8"/>
	
		<line fill="none" stroke="#1A1A1A" stroke-width="2" stroke-linecap="round" stroke-linejoin="round" x1="43.4" y1="39.4" x2="44.8" y2="40.8"/>
	
		<line fill="none" stroke="#1A1A1A" stroke-width="2" stroke-linecap="round" stroke-linejoin="round" x1="34.9" y1="44.4" x2="35.4" y2="46.3"/>
	
		<line fill="none" stroke="#1A1A1A" stroke-width="2" stroke-linecap="round" stroke-linejoin="round" x1="25.1" y1="44.4" x2="24.6" y2="46.3"/>
	
		<line fill="none" stroke="#1A1A1A" stroke-width="2" stroke-linecap="round" stroke-linejoin="round" x1="20.5" y1="42.5" x2="17.5" y2="47.7"/>
	
		<line fill="none" stroke="#1A1A1A" stroke-width="2" stroke-linecap="round" stroke-linejoin="round" x1="39.5" y1="42.5" x2="42.5" y2="47.7"/>
	
		<line fill="none" stroke="#1A1A1A" stroke-width="2" stroke-linecap="round" stroke-linejoin="round" x1="30" y1="7" x2="30" y2="1"/>
	
		<line fill="none" stroke="#1A1A1A" stroke-width="2" stroke-linecap="round" stroke-linejoin="round" x1="46.5" y1="16.5" x2="51.7" y2="13.5"/>
	
		<line fill="none" stroke="#1A1A1A" stroke-width="2" stroke-linecap="round" stroke-linejoin="round" x1="43.4" y1="12.6" x2="44.8" y2="11.2"/>
	
		<line fill="none" stroke="#1A1A1A" stroke-width="2" stroke-linecap="round" stroke-linejoin="round" x1="16.6" y1="12.6" x2="15.2" y2="11.2"/>
	
		<line fill="none" stroke="#1A1A1A" stroke-width="2" stroke-linecap="round" stroke-linejoin="round" x1="25.1" y1="7.6" x2="24.6" y2="5.7"/>
	
		<line fill="none" stroke="#1A1A1A" stroke-width="2" stroke-linecap="round" stroke-linejoin="round" x1="34.9" y1="7.6" x2="35.4" y2="5.7"/>
	
		<line fill="none" stroke="#1A1A1A" stroke-width="2" stroke-linecap="round" stroke-linejoin="round" x1="39.5" y1="9.5" x2="42.5" y2="4.3"/>
	
		<line fill="none" stroke="#1A1A1A" stroke-width="2" stroke-linecap="round" stroke-linejoin="round" x1="20.5" y1="9.5" x2="17.5" y2="4.3"/>
	
		<line fill="none" stroke="#1A1A1A" stroke-width="2" stroke-linecap="round" stroke-linejoin="round" x1="51" y1="36" x2="51" y2="30"/>
	<path fill="none" stroke="#1A1A1A" stroke-width="2" stroke-linecap="round" stroke-linejoin="round" d="M19,24c0-5-4-9-9-9
		c-5,0-9,4-9,9v4c0,5,4,9,9,9c5,0,9-4,9-9h28v8h8v-8h4v-4H19z M15,28c0,2.8-2.2,5-5,5c-2.8,0-5-2.2-5-5c0-0.7,0.2-1.4,0.4-2
		C5.2,25.4,5,24.7,5,24c0-2.8,2.2-5,5-5c2.8,0,5,2.2,5,5c0,0.7-0.2,1.4-0.4,2C14.8,26.6,15,27.3,15,28z"/>
</g>
</svg>
