<svg version="1.1" xmlns="http://www.w3.org/2000/svg" preserveAspectRatio="xMidYMid meet" xmlns:xlink="http://www.w3.org/1999/xlink" viewBox="0 0 48 32">
<path class="icon-ticket" d="M29.217 15.098l-2.628 2.113c-0.103 0.103-0.155 0.206-0.103 0.361l0.928 3.195c0.052 0.309-0.206 0.515-0.464 0.515-0.052 0-0.155 0-0.206-0.052l-2.783-1.804c-0.052-0.052-0.103-0.052-0.206-0.052-0.052 0-0.103 0-0.206 0.052l-2.783 1.804c-0.052 0.052-0.155 0.052-0.206 0.052-0.258 0-0.515-0.258-0.464-0.515l0.928-3.195c0-0.103 0-0.258-0.103-0.361l-2.628-2.113c-0.258-0.258-0.103-0.721 0.258-0.773l3.349-0.103c0.155 0 0.258-0.103 0.309-0.206l1.134-3.143c0.103-0.155 0.258-0.258 0.412-0.258s0.309 0.103 0.412 0.258l1.134 3.143c0.052 0.103 0.155 0.206 0.309 0.206l3.349 0.103c0.361 0.052 0.515 0.515 0.258 0.773zM10.873 26.229h25.868c1.288 0 2.319-1.237 2.319-2.731v-14.995c0-1.494-1.031-2.731-2.319-2.731h-25.868c-1.288 0-2.319 1.237-2.319 2.731v14.995c-0.052 1.494 1.031 2.731 2.319 2.731zM10.873 26.229v-2.061c-0.309 0-0.567-0.309-0.567-0.67v-14.995c0-0.361 0.258-0.67 0.567-0.67h25.868c0.309 0 0.567 0.309 0.567 0.67v14.995c0 0.258-0.103 0.412-0.155 0.464s-0.206 0.206-0.412 0.206h-25.868v2.061zM2.628 32c-1.443 0-2.628-1.391-2.628-3.040v-9.172h0.876c1.804 0 3.246-1.7 3.246-3.762s-1.443-3.762-3.246-3.762h-0.876v-9.172c0-0.824 0.258-1.597 0.773-2.164 0.515-0.618 1.185-0.928 1.855-0.928h42.254c1.443 0 2.628 1.391 2.628 3.040v9.172h-0.876c-1.804 0-3.246 1.7-3.246 3.762s1.443 3.762 3.246 3.762h0.876v9.172c0 0.824-0.258 1.597-0.773 2.164s-1.185 0.876-1.855 0.876l-42.254 0.052zM1.752 21.694v7.214c0 0.567 0.412 1.031 0.876 1.031h42.254c0.258 0 0.464-0.103 0.618-0.309s0.258-0.464 0.258-0.721v-7.214c-2.319-0.464-4.122-2.834-4.122-5.668s1.752-5.204 4.122-5.72v-7.214c0-0.567-0.412-1.031-0.876-1.031h-42.254c-0.206 0-0.464 0.103-0.618 0.309-0.155 0.155-0.258 0.412-0.258 0.721v7.214c2.319 0.464 4.122 2.834 4.122 5.72 0 2.834-1.804 5.204-4.122 5.668z"></path>
</svg>
