<svg version="1.1" id="Layer_1" xmlns="http://www.w3.org/2000/svg" xmlns:xlink="http://www.w3.org/1999/xlink" 
	 viewBox="0 0 86.9 80.3">
<path d="M15.1,66.6h20.5c0.9,0,1.6,0.7,1.6,1.6v0.4c0,0.4,0.3,0.6,0.7,0.6h11.2c0.4,0,0.7-0.3,0.7-0.6v-0.4c0-0.9,0.7-1.6,1.6-1.6
	h20.6c0.9,0,1.6,0.7,1.6,1.6s-0.7,1.6-1.6,1.6H52.8c-0.5,1.5-2,2.6-3.6,2.6H37.9c-1.7,0-3.1-1.1-3.6-2.6H15.1
	c-0.9,0-1.6-0.7-1.6-1.6S14.3,66.6,15.1,66.6z M85.5,66.6h-4.8V25.7c0-0.9-0.7-1.6-1.6-1.6c-0.9,0-1.6,0.7-1.6,1.6v42.4
	c0,0.9,0.7,1.6,1.6,1.6h4.8v2.6c0,2.6-2.1,4.7-4.7,4.7H7.9c-2.6,0-4.7-2.1-4.7-4.7v-2.6H8c0.9,0,1.6-0.7,1.6-1.6V25.7
	c0-0.9-0.7-1.6-1.6-1.6c-0.9,0-1.6,0.7-1.6,1.6v40.9H1.6c-0.9,0-1.6,0.7-1.6,1.6v4.2c0,4.4,3.6,7.8,7.8,7.8h71.3
	c4.4,0,7.8-3.6,7.8-7.8v-4.2C87,67.2,86.3,66.6,85.5,66.6z M23.9,54.3v-7.9h-2c-3.5,0-6.2-2.9-6.2-6.2V6.2c0-3.5,2.9-6.2,6.2-6.2
	h43.6c3.5,0,6.2,2.9,6.2,6.2v33.8c0,3.5-2.9,6.2-6.2,6.2H36.3l-8.2,9.5c-0.4,0.5-1.2,0.8-1.8,0.8C24.9,56.7,23.9,55.7,23.9,54.3z
	 M25.4,43.3c0.9,0,1.6,0.7,1.6,1.6v7.6l7.4-8.6c0.3-0.4,0.7-0.5,1.2-0.5h29.8c1.8,0,3.1-1.4,3.1-3.1V6.2c0-1.8-1.4-3.1-3.1-3.1H21.8
	c-1.8,0-3.1,1.4-3.1,3.1v33.8c0,1.8,1.4,3.1,3.1,3.1L25.4,43.3L25.4,43.3z M28.1,24.9c-0.3-0.3-0.4-0.7-0.4-1.1
	c0-0.4,0.2-0.8,0.4-1.1l5.5-5.4c0.6-0.6,1.6-0.6,2.2,0l4.2,4.2l11.5-11.4c0.6-0.6,1.6-0.6,2.2,0l5.4,5.5c0.3,0.3,0.4,0.7,0.4,1.1
	c0,0.4-0.2,0.8-0.4,1.1L41,35.6c-0.3,0.3-0.7,0.4-1.1,0.4l0,0c-0.4,0-0.8-0.2-1.1-0.4L28.1,24.9z M31.4,23.7l8.6,8.6l15.9-15.8
	l-3.3-3.2L41,24.7c-0.6,0.6-1.6,0.6-2.2,0l-4.1-4.2L31.4,23.7z"/>
</svg>
