<?xml version="1.0" encoding="utf-8"?>
<!-- Generator: Adobe Illustrator 21.0.2, SVG Export Plug-In . SVG Version: 6.00 Build 0)  -->
<svg version="1.1" id="Layer_1" xmlns="http://www.w3.org/2000/svg" xmlns:xlink="http://www.w3.org/1999/xlink" x="0px" y="0px"
	 viewBox="0 0 90 81" enable-background="new 0 0 90 81" xml:space="preserve">
<path d="M87.7,70.7c0.2,1.2-1.6,2.4-3.9,2.7l-62.5,6.9c-2.3,0.3-4.4,0.2-4.6-0.2c-0.2-0.4,1.5-1,3.8-1.4l62.6-9.5
	C85.5,68.8,87.5,69.5,87.7,70.7z"/>
<path d="M15.2,73.9c-0.5,0-0.9-0.1-1.3-0.3c-0.5-0.2-0.7-0.6-0.8-0.9l-12.3-62C0.6,10,1.4,9.3,2.6,9.1c0.2,0,19.1-2,36-4.1
	c14.2-1.8,28.9-4,29.1-4.1c0.6-0.1,1.2,0,1.6,0.2c0.5,0.2,0.8,0.5,0.9,0.9l18.4,61.3c0.2,0.7-0.5,1.5-1.6,1.6
	c-0.2,0-17.3,2.9-30.8,4.5c-20.2,2.5-40.6,4.3-40.8,4.3C15.4,73.9,15.3,73.9,15.2,73.9z M3.9,10.3l12.2,62.1c6-0.6,23.1-2.2,40-4.3
	c11.1-1.4,24.6-3.5,29.7-4.3L67.5,2.9c-4.8,0.7-16.7,2.5-28.2,3.9C25.1,8.6,9.5,9.7,3.9,10.3z"/>
<path d="M12.8,20.2c-0.6,0-1.2-0.5-1.2-1.1c-0.1-0.7,0.4-1.3,1.1-1.4L62,11c0.7-0.1,1.3,0.4,1.4,1.1c0.1,0.7-0.4,1.3-1.1,1.4
	L13,20.2C12.9,20.2,12.9,20.2,12.8,20.2z"/>
<path d="M15,29.5c-0.6,0-1.1-0.5-1.2-1.1c-0.1-0.7,0.4-1.3,1.1-1.4l31.3-4.4c0.7-0.1,1.3,0.4,1.4,1.1c0.1,0.7-0.4,1.3-1.1,1.4
	l-31.3,4.4C15.1,29.4,15.1,29.5,15,29.5z"/>
</svg>
