<svg version="1.1" xmlns="http://www.w3.org/2000/svg" xmlns:xlink="http://www.w3.org/1999/xlink" viewBox="0 0 90 84.2" enable-background="new 0 0 90 84.2" xml:space="preserve">
<path d="M88.3,9.5c-0.2-0.2-0.5-0.3-0.8-0.2l-0.8,0.2V5.7c0-0.3-0.1-0.6-0.4-0.8c-0.3-0.2-0.6-0.2-0.9-0.1l-1.6,0.5V2
	c0-0.3-0.2-0.6-0.5-0.8s-0.7-0.2-1-0.1L45.7,18.5L45,18.8l-0.4-0.1L7.9,1.1c-0.3-0.1-0.7-0.1-1,0.1C6.5,1.3,6.3,1.7,6.3,2v3.5
	L4.7,4.8C4.3,4.7,4,4.7,3.7,4.9C3.5,5.1,3.3,5.5,3.3,5.8v3.7L2.5,9.2c-0.3-0.1-0.6,0-0.8,0.2C1.3,9.6,1.2,10,1.2,10.3v62.2
	c0,0.5,0.3,0.9,0.8,1l42.7,9.7c0.1,0,0.1,0,0.2,0s0.1,0,0.2,0l42.7-9.6c0.5-0.1,0.8-0.5,0.8-1V10.4C88.8,10.1,88.5,9.7,88.3,9.5z
	 M84.6,10l-22.6,5.1l20.6-7.2h0.1c0.3,0,0.6-0.1,0.8-0.3l1-0.4C84.6,7.1,84.6,10,84.6,10z M81.6,3.7V6l-18.1,6.4L81.6,3.7z
	 M8.4,3.7l19,9.1l-19-6.7V3.7z M5.4,7.2L7,7.8c0,0,0,0,0.1,0l19.8,6.9L5.5,9.8V7.2H5.4z M3.3,11.6l40.6,9.2V81L3.3,71.7
	C3.3,71.7,3.3,11.6,3.3,11.6z M86.7,71.7L46,81V20.8l40.6-9.2V71.7z"/>
<path d="M51.7,74.6c0.1,0,0.2,0,0.2,0l29.8-6.8c0.5-0.1,0.8-0.5,0.8-1v-7.5c0-0.3-0.2-0.6-0.4-0.8c-0.2-0.2-0.5-0.3-0.8-0.2
	l-29.8,6.8c-0.5,0.1-0.8,0.5-0.8,1v7.5c0,0.3,0.2,0.6,0.4,0.8C51.3,74.5,51.5,74.6,51.7,74.6z M52.7,66.8l27.8-6.4v5.3l-27.8,6.4
	V66.8z"/>
<path d="M34.2,33.1L9.4,27.4c-0.3,0-0.6,0-0.8,0.2c-0.3,0.2-0.4,0.5-0.4,0.8v38.2c0,0.5,0.3,0.9,0.8,1l24.8,5.7c0.1,0,0.1,0,0.2,0
	c0.2,0,0.4-0.1,0.6-0.2c0.3-0.2,0.4-0.5,0.4-0.8V34.1C35,33.6,34.7,33.2,34.2,33.1z M32.8,71.1L10.1,66V29.9L32.8,35V71.1z"/>
<path display="none" d="M80.3,68.3v-27c0-0.2-0.1-0.4-0.4-0.6c-0.2-0.1-0.4-0.1-0.6-0.1c-0.1,0-0.1,0-0.2,0l-24.8,4
	c-0.5,0.1-0.8,0.4-0.8,0.7v27c0,0.2,0.1,0.4,0.4,0.6C54,73,54.3,73,54.7,73l24.8-4C80,68.9,80.3,68.6,80.3,68.3z M78.1,67.7
	l-22.7,3.6V45.8l22.7-3.6V67.7z"/>
<path d="M8.8,24.3l12,2.7c0.1,0,0.1,0,0.2,0c0.4,0,0.9-0.3,0.9-0.8c0.1-0.5-0.3-1.2-0.8-1.3L9.3,22.2C8.7,22.1,8.1,22.5,8,23
	C7.9,23.6,8.3,24.2,8.8,24.3z"/>
<path display="none" d="M55.6,46.5L55.6,46.5C54.4,40.9,58,35.3,64,34c6-1.3,11.5,2.1,12.8,7.7l0,0c1.2,5.6-2.4,11.2-8.4,12.5
	C62.4,55.6,56.9,52.2,55.6,46.5z M70.3,43.3L70.3,43.3c-0.5-2.3-2.6-4.1-5.1-3.5c-2.5,0.5-3.6,2.9-3.1,5.2l0,0
	c0.5,2.3,2.6,4,5,3.5C69.7,48,70.8,45.5,70.3,43.3z"/>
<path d="M59.7,24.3l2.5-0.6l1.5,2.3l1.5-2.9l2.5-0.6l-0.1,7.4l-2.4,0.5l0-3.7l-1.7,3l0,0L62,27.5l0,3.7l-2.3,0.5L59.7,24.3z
	 M74.7,20.9l2.7-0.6c2.8-0.6,4.2,0.5,4.2,2.7l0,0c0,2.2-1.5,4.1-4.3,4.7l-2.6,0.6L74.7,20.9L74.7,20.9z M77.4,25.5
	c1.1-0.2,1.8-0.9,1.8-1.9l0,0c0-1.1-0.7-1.4-1.8-1.1L77,22.5l0,3.1L77.4,25.5z M51.6,29.8L51.6,29.8c0-2.2,1.7-4.3,3.9-4.8
	c2.2-0.5,3.8,0.8,3.8,3l0,0c0,2.2-1.7,4.3-3.9,4.8C53.2,33.2,51.6,31.9,51.6,29.8 M56.9,28.6L56.9,28.6c0-0.9-0.6-1.6-1.5-1.4
	s-1.5,1.1-1.5,2l0,0c0,0.9,0.6,1.5,1.5,1.3S56.9,29.4,56.9,28.6 M74.2,23l0-2l-6,1.4l-0.1,7.4l6-1.4l0-2l-4.1,0.9l0-0.8l3.5-0.8
	l0-1.8l-3.5,0.8l0-0.8L74.2,23z"/>
</svg>
