<?xml version="1.0" encoding="utf-8"?>
<!-- Generator: Adobe Illustrator 20.1.0, SVG Export Plug-In . SVG Version: 6.00 Build 0)  -->
<svg version="1.1" id="Layer_1" xmlns="http://www.w3.org/2000/svg" xmlns:xlink="http://www.w3.org/1999/xlink" x="0px" y="0px"
	 width="142.8px" height="30.5px" viewBox="0 0 142.8 30.5" enable-background="new 0 0 142.8 30.5" xml:space="preserve">
<g id="omedLogo2Logo">
	<g>
		<g>
			<polygon fill="#FFFFFF" points="28.5,3.8 36.6,3.8 41.6,11.9 46.6,3.8 54.7,3.8 54.7,27.1 46.9,27.1 46.9,15.5 41.6,23.8 
				41.5,23.8 36.1,15.5 36.1,27.1 28.5,27.1 			"/>
			<g>
				<path fill="#FFFFFF" d="M77.7,3.8h8.9c9.3,0,13.9,4.5,13.9,11.5v0.1c0,6.9-4.7,11.8-14.2,11.8h-8.7L77.7,3.8L77.7,3.8z
					 M86.8,20.3c3.6,0,5.9-1.5,5.9-4.8v-0.1c0-3.4-2.3-4.8-5.9-4.8h-1.3v9.7H86.8z"/>
				<path fill="#FFFFFF" d="M1.8,15.2L1.8,15.2C1.8,8.4,7.4,3,14.6,3C21.8,3,27.3,8.3,27.3,15v0.1c0,6.8-5.5,12.2-12.8,12.2
					S1.8,22,1.8,15.2 M19.4,15.2L19.4,15.2c0-2.8-1.9-5.3-4.9-5.3s-4.8,2.4-4.8,5.2v0.1c0,2.7,1.9,5.2,4.9,5.2
					C17.5,20.4,19.4,17.9,19.4,15.2"/>
			</g>
			<polygon fill="#FFFFFF" points="76.2,10.1 76.2,3.8 56.4,3.8 56.4,27.1 76.2,27.1 76.2,20.7 62.8,20.7 62.8,18.2 74.2,18.2 
				74.2,12.5 62.8,12.5 62.8,10.1 			"/>
			<g>
				<path fill="#FFFFFF" d="M104.1,2.7c0.3,0.1,0.6,0.3,0.8,0.5c0.2,0.2,0.4,0.5,0.5,0.8c0.1,0.3,0.2,0.6,0.2,1c0,0.3-0.1,0.7-0.2,1
					c-0.1,0.3-0.3,0.6-0.5,0.8c-0.2,0.2-0.5,0.4-0.8,0.5c-0.3,0.1-0.6,0.2-1,0.2c-0.3,0-0.7-0.1-1-0.2s-0.6-0.3-0.8-0.5
					c-0.2-0.2-0.4-0.5-0.5-0.8c-0.1-0.3-0.2-0.6-0.2-1s0.1-0.7,0.2-1c0.1-0.3,0.3-0.6,0.5-0.8c0.2-0.2,0.5-0.4,0.8-0.5
					s0.6-0.2,1-0.2C103.5,2.5,103.8,2.6,104.1,2.7 M102.3,3c-0.3,0.1-0.5,0.3-0.7,0.5c-0.2,0.2-0.3,0.4-0.5,0.7s-0.2,0.6-0.2,0.9
					s0.1,0.6,0.2,0.9s0.2,0.5,0.5,0.7c0.2,0.2,0.4,0.3,0.7,0.5c0.3,0.1,0.5,0.2,0.9,0.2c0.3,0,0.6-0.1,0.9-0.2
					c0.3-0.1,0.5-0.3,0.7-0.5c0.2-0.2,0.3-0.4,0.5-0.7c0.1-0.3,0.2-0.6,0.2-0.9s-0.1-0.6-0.2-0.9c-0.1-0.3-0.3-0.5-0.5-0.7
					c-0.2-0.2-0.4-0.3-0.7-0.5c-0.3-0.1-0.5-0.2-0.9-0.2C102.8,2.8,102.6,2.9,102.3,3 M102.2,6.6v-3h1.2c0.3,0,0.6,0.1,0.8,0.2
					c0.2,0.1,0.2,0.3,0.2,0.6c0,0.1,0,0.2-0.1,0.3c-0.1,0.1-0.1,0.2-0.2,0.2s-0.2,0.1-0.2,0.2c-0.1,0.1-0.2,0.1-0.3,0.1l0.9,1.3
					h-0.4l-0.8-1.3h-0.7v1.3H102.2z M103.4,4.9c0.1,0,0.2,0,0.3-0.1c0.1-0.1,0.2-0.1,0.2-0.2c0.1-0.1,0.1-0.2,0.1-0.3
					c0-0.1,0-0.2-0.1-0.2c-0.1-0.1-0.1-0.1-0.2-0.2s-0.1-0.1-0.2-0.1c-0.1,0-0.2,0-0.3,0h-0.6v1h0.5C103.1,4.9,103.3,4.9,103.4,4.9"
					/>
			</g>
			<polygon fill="#FFFFFF" points="114.4,9.8 110.5,10.7 109.4,5.8 116.1,3.8 120.7,3.8 120.7,27 114.4,27 			"/>
		</g>
		<g>
			<path fill="#FFFFFF" d="M132.6,10.2h-10.5V3.9H141v5.8L131,27h-8.4L132.6,10.2z"/>
		</g>
	</g>
</g>
</svg>
