<?xml version="1.0" encoding="utf-8"?>
<!-- Generator: Adobe Illustrator 20.1.0, SVG Export Plug-In . SVG Version: 6.00 Build 0)  -->
<svg version="1.1" id="Layer_1" xmlns="http://www.w3.org/2000/svg" xmlns:xlink="http://www.w3.org/1999/xlink" x="0px" y="0px"
	 viewBox="0 0 247.3 46.3" style="enable-background:new 0 0 247.3 46.3;" xml:space="preserve">
<g id="omedLogoAlone">
	<path d="M50.5,3.5h13.9l8.6,14l8.6-14h13.9v40H82.2V23.6L73,37.9h-0.2l-9.2-14.3v19.9H50.5V3.5z M135.1,3.5h15.3
		c15.9,0,23.8,7.8,23.8,19.7v0.1c0,11.8-8.1,20.2-24.3,20.2H135v-40H135.1z M150.7,31.8c6.1,0,10.1-2.5,10.1-8.3v-0.1
		c0-5.8-3.9-8.3-10.1-8.3h-2.2v16.7H150.7z M4.7,23.1V23c0-11.6,9.5-20.9,21.9-20.9c12.3,0,21.8,9.1,21.8,20.7v0.1
		c0,11.6-9.5,20.9-21.9,20.9S4.7,34.7,4.7,23.1 M34.9,23.1V23c0-4.7-3.3-9-8.4-9s-8.3,4.2-8.3,8.9V23c0,4.7,3.3,9,8.4,9
		S34.9,27.7,34.9,23.1 M132.5,14.4V3.5H98.4v40h34.1v-11h-23.1v-4.4h19.7v-9.6h-19.7v-4.1H132.5z M180.4,1.6c0.5,0.2,1,0.5,1.4,0.9
		s0.7,0.9,0.9,1.4S183,5,183,5.6s-0.1,1.2-0.3,1.7s-0.5,1-0.9,1.4s-0.9,0.7-1.4,0.9s-1.1,0.3-1.7,0.3c-0.6,0-1.2-0.1-1.7-0.3
		s-1-0.5-1.4-0.9s-0.7-0.9-0.9-1.4s-0.3-1.1-0.3-1.7s0.1-1.2,0.3-1.7s0.5-1,0.9-1.4s0.9-0.7,1.4-0.9s1.1-0.3,1.7-0.3
		C179.3,1.3,179.9,1.4,180.4,1.6 M177.2,2.2c-0.5,0.2-0.9,0.5-1.2,0.8s-0.6,0.7-0.8,1.2s-0.3,1-0.3,1.5s0.1,1,0.3,1.5
		s0.4,0.9,0.8,1.2c0.3,0.3,0.7,0.6,1.2,0.8s0.9,0.3,1.5,0.3c0.5,0,1-0.1,1.5-0.3s0.9-0.5,1.2-0.8s0.6-0.7,0.8-1.2s0.3-1,0.3-1.5
		s-0.1-1-0.3-1.5s-0.5-0.9-0.8-1.2s-0.7-0.6-1.2-0.8s-0.9-0.3-1.5-0.3C178.2,1.9,177.7,2,177.2,2.2 M177.1,8.2V3.1h2
		c0.6,0,1,0.1,1.3,0.4c0.3,0.2,0.4,0.6,0.4,1c0,0.2,0,0.4-0.1,0.6s-0.2,0.3-0.3,0.4s-0.3,0.2-0.4,0.3c-0.2,0.1-0.3,0.1-0.5,0.1
		l1.5,2.3h-0.7L178.8,6h-1.1v2.3h-0.6L177.1,8.2L177.1,8.2z M179.1,5.4c0.2,0,0.4,0,0.5-0.1s0.3-0.1,0.3-0.3
		c0.1-0.1,0.1-0.3,0.1-0.5s0-0.3-0.1-0.4l-0.3-0.3c-0.1-0.1-0.2-0.1-0.4-0.1h-1.7v1.8h0.8C178.7,5.4,178.9,5.4,179.1,5.4
		 M198.1,13.8l-6.7,1.5l-2-8.4l11.5-3.3h7.9v39.6h-10.7V13.8z"/>
</g>
<g>
	<path d="M229.3,12.8H211V3.6h30.5v8.3L224,43.2h-12.1L229.3,12.8z"/>
</g>
</svg>
