<?xml version="1.0" encoding="utf-8"?>
<!-- Generator: Adobe Illustrator 20.1.0, SVG Export Plug-In . SVG Version: 6.00 Build 0)  -->
<svg version="1.1" id="Layer_1" xmlns="http://www.w3.org/2000/svg" xmlns:xlink="http://www.w3.org/1999/xlink" x="0px" y="0px"
	 width="246.7px" height="78px" viewBox="0 0 246.7 78" enable-background="new 0 0 246.7 78" xml:space="preserve">
<g id="omedLogo2Logo">
	<g>
		<g>
			<polygon fill="#FA4132" points="49.8,3.7 63.7,3.7 72.3,17.7 80.9,3.7 94.8,3.7 94.8,43.7 81.5,43.7 81.5,23.8 72.3,38.1 
				72.1,38.1 62.9,23.8 62.9,43.7 49.8,43.7 			"/>
			<g>
				<path fill="#FA4132" d="M134.4,3.7h15.3c15.9,0,23.8,7.8,23.8,19.7v0.1c0,11.8-8.1,20.2-24.3,20.2h-14.9L134.4,3.7L134.4,3.7z
					 M150,32c6.1,0,10.1-2.5,10.1-8.3v-0.1c0-5.8-3.9-8.3-10.1-8.3h-2.2V32H150z"/>
				<path fill="#FA4132" d="M4.1,23.3v-0.1C4.1,11.6,13.6,2.3,26,2.3c12.3,0,21.8,9.1,21.8,20.7v0.1c0,11.6-9.5,20.9-21.9,20.9
					S4.1,34.9,4.1,23.3 M34.2,23.3v-0.1c0-4.7-3.3-9-8.4-9s-8.3,4.2-8.3,8.9v0.1c0,4.7,3.3,9,8.4,9C31,32.2,34.2,28,34.2,23.3"/>
			</g>
			<polygon fill="#FA4132" points="131.8,14.6 131.8,3.7 97.7,3.7 97.7,43.7 131.8,43.7 131.8,32.7 108.7,32.7 108.7,28.4 
				128.4,28.4 128.4,18.7 108.7,18.7 108.7,14.6 			"/>
			<g>
				<path fill="#FA4132" d="M179.7,1.8c0.5,0.2,1,0.5,1.4,0.9s0.7,0.9,0.9,1.4s0.3,1.1,0.3,1.7S182.2,7,182,7.5s-0.5,1-0.9,1.4
					s-0.9,0.7-1.4,0.9s-1.1,0.3-1.7,0.3c-0.6,0-1.2-0.1-1.7-0.3s-1-0.5-1.4-0.9S174.2,8,174,7.5s-0.3-1.1-0.3-1.7s0.1-1.2,0.3-1.7
					s0.5-1,0.9-1.4s0.9-0.7,1.4-0.9s1.1-0.3,1.7-0.3C178.6,1.5,179.2,1.6,179.7,1.8 M176.5,2.4c-0.5,0.2-0.9,0.5-1.2,0.8
					s-0.6,0.7-0.8,1.2s-0.3,1-0.3,1.5s0.1,1,0.3,1.5s0.4,0.9,0.8,1.2c0.3,0.3,0.7,0.6,1.2,0.8s0.9,0.3,1.5,0.3c0.5,0,1-0.1,1.5-0.3
					s0.9-0.5,1.2-0.8s0.6-0.7,0.8-1.2s0.3-1,0.3-1.5s-0.1-1-0.3-1.5s-0.5-0.9-0.8-1.2s-0.7-0.6-1.2-0.8c-0.5-0.2-0.9-0.3-1.5-0.3
					C177.5,2.1,177,2.2,176.5,2.4 M176.4,8.5V3.4h2c0.6,0,1,0.1,1.3,0.4c0.3,0.2,0.4,0.6,0.4,1c0,0.2,0,0.4-0.1,0.6
					s-0.2,0.3-0.3,0.4s-0.3,0.2-0.4,0.3c-0.2,0.1-0.3,0.1-0.5,0.1l1.5,2.3h-0.7l-1.4-2.3H177v2.3H176.4z M178.4,5.6
					c0.2,0,0.4,0,0.5-0.1s0.3-0.1,0.3-0.3c0.1-0.1,0.1-0.3,0.1-0.5s0-0.3-0.1-0.4S179,4.1,178.9,4c-0.1-0.1-0.2-0.1-0.4-0.1
					c-0.1,0-0.3,0-0.5,0h-1v1.8h0.8C178,5.7,178.2,5.7,178.4,5.6"/>
			</g>
			<polygon fill="#FA4132" points="197.4,14 190.7,15.5 188.7,7.1 200.2,3.8 208.1,3.8 208.1,43.5 197.4,43.5 			"/>
		</g>
		<g>
			<path fill="#FA4132" d="M228.6,14.8h-18.1V3.9H243v10l-17.2,29.7h-14.4L228.6,14.8z"/>
		</g>
	</g>
</g>
<g>
	<g>
		<path fill="#414142" d="M3.3,70.9L3.3,70.9c0-2.5,1.9-4.7,4.7-4.7s4.6,2.2,4.6,4.7l0,0c0,2.5-1.9,4.7-4.7,4.7S3.3,73.4,3.3,70.9z
			 M11.5,70.9L11.5,70.9c0-2.1-1.5-3.8-3.6-3.8s-3.6,1.7-3.6,3.7l0,0c0,2.1,1.5,3.8,3.6,3.8S11.5,72.9,11.5,70.9z"/>
		<path fill="#414142" d="M14.6,70.9L14.6,70.9c0-2.6,1.9-4.7,4.6-4.7c1.7,0,2.6,0.6,3.5,1.4L22,68.3c-0.8-0.7-1.6-1.2-2.9-1.2
			c-2,0-3.5,1.6-3.5,3.7l0,0c0,2.1,1.5,3.8,3.5,3.8c1.2,0,2.1-0.5,2.9-1.3l0.7,0.7c-0.9,1-2,1.6-3.6,1.6
			C16.5,75.5,14.6,73.5,14.6,70.9z"/>
		<path fill="#414142" d="M27.3,67.2h-3.1v-0.9h7.1v0.9h-3.1v8.2h-1v-8.2H27.3z"/>
		<path fill="#414142" d="M32.5,70.9L32.5,70.9c0-2.5,1.9-4.7,4.7-4.7s4.6,2.2,4.6,4.7l0,0c0,2.5-1.9,4.7-4.7,4.7
			S32.5,73.4,32.5,70.9z M40.7,70.9L40.7,70.9c0-2.1-1.5-3.8-3.6-3.8s-3.6,1.7-3.6,3.7l0,0c0,2.1,1.5,3.8,3.6,3.8
			S40.7,72.9,40.7,70.9z"/>
		<path fill="#414142" d="M44.2,66.3h3.9c1,0,1.9,0.3,2.4,0.8c0.4,0.4,0.6,0.9,0.6,1.5l0,0c0,1.2-0.7,1.8-1.4,2.1
			c1.1,0.3,2,0.9,2,2.2l0,0c0,1.6-1.3,2.5-3.3,2.5h-4v-9.1H44.2z M50,68.7c0-0.9-0.7-1.5-2-1.5h-2.8v3.1h2.7
			C49.2,70.3,50,69.8,50,68.7L50,68.7z M48.1,71.2h-2.9v3.2h3.1c1.4,0,2.2-0.6,2.2-1.6l0,0C50.5,71.8,49.7,71.2,48.1,71.2z"/>
		<path fill="#414142" d="M53.9,66.3h6.6v0.9h-5.6v3.1h5v0.9h-5v3.2h5.6v0.9h-6.6V66.3z"/>
		<path fill="#414142" d="M62.8,66.3h3.9c1.1,0,2,0.3,2.6,0.9c0.4,0.4,0.7,1.1,0.7,1.8l0,0c0,1.5-1,2.4-2.5,2.7l2.8,3.7H69l-2.6-3.5
			h-2.6v3.5h-1C62.8,75.4,62.8,66.3,62.8,66.3z M66.7,70.9c1.4,0,2.3-0.7,2.3-1.9l0,0c0-1.1-0.9-1.8-2.3-1.8h-2.8v3.7
			C63.9,70.9,66.7,70.9,66.7,70.9z"/>
		<path fill="#414142" d="M81.3,67.2h-5v-0.9h6.2v0.8l-4.1,8.3h-1.1L81.3,67.2z"/>
		<path fill="#414142" d="M83.8,71H89v1h-5.2V71z"/>
		<path fill="#414142" d="M92.1,67.3l-1.7,0.5L90.1,67l2.2-0.8h0.8v9.2h-1V67.3z"/>
		<path fill="#414142" d="M95.4,70.9L95.4,70.9c0-2.6,1.5-4.7,3.9-4.7c2.3,0,3.8,2.1,3.8,4.7l0,0c0,2.5-1.5,4.7-3.8,4.7
			C96.9,75.5,95.4,73.4,95.4,70.9z M102.1,70.9L102.1,70.9c0-2-1.1-3.8-2.8-3.8c-1.7,0-2.8,1.7-2.8,3.7l0,0c0,2,1.1,3.8,2.8,3.8
			S102.1,72.8,102.1,70.9z"/>
	</g>
	<g>
		<g>
			<path fill="#414142" d="M118.2,66.3h3.4c2,0,3.4,1.1,3.4,2.9l0,0c0,2-1.6,3-3.6,3h-2.2v3.2h-1C118.2,75.4,118.2,66.3,118.2,66.3z
				 M121.5,71.2c1.5,0,2.5-0.8,2.5-2l0,0c0-1.3-1-2-2.4-2h-2.3v4H121.5z"/>
			<path fill="#414142" d="M127.1,66.3h1v4h5.2v-4h1v9.1h-1v-4.1h-5.2v4.1h-1C127.1,75.4,127.1,66.3,127.1,66.3z"/>
			<path fill="#414142" d="M137.3,66.3h1v9.1h-1V66.3z"/>
			<path fill="#414142" d="M141.2,66.3h1v8.1h5.1v0.9h-6.1V66.3z"/>
			<path fill="#414142" d="M152.8,66.2h1l4.1,9.1h-1.1l-1.1-2.4h-4.9l-1.1,2.4h-1L152.8,66.2z M155.4,72l-2.1-4.6l-2.1,4.6H155.4z"
				/>
			<path fill="#414142" d="M160,66.3h3.1c2.8,0,4.8,2,4.8,4.5l0,0c0,2.5-2,4.5-4.8,4.5H160V66.3z M163.1,74.4c2.3,0,3.8-1.6,3.8-3.6
				l0,0c0-2-1.5-3.6-3.8-3.6H161v7.2H163.1z"/>
			<path fill="#414142" d="M170.3,66.3h6.5v0.9h-5.5v3.1h4.9v0.9h-4.9v3.2h5.6v0.9h-6.6V66.3z"/>
			<path fill="#414142" d="M179.3,66.3h1v8.1h5.1v0.9h-6.1V66.3z"/>
			<path fill="#414142" d="M187.5,66.3h3.4c2,0,3.4,1.1,3.4,2.9l0,0c0,2-1.6,3-3.6,3h-2.2v3.2h-1L187.5,66.3L187.5,66.3z
				 M190.8,71.2c1.5,0,2.5-0.8,2.5-2l0,0c0-1.3-1-2-2.4-2h-2.3v4H190.8z"/>
			<path fill="#414142" d="M196.4,66.3h1v4h5.2v-4h1v9.1h-1v-4.1h-5.2v4.1h-1V66.3z"/>
			<path fill="#414142" d="M206.6,66.3h1v9.1h-1V66.3z"/>
			<path fill="#414142" d="M213.9,66.2h1l4.1,9.1h-1.1l-1.1-2.4h-4.9l-1.1,2.4h-1L213.9,66.2z M216.4,72l-2.1-4.6l-2.1,4.6H216.4z"
				/>
			<path fill="#414142" d="M220.3,76.5c0.6-0.2,0.9-0.6,0.9-1.1h-0.5V74h1.2v1.2c0,1-0.5,1.6-1.4,1.8L220.3,76.5z"/>
			<path fill="#414142" d="M228.6,66.3h3.4c2,0,3.4,1.1,3.4,2.9l0,0c0,2-1.6,3-3.6,3h-2.2v3.2h-1L228.6,66.3L228.6,66.3z
				 M231.8,71.2c1.5,0,2.5-0.8,2.5-2l0,0c0-1.3-1-2-2.4-2h-2.3v4H231.8z"/>
			<path fill="#414142" d="M239.9,66.2h1l4.1,9.1h-1.1l-1.1-2.4h-4.9l-1.1,2.4h-1L239.9,66.2z M242.4,72l-2.1-4.6l-2.1,4.6H242.4z"
				/>
		</g>
		<rect x="108.6" y="64.8" fill="#414142" width="0.8" height="12"/>
	</g>
</g>
</svg>
