<svg version="1.1" id="Layer_1" xmlns="http://www.w3.org/2000/svg" xmlns:xlink="http://www.w3.org/1999/xlink" preserveAspectRatio="xMidYMid meet"
	 viewBox="0 0 248 141">
<style type="text/css">
	.st0{fill:#00B0B9;}
	.st1{fill:#414042;}
	.st2{fill:#58595B;}
	.st3{fill:#404041;}
	.st4{fill:#BBBDBF;}
</style>
<g id="omedLogo2Logo">
	<g>
		<polygon class="st0" points="47.8,3.5 61.7,3.5 70.3,17.6 78.8,3.5 92.8,3.5 92.8,43.5 79.5,43.5 79.5,23.7 70.3,37.9 70,37.9 
			60.8,23.7 60.8,43.5 47.8,43.5 		"/>
		<g>
			<path class="st0" d="M132.4,3.5h15.3c15.9,0,23.8,7.8,23.8,19.7v0.1c0,11.8-8.1,20.2-24.3,20.2h-14.9V3.5z M148,31.9
				c6.1,0,10.1-2.5,10.1-8.3v-0.1c0-5.8-3.9-8.3-10.1-8.3h-2.2v16.7H148z"/>
			<path class="st0" d="M2,23.1V23C2,11.4,11.5,2.1,23.9,2.1c12.3,0,21.8,9.1,21.8,20.7V23c0,11.6-9.5,20.9-21.9,20.9S2,34.7,2,23.1
				 M32.2,23.1V23c0-4.7-3.3-9-8.4-9c-5.1,0-8.3,4.2-8.3,8.9V23c0,4.7,3.3,9,8.4,9C29,32,32.2,27.8,32.2,23.1"/>
		</g>
		<polygon class="st0" points="129.7,14.5 129.7,3.5 95.6,3.5 95.6,43.5 129.7,43.5 129.7,32.5 106.6,32.5 106.6,28.2 126.3,28.2 
			126.3,18.5 106.6,18.5 106.6,14.5 		"/>
		<g>
			<path class="st0" d="M177.7,1.7c0.5,0.2,1,0.5,1.4,0.9c0.4,0.4,0.7,0.9,0.9,1.4c0.2,0.5,0.3,1.1,0.3,1.7c0,0.6-0.1,1.2-0.3,1.7
				c-0.2,0.5-0.5,1-0.9,1.4c-0.4,0.4-0.9,0.7-1.4,0.9c-0.5,0.2-1.1,0.3-1.7,0.3c-0.6,0-1.2-0.1-1.7-0.3c-0.5-0.2-1-0.5-1.4-0.9
				c-0.4-0.4-0.7-0.9-0.9-1.4c-0.2-0.5-0.3-1.1-0.3-1.7c0-0.6,0.1-1.2,0.3-1.7c0.2-0.5,0.5-1,0.9-1.4c0.4-0.4,0.9-0.7,1.4-0.9
				c0.5-0.2,1.1-0.3,1.7-0.3C176.6,1.3,177.2,1.4,177.7,1.7 M174.5,2.3c-0.5,0.2-0.9,0.5-1.2,0.8c-0.3,0.3-0.6,0.7-0.8,1.2
				c-0.2,0.5-0.3,1-0.3,1.5c0,0.5,0.1,1,0.3,1.5c0.2,0.5,0.4,0.9,0.8,1.2c0.3,0.3,0.7,0.6,1.2,0.8c0.5,0.2,0.9,0.3,1.5,0.3
				c0.5,0,1-0.1,1.5-0.3c0.5-0.2,0.9-0.5,1.2-0.8c0.3-0.3,0.6-0.7,0.8-1.2c0.2-0.5,0.3-1,0.3-1.5c0-0.5-0.1-1-0.3-1.5
				c-0.2-0.5-0.5-0.9-0.8-1.2c-0.3-0.3-0.7-0.6-1.2-0.8S176.5,2,175.9,2C175.4,2,174.9,2.1,174.5,2.3 M174.3,8.3V3.2h2
				c0.6,0,1,0.1,1.3,0.4c0.3,0.2,0.4,0.6,0.4,1c0,0.2,0,0.4-0.1,0.6c-0.1,0.2-0.2,0.3-0.3,0.4c-0.1,0.1-0.3,0.2-0.4,0.3
				C177,6,176.9,6,176.7,6l1.5,2.3h-0.7L176,6H175v2.3H174.3z M176.4,5.5c0.2,0,0.4,0,0.5-0.1c0.1-0.1,0.3-0.1,0.3-0.3
				c0.1-0.1,0.1-0.3,0.1-0.5c0-0.2,0-0.3-0.1-0.4c-0.1-0.1-0.2-0.2-0.3-0.3c-0.1-0.1-0.2-0.1-0.4-0.1c-0.1,0-0.3,0-0.5,0H175v1.8
				h0.8C176,5.5,176.2,5.5,176.4,5.5"/>
		</g>
		<polygon class="st0" points="195.3,13.8 188.7,15.4 186.6,6.9 198.1,3.7 206.1,3.7 206.1,43.3 195.3,43.3 		"/>
	</g>
	<g>
		<path class="st0" d="M215.6,39.5c-3-3-4.9-7.5-4.9-15v-0.1c0-12.5,6.1-22.1,18.7-22.1c5.6,0,9.5,1.6,13.4,4.4l-5.2,7.9
			c-2.5-1.8-4.8-3-8-3c-4.7,0-7.1,3.5-7.6,8.6c2.1-1.6,4.7-3.1,8.7-3.1c7.1,0,13.3,4.5,13.3,12.5v0.1c0,9-7.2,14.5-16,14.5
			C222.2,44.1,218.5,42.3,215.6,39.5z M233,30.2v-0.1c0-2.9-2.2-5.2-5.7-5.2c-3.5,0-5.6,2.2-5.6,5.1v0.1c0,2.9,2.2,5.2,5.7,5.2
			S233,33.1,233,30.2z"/>
	</g>
</g>
<g id="omedLogo2Tagline">
	<path class="st1" d="M6.6,65.8h6c2.4,0,4.1,0.5,5.2,1.6c0.8,0.8,1.3,2,1.3,3.3c0,1.6-0.5,2.9-1.5,3.9c-0.9,0.9-2.2,1.6-3.8,2
		l2.8,5.6h-4.1l-2.5-5.2H7.2l-1.4,5.2H2.2L6.6,65.8z M11.3,73.7c1.4,0,2.6-0.4,3.3-1.1c0.4-0.4,0.7-1,0.7-1.7c0-0.6-0.2-1-0.5-1.3
		c-0.4-0.4-1.2-0.7-2.4-0.7h-3l-1.3,4.7H11.3z"/>
	<path class="st1" d="M23.2,77.1c0.1,1.5,1,2.5,2.9,2.5c0.9,0,1.8-0.3,2.8-1l1.6,2.2c-1.1,0.9-2.7,1.7-4.8,1.7
		c-3.6,0-5.8-2.1-5.8-5.6c0-3.6,2.9-7.5,7.4-7.5c3.2,0,5.1,2.1,5.1,4.9c0,0.9-0.2,1.9-0.6,2.9H23.2z M23.5,74.9h5.4
		c0.1-0.2,0.1-0.5,0.1-0.8c0-1-0.6-1.8-2.1-1.8C25.4,72.2,24.1,73.3,23.5,74.9z"/>
	<path class="st1" d="M36.4,69.6h3.6l-0.4,1.3c0.9-0.8,2-1.5,3.4-1.5c2.2,0,3.7,1.4,3.7,3.6c0,0.7-0.2,1.6-0.4,2.4l-1.8,6.7h-3.6
		l1.8-6.9c0.1-0.4,0.2-0.8,0.2-1.1c0-1-0.6-1.5-1.7-1.5c-1.4,0-2.3,1-2.7,2.5l-1.9,7H33L36.4,69.6z"/>
	<path class="st1" d="M51.8,77.1c0.1,1.5,1,2.5,2.9,2.5c0.9,0,1.8-0.3,2.8-1l1.6,2.2c-1.1,0.9-2.7,1.7-4.8,1.7
		c-3.6,0-5.8-2.1-5.8-5.6c0-3.6,2.9-7.5,7.4-7.5c3.2,0,5.1,2.1,5.1,4.9c0,0.9-0.2,1.9-0.6,2.9H51.8z M52.2,74.9h5.4
		c0.1-0.2,0.1-0.5,0.1-0.8c0-1-0.6-1.8-2.1-1.8C54,72.2,52.7,73.3,52.2,74.9z"/>
	<path class="st1" d="M63.2,69.6h3.6l0,7.6l4.4-7.6h3.1l0.3,7.7l4.1-7.6h3.5l-7.3,12.6h-3.2l-0.4-7.7l-4.5,7.7h-3.2L63.2,69.6z"/>
	<path class="st2" d="M89.5,85.3l0.6-1.4c0.6,0.3,1.1,0.4,1.9,0.4c1.1,0,1.8-0.6,2.5-2.3l-5.5-12h2l4.4,10.1l3.9-10.1h1.9l-5.1,12.5
		c-1,2.5-2.2,3.4-4,3.4C91.1,85.9,90.3,85.7,89.5,85.3z"/>
	<path class="st2" d="M102.6,76.2L102.6,76.2c0-3.5,2.7-6.4,6.3-6.4c3.6,0,6.3,2.9,6.3,6.3v0c0,3.4-2.7,6.3-6.3,6.3
		C105.2,82.4,102.6,79.6,102.6,76.2z M113.3,76.2L113.3,76.2c0-2.6-1.9-4.8-4.5-4.8c-2.6,0-4.4,2.1-4.4,4.7v0c0,2.6,1.9,4.7,4.5,4.7
		C111.5,80.8,113.3,78.7,113.3,76.2z"/>
	<path class="st2" d="M118.2,77.6v-7.5h1.8v7.1c0,2.2,1.2,3.6,3.3,3.6c2.1,0,3.6-1.5,3.6-3.8v-6.9h1.8v12.1H127V80
		c-0.8,1.3-2.1,2.4-4.1,2.4C119.9,82.4,118.2,80.4,118.2,77.6z"/>
	<path class="st2" d="M132.8,70.1h1.8v3.2c0.9-2,2.6-3.5,4.9-3.4v1.9h-0.1c-2.6,0-4.8,1.9-4.8,5.5v4.8h-1.8V70.1z"/>
	<path class="st2" d="M149.3,70.1h1.8v2.4c1-1.4,2.4-2.7,4.6-2.7c2.9,0,5.8,2.3,5.8,6.3v0c0,3.9-2.8,6.3-5.8,6.3
		c-2.2,0-3.7-1.2-4.6-2.6v6.1h-1.8V70.1z M159.6,76.1L159.6,76.1c0-2.9-2-4.7-4.3-4.7c-2.2,0-4.4,1.9-4.4,4.6v0
		c0,2.8,2.1,4.7,4.4,4.7C157.7,80.8,159.6,79,159.6,76.1z"/>
	<path class="st2" d="M164.6,77.6v-7.5h1.8v7.1c0,2.2,1.2,3.6,3.3,3.6c2.1,0,3.6-1.5,3.6-3.8v-6.9h1.8v12.1h-1.8V80
		c-0.8,1.3-2.1,2.4-4.1,2.4C166.3,82.4,164.6,80.4,164.6,77.6z"/>
	<path class="st2" d="M179.2,70.1h1.8v3.2c0.9-2,2.6-3.5,4.9-3.4v1.9h-0.1c-2.6,0-4.8,1.9-4.8,5.5v4.8h-1.8V70.1z"/>
	<path class="st2" d="M188.7,70.1h1.8v2.4c1-1.4,2.4-2.7,4.6-2.7c2.9,0,5.8,2.3,5.8,6.3v0c0,3.9-2.8,6.3-5.8,6.3
		c-2.2,0-3.7-1.2-4.6-2.6v6.1h-1.8V70.1z M199,76.1L199,76.1c0-2.9-2-4.7-4.3-4.7c-2.2,0-4.4,1.9-4.4,4.6v0c0,2.8,2.1,4.7,4.4,4.7
		C197.1,80.8,199,79,199,76.1z"/>
	<path class="st2" d="M203.4,76.2L203.4,76.2c0-3.5,2.7-6.4,6.3-6.4c3.6,0,6.3,2.9,6.3,6.3v0c0,3.4-2.7,6.3-6.3,6.3
		C206.1,82.4,203.4,79.6,203.4,76.2z M214.2,76.2L214.2,76.2c0-2.6-1.9-4.8-4.5-4.8c-2.6,0-4.4,2.1-4.4,4.7v0c0,2.6,1.9,4.7,4.5,4.7
		C212.3,80.8,214.2,78.7,214.2,76.2z"/>
	<path class="st2" d="M218.3,80.6l0.9-1.3c1.3,1,2.8,1.5,4.2,1.5c1.4,0,2.5-0.7,2.5-1.9v0c0-1.2-1.4-1.7-3-2.1c-1.9-0.5-4-1.2-4-3.4
		v0c0-2.1,1.7-3.5,4.1-3.5c1.5,0,3.1,0.5,4.3,1.3l-0.8,1.4c-1.1-0.7-2.4-1.2-3.6-1.2c-1.4,0-2.3,0.7-2.3,1.8v0
		c0,1.1,1.5,1.6,3.1,2.1c1.9,0.6,3.9,1.3,3.9,3.5v0c0,2.3-1.9,3.6-4.3,3.6C221.5,82.4,219.6,81.7,218.3,80.6z"/>
	<path class="st2" d="M236.2,80.8c1.7,0,2.8-0.7,3.8-1.7l1.1,1c-1.2,1.4-2.7,2.3-5,2.3c-3.3,0-6-2.5-6-6.3c0-3.5,2.5-6.3,5.8-6.3
		c3.6,0,5.6,2.9,5.6,6.4c0,0.2,0,0.4,0,0.6H232C232.2,79.4,234.1,80.8,236.2,80.8z M239.8,75.4c-0.2-2.2-1.5-4.1-3.9-4.1
		c-2.1,0-3.7,1.7-3.9,4.1H239.8z"/>
	<path class="st2" d="M244.3,79.7h2.1v2.5h-2.1V79.7z"/>
	<path class="st1" d="M6.6,92.3h6c2.4,0,4.1,0.5,5.2,1.6c0.8,0.8,1.3,2,1.3,3.3c0,1.6-0.5,2.9-1.5,3.9c-0.9,0.9-2.2,1.6-3.8,2
		l2.8,5.6h-4.1l-2.5-5.2H7.2l-1.4,5.2H2.2L6.6,92.3z M11.3,100.3c1.4,0,2.6-0.4,3.3-1.1c0.4-0.4,0.7-1,0.7-1.7c0-0.6-0.2-1-0.5-1.3
		c-0.4-0.4-1.2-0.7-2.4-0.7h-3l-1.3,4.7H11.3z"/>
	<path class="st1" d="M23.2,103.7c0.1,1.5,1,2.5,2.9,2.5c0.9,0,1.8-0.3,2.8-1l1.6,2.2c-1.1,0.9-2.7,1.7-4.8,1.7
		c-3.6,0-5.8-2.1-5.8-5.6c0-3.6,2.9-7.5,7.4-7.5c3.2,0,5.1,2.1,5.1,4.9c0,0.9-0.2,1.9-0.6,2.9H23.2z M23.5,101.4h5.4
		c0.1-0.2,0.1-0.5,0.1-0.8c0-1-0.6-1.8-2.1-1.8C25.4,98.8,24.1,99.9,23.5,101.4z"/>
	<path class="st1" d="M36.4,96.2h3.6l-0.4,1.3c0.9-0.8,2-1.5,3.4-1.5c2.2,0,3.7,1.4,3.7,3.6c0,0.7-0.2,1.6-0.4,2.4l-1.8,6.7h-3.6
		l1.8-6.9c0.1-0.4,0.2-0.8,0.2-1.1c0-1-0.6-1.5-1.7-1.5c-1.4,0-2.3,1-2.7,2.5l-1.9,7H33L36.4,96.2z"/>
	<path class="st1" d="M51.8,103.7c0.1,1.5,1,2.5,2.9,2.5c0.9,0,1.8-0.3,2.8-1l1.6,2.2c-1.1,0.9-2.7,1.7-4.8,1.7
		c-3.6,0-5.8-2.1-5.8-5.6c0-3.6,2.9-7.5,7.4-7.5c3.2,0,5.1,2.1,5.1,4.9c0,0.9-0.2,1.9-0.6,2.9H51.8z M52.2,101.4h5.4
		c0.1-0.2,0.1-0.5,0.1-0.8c0-1-0.6-1.8-2.1-1.8C54,98.8,52.7,99.9,52.2,101.4z"/>
	<path class="st1" d="M63.2,96.2h3.6l0,7.6l4.4-7.6h3.1l0.3,7.7l4.1-7.6h3.5l-7.3,12.6h-3.2l-0.4-7.7l-4.5,7.7h-3.2L63.2,96.2z"/>
	<path class="st2" d="M89.5,111.9l0.6-1.4c0.6,0.3,1.1,0.4,1.9,0.4c1.1,0,1.8-0.6,2.5-2.3l-5.5-12h2l4.4,10.1l3.9-10.1h1.9
		l-5.1,12.5c-1,2.5-2.2,3.4-4,3.4C91.1,112.5,90.3,112.3,89.5,111.9z"/>
	<path class="st2" d="M102.6,102.7L102.6,102.7c0-3.5,2.7-6.4,6.3-6.4c3.6,0,6.3,2.9,6.3,6.3v0c0,3.4-2.7,6.3-6.3,6.3
		C105.2,109,102.6,106.1,102.6,102.7z M113.3,102.7L113.3,102.7c0-2.6-1.9-4.8-4.5-4.8c-2.6,0-4.4,2.1-4.4,4.7v0
		c0,2.6,1.9,4.7,4.5,4.7C111.5,107.4,113.3,105.3,113.3,102.7z"/>
	<path class="st2" d="M118.2,104.1v-7.5h1.8v7.1c0,2.2,1.2,3.6,3.3,3.6c2.1,0,3.6-1.5,3.6-3.8v-6.9h1.8v12.1H127v-2.1
		c-0.8,1.3-2.1,2.4-4.1,2.4C119.9,108.9,118.2,107,118.2,104.1z"/>
	<path class="st2" d="M132.8,96.6h1.8v3.2c0.9-2,2.6-3.5,4.9-3.4v1.9h-0.1c-2.6,0-4.8,1.9-4.8,5.5v4.8h-1.8V96.6z"/>
	<path class="st2" d="M149.3,96.6h1.8V99c1-1.4,2.4-2.7,4.6-2.7c2.9,0,5.8,2.3,5.8,6.3v0c0,3.9-2.8,6.3-5.8,6.3
		c-2.2,0-3.7-1.2-4.6-2.6v6.1h-1.8V96.6z M159.6,102.7L159.6,102.7c0-2.9-2-4.7-4.3-4.7c-2.2,0-4.4,1.9-4.4,4.6v0
		c0,2.8,2.1,4.7,4.4,4.7C157.7,107.3,159.6,105.6,159.6,102.7z"/>
	<path class="st2" d="M163.9,105.2L163.9,105.2c0-2.6,2.1-4,5.2-4c1.5,0,2.6,0.2,3.7,0.5v-0.4c0-2.1-1.3-3.3-3.6-3.3
		c-1.4,0-2.5,0.4-3.7,0.9l-0.5-1.5c1.3-0.6,2.6-1,4.4-1c1.7,0,3,0.5,3.9,1.3c0.8,0.8,1.3,2,1.3,3.6v7.4h-1.8v-1.8
		c-0.8,1.1-2.2,2.1-4.3,2.1C166.1,108.9,163.9,107.7,163.9,105.2z M172.8,104.3v-1.1c-0.9-0.3-2.1-0.5-3.5-0.5c-2.2,0-3.5,1-3.5,2.4
		v0c0,1.5,1.4,2.4,3,2.4C171,107.5,172.8,106.2,172.8,104.3z"/>
	<path class="st2" d="M177.3,107.1l0.9-1.3c1.3,1,2.8,1.5,4.2,1.5c1.4,0,2.5-0.7,2.5-1.9v0c0-1.2-1.4-1.7-3-2.1
		c-1.9-0.5-4-1.2-4-3.4v0c0-2.1,1.7-3.5,4.1-3.5c1.5,0,3.1,0.5,4.3,1.3l-0.8,1.4c-1.1-0.7-2.4-1.2-3.6-1.2c-1.4,0-2.3,0.7-2.3,1.8v0
		c0,1.1,1.5,1.6,3.1,2.1c1.9,0.6,3.9,1.3,3.9,3.5v0c0,2.3-1.9,3.6-4.3,3.6C180.6,108.9,178.7,108.2,177.3,107.1z"/>
	<path class="st2" d="M188.7,107.1l0.9-1.3c1.3,1,2.8,1.5,4.2,1.5c1.4,0,2.5-0.7,2.5-1.9v0c0-1.2-1.4-1.7-3-2.1
		c-1.9-0.5-4-1.2-4-3.4v0c0-2.1,1.7-3.5,4.1-3.5c1.5,0,3.1,0.5,4.3,1.3l-0.8,1.4c-1.1-0.7-2.4-1.2-3.6-1.2c-1.4,0-2.3,0.7-2.3,1.8v0
		c0,1.1,1.5,1.6,3.1,2.1c1.9,0.6,3.9,1.3,3.9,3.5v0c0,2.3-1.9,3.6-4.3,3.6C192,108.9,190.1,108.2,188.7,107.1z"/>
	<path class="st2" d="M201.4,92h2.1v2h-2.1V92z M201.5,96.6h1.8v12.1h-1.8V96.6z"/>
	<path class="st2" d="M206.8,102.7L206.8,102.7c0-3.5,2.7-6.4,6.3-6.4c3.6,0,6.3,2.9,6.3,6.3v0c0,3.4-2.7,6.3-6.3,6.3
		C209.4,109,206.8,106.1,206.8,102.7z M217.5,102.7L217.5,102.7c0-2.6-1.9-4.8-4.5-4.8c-2.6,0-4.4,2.1-4.4,4.7v0
		c0,2.6,1.9,4.7,4.5,4.7C215.7,107.4,217.5,105.3,217.5,102.7z"/>
	<path class="st2" d="M222.6,96.6h1.8v2.1c0.8-1.3,2.1-2.4,4.1-2.4c2.9,0,4.6,2,4.6,4.8v7.5h-1.8v-7.1c0-2.2-1.2-3.6-3.3-3.6
		c-2.1,0-3.6,1.5-3.6,3.8v6.9h-1.8V96.6z"/>
	<path class="st2" d="M236.8,106.2h2.1v2.5h-2.1V106.2z"/>
</g>
<g id="omedLogo2Date">
	<g>
		<path class="st3" d="M235.1,134.8l2.1-4.8l2.1,4.8H235.1z M232.5,138.2h1.1l1.1-2.5h5.1l1.1,2.5h1.1l-4.3-9.5h-1L232.5,138.2z
			 M227.7,138.4c1.7,0,2.8-0.7,3.8-1.7l-0.7-0.7c-0.9,0.9-1.7,1.4-3,1.4c-2.1,0-3.6-1.7-3.6-3.9v0c0-2.2,1.6-3.9,3.6-3.9
			c1.3,0,2.2,0.5,3,1.3l0.7-0.8c-0.9-0.9-2-1.5-3.7-1.5c-2.8,0-4.8,2.2-4.8,4.9v0C223,136.2,225,138.4,227.7,138.4 M215.5,139.8
			c1-0.2,1.5-0.8,1.5-1.8v-1.2h-1.2v1.4h0.5c0.1,0.6-0.2,0.9-0.9,1.2L215.5,139.8z M204.4,138.2h1v-7.6l3.4,5h0.1l3.4-5v7.6h1.1
			v-9.4h-1.1l-3.4,5.1l-3.4-5.1h-1.1V138.2z M200.6,138.2h1.1v-9.4h-1.1V138.2z M191.5,138.2h6.9v-1h-5.8v-3.3h5.1v-1h-5.1v-3.2h5.7
			v-1h-6.8V138.2z M181.3,138.2h1.1V134h5.4v4.2h1.1v-9.4h-1.1v4.2h-5.4v-4.2h-1.1V138.2z M172.5,134.8l2.2-4.8l2.1,4.8H172.5z
			 M169.8,138.2h1.1l1.1-2.5h5.1l1.1,2.5h1.1l-4.3-9.5h-1L169.8,138.2z M160,138.2h1v-7.7l6.1,7.7h0.8v-9.4h-1v7.5l-5.9-7.5h-1
			V138.2z M151.2,134.8l2.2-4.8l2.1,4.8H151.2z M148.6,138.2h1.1l1.1-2.5h5.1l1.1,2.5h1.1l-4.3-9.5h-1L148.6,138.2z"/>
	</g>
	<rect x="137.5" y="127.5" class="st4" width="0.9" height="12.5"/>
	<g>
		<path class="st3" d="M123.1,137.4c-1.8,0-2.9-1.8-2.9-3.9v0c0-2.1,1.1-3.9,2.9-3.9c1.7,0,2.9,1.8,2.9,3.9v0
			C125.9,135.6,124.8,137.4,123.1,137.4 M123,138.4c2.4,0,4-2.2,4-4.9v0c0-2.6-1.5-4.8-4-4.8c-2.4,0-4,2.2-4,4.9v0
			C119.1,136.2,120.6,138.4,123,138.4 M110.8,138.2h6.6v-1h-5l2.5-2.2c1.7-1.4,2.4-2.3,2.4-3.7v0c0-1.5-1.2-2.7-2.9-2.7
			c-1.7,0-2.5,0.7-3.4,2l0.8,0.6c0.8-1,1.5-1.6,2.5-1.6c1,0,1.9,0.7,1.9,1.8c0,0.9-0.5,1.7-2,3l-3.4,3V138.2z M104,134.7h5.3v-1H104
			V134.7z M97.3,138.2h1.2l4.3-8.6v-0.8h-6.4v1h5.2L97.3,138.2z M93.1,138.2h1v-9.5h-0.8l-2.3,0.8l0.3,0.9l1.8-0.6V138.2z
			 M79.3,133.6v-3.8h2.9c1.5,0,2.4,0.7,2.4,1.9v0c0,1.2-1,1.9-2.4,1.9H79.3z M78.2,138.2h1.1v-3.7H82l2.7,3.7H86l-2.9-3.8
			c1.5-0.3,2.6-1.2,2.6-2.7v0c0-0.7-0.3-1.4-0.7-1.9c-0.6-0.6-1.5-0.9-2.7-0.9h-4V138.2z M69.2,138.2h6.9v-1h-5.8v-3.3h5.1v-1h-5.1
			v-3.2H76v-1h-6.8V138.2z M60.6,137.2v-3.3h3c1.6,0,2.5,0.6,2.5,1.6v0c0,1-0.9,1.7-2.3,1.7H60.6z M60.6,133v-3.2h2.9
			c1.3,0,2.1,0.6,2.1,1.5v0c0,1.1-0.9,1.7-2.2,1.7H60.6z M59.5,138.2h4.2c2.1,0,3.4-1,3.4-2.6v0c0-1.3-0.9-1.9-2-2.3
			c0.7-0.3,1.5-1,1.5-2.2v0c0-0.6-0.2-1.1-0.6-1.5c-0.5-0.5-1.4-0.8-2.5-0.8h-4V138.2z M47.9,138.2h1v-7.6l3.4,5h0.1l3.4-5v7.6h1.1
			v-9.4h-1.1l-3.4,5.1l-3.4-5.1h-1.1V138.2z M38.8,138.2h6.9v-1h-5.8v-3.3H45v-1h-5.1v-3.2h5.7v-1h-6.8V138.2z M32.6,138.2h1.1v-8.4
			h3.2v-1h-7.4v1h3.2V138.2z M22.2,133.9v-4.1h2.4c1.5,0,2.5,0.7,2.5,2v0c0,1.2-1,2.1-2.6,2.1H22.2z M21.1,138.2h1.1v-3.3h2.3
			c2,0,3.7-1,3.7-3.1v0c0-1.9-1.4-3-3.5-3h-3.5V138.2z M12.1,138.2H19v-1h-5.8v-3.3h5.1v-1h-5.1v-3.2h5.7v-1h-6.8V138.2z M6.8,138.3
			c1.9,0,3.2-1,3.2-2.7v0c0-1.4-1-2.2-3.1-2.7c-2.1-0.4-2.6-0.9-2.6-1.8v0c0-0.8,0.8-1.5,2-1.5c1,0,1.8,0.3,2.7,1l0.6-0.8
			c-1-0.8-1.9-1.2-3.3-1.2c-1.8,0-3.1,1.1-3.1,2.6v0c0,1.5,1,2.2,3.2,2.7c2,0.4,2.4,0.9,2.4,1.8v0c0,0.9-0.8,1.6-2.1,1.6
			c-1.3,0-2.2-0.4-3.2-1.3l-0.7,0.8C4,137.8,5.3,138.3,6.8,138.3"/>
	</g>
</g>
</svg>
