<svg version="1.1" id="Layer_1" xmlns="http://www.w3.org/2000/svg" xmlns:xlink="http://www.w3.org/1999/xlink" preserveAspectRatio="xMidYMid meet"
	 viewBox="0 0 74.5 82.2">
<g id="operator">
	<path d="M34.7,6.7C18,6.7,4.5,20.1,4.5,36.8c0,1.6,0,3.4,0,4.6c-1.9,1.5-3.1,3.8-3.1,6.3c0,3.6,2.3,6.5,5.5,7.8
		c1.3,14.4,13.2,25.5,27.7,25.5c8.1,0,15.3-3.5,20.3-9.1c-1.7,0.2-3.1,0.5-5.2,0.6c-4.2,3.3-9.4,5.4-15.2,5.4
		c-13.2,0-24-10.3-24.7-23.5l0-1.1l-1.1-0.3c-2.5-0.6-4.2-2.7-4.2-5.2c0-1.4,0.6-2.6,1.5-3.5l3.8,3.4v-7.8l34.8-16.5
		c0.4,0,0.7,0.1,1.1,0.2L59,39.8v6.5l2.1-1.2v-2.6c0-2.3,1.6-4.2,3.6-4.9c0-0.2,0-0.4,0-0.7C64.8,22.6,54.7,6.7,34.7,6.7z
		 M61.1,52.5c-0.2,0.1-0.4,0.3-0.6,0.4l-1.1,0.3l0,1.2c-0.2,4.1-1.5,7.9-3.5,11.2c0.6-0.1,1.7-0.1,2.2-0.2c0.7-0.2,1.1-0.4,1.7-0.7
		c1.2-2.7,2.1-5.6,2.5-8.7c-0.6-0.9-1.1-1.9-1.1-3V52.5z M58.1,67.8c-1,0.2-2.7,0.3-3.9,0.4c-0.4,0.5-0.8,0.9-1.2,1.4
		c1.5-0.1,3.1-0.3,4.3-0.5C57.5,68.7,57.8,68.2,58.1,67.8z"/>
	<g>
		<path d="M43.6,47.6c0-2,1.6-3.6,3.6-3.6c2,0,3.6,1.6,3.6,3.6c0,2-1.6,3.6-3.6,3.6C45.2,51.2,43.6,49.6,43.6,47.6z"/>
		<path d="M18.6,47.6c0-2,1.6-3.6,3.6-3.6s3.6,1.6,3.6,3.6c0,2-1.6,3.6-3.6,3.6S18.6,49.6,18.6,47.6z"/>
	</g>
	<path d="M68.8,38.7h-2.2c-2.5,0-4.5,2-4.5,4.5v9c0,2.5,2,4.5,4.5,4.5h2.2c2.5,0,4.5-2,4.5-4.5v-9C73.3,40.7,71.3,38.7,68.8,38.7z"
		/>
	<path d="M34.4,1.2c-1,0-1.9,0.9-1.8,1.9c0,1,0.9,1.9,1.9,1.8c0,0,1.1,0,1.8,0c1,0,2.2,0.1,3.4,0.2c3.3,0.4,6.5,1,9.5,2.1
		c4.7,1.7,8.4,4.1,10.8,7.5c3,4.1,4.8,8.4,5.8,12.8c0.6,2.9,0.8,5.5,0.7,7.4c0,0.2,0,0.3,0,0.4c-0.1,1,0.7,2,1.7,2.1
		c1,0.1,2-0.7,2.1-1.7c0-0.1,0-0.3,0-0.5c0.1-2.2,0-5.1-0.7-8.4c-1.1-4.9-3.1-9.8-6.4-14.3c-2.9-4-7.2-6.9-12.6-8.8
		c-3.3-1.2-6.8-1.9-10.3-2.3c-1.3-0.1-2.5-0.2-3.7-0.3c-0.8,0-1.4,0-1.9,0H34.4z"/>
	<path d="M67.7,57.4c-1,0.1-1.7,1-1.7,2c0,0,0,0,0,0c0,0.9-0.3,2.3-1.4,3.6c-1.2,1.5-3.2,2.7-6.2,3.5c-2.2,0.6-5.5,0.9-9.6,1.1
		c-3.4,0.1-7.2,0.1-10.7-0.1c-0.1,0-0.2,0-0.3,0c-0.6-1.1-1.6-2.1-3-2.1c-2,0-3.6,1.6-3.6,3.6s1.6,3.6,3.6,3.6c1.1,0,2-0.6,2.7-1.4
		c0.2,0,0.3,0,0.4,0c3.7,0.1,7.5,0.2,11,0.1c4.3-0.1,7.8-0.5,10.4-1.2c3.7-1,6.4-2.5,8.1-4.6c1-1.2,1.7-2.6,2.1-3.9
		c0.2-0.9,0.3-1.7,0.3-2.3c0-0.1,0-0.1,0-0.2C69.7,58,68.8,57.3,67.7,57.4z"/>
</g>
</svg>
