<svg version="1.1" id="Layer_1" xmlns="http://www.w3.org/2000/svg" xmlns:xlink="http://www.w3.org/1999/xlink" preserveAspectRatio="xMidYMid meet"
	 viewBox="0 0 90.2 91.2">
<g id="palmTree">
	<path d="M88.4,37.4c-7.3-6.6-14.6-10-21.8-10c-4.6,0-8.5,1.4-11.6,3.1c9.3-8.6,20.2-9.7,25.2-9.7c1.4,0,2.2,0.1,2.2,0.1
		c0.1,0,0.1,0,0.2,0l0,0c0.8,0,1.5-0.7,1.5-1.5c0-0.7-0.5-1.3-1.1-1.4c-5.6-2.1-10.7-3.2-15.2-3.2c-8.2,0-13.5,3.5-16.9,7.8
		c4.1-12,12.5-18.9,12.6-19c0.5-0.4,0.7-1.2,0.4-1.8c-0.3-0.6-1-1-1.6-0.8C53,2.7,46.8,6.7,43.8,13c-1.7,3.5-2.2,7.3-2,10.9
		c-5.4-8.1-13-10.2-19.3-10.2c-10.5,0-19.9,5.6-20.3,5.8c-0.6,0.4-0.9,1.2-0.6,1.8c0.3,0.7,1,1.1,1.7,0.9c3.1-0.7,6.2-1,9.2-1
		c13,0,21.8,6.5,26.9,11.9c-2.8-0.9-6.1-1.6-9.7-1.6c-10.6,0-19.5,5.7-26.5,16.9c-0.4,0.6-0.3,1.4,0.3,1.9c0.3,0.2,0.6,0.4,1,0.4
		c0.3,0,0.7-0.1,1-0.3c0.1-0.1,10.7-8.8,26.5-10.7c-0.1,0.1-0.1,0.1-0.2,0.2c-1.5,1.6-2,3.9-1.6,6.8c0.1,0.4,0.3,0.8,0.6,1
		c0.1,0.1,2.4,1.8,5.2,1.8l0,0c0.3,0,0.6,0,0.9-0.1c0.7,1.6,2,2.9,4,4.1c0.2,0.1,0.5,0.2,0.8,0.2c0.1,0,0.3,0,0.4-0.1
		c0.2-0.1,4.5-1.3,5.7-5.3c0.1-0.2,0.1-0.5,0.2-0.7c4.9,27.3-1.2,39.6-1.3,39.7c-0.2,0.5-0.2,1,0,1.5c0.3,0.5,0.8,0.7,1.3,0.7h13
		l0,0c0.8,0,1.5-0.7,1.5-1.5c0-0.1,0-0.2,0-0.3c-1.1-30.5-11.9-46.2-13.2-48c5.3-2.9,11.2-4.4,17.6-4.4c11.3,0,20.2,4.7,20.3,4.7
		c0.2,0.1,0.5,0.2,0.7,0.2c0.8,0,1.5-0.7,1.5-1.5C89.1,38.1,88.8,37.7,88.4,37.4z M52.5,72.8h5.4c0.1,0.9,0.3,1.7,0.4,2.6h-6
		C52.3,74.6,52.3,73.7,52.5,72.8z M52.5,69.8c0-0.8,0-1.7,0-2.6h4.1c0.2,0.9,0.4,1.7,0.5,2.6H52.5z M56,64.2h-3.5
		c0-0.8-0.1-1.7-0.1-2.6h2.9C55.5,62.4,55.8,63.3,56,64.2z M51.8,78.4h6.7c0.1,0.9,0.2,1.7,0.3,2.6h-7.4
		C51.5,80.2,51.8,79.4,51.8,78.4z M50,86.5c0.2-0.7,0.5-1.5,0.7-2.4h8.4c0.1,0.8,0.1,1.6,0.1,2.4H50z M54.5,58.6h-2.3
		c-0.3-2.8-0.6-5.8-1.1-9.1C52.2,52,53.3,55,54.5,58.6z M67.8,17.7c1.8,0,3.8,0.2,5.9,0.6c-7,1.1-16.7,4.5-24.5,14
		C51.2,26,56,17.7,67.8,17.7z M46.5,14.3c2-4.1,5.7-7.1,11.1-9C53.5,10,47.3,18.8,46,31C44.7,26.2,43.8,19.7,46.5,14.3z M12.6,18.2
		c2.9-0.9,6.3-1.6,9.8-1.6c9.7,0,16.5,5.3,20.2,15.8C37.5,26.3,27.7,18.3,12.6,18.2z M29.7,34.6c3.7,0,7.1,0.8,9.8,1.8
		c-0.6,0-1.1,0-1.7,0c-11.5,0-20.9,3.7-27,7C16.2,37.5,22.5,34.6,29.7,34.6z M35.8,46.4c-1.2,0-2.3-0.5-2.9-0.8
		c-0.1-1.6,0.2-2.9,1-3.7c1.2-1.3,3.3-1.7,4.9-1.7c-1.3,1.7-2.6,3.9-2.7,6.2C36,46.4,36,46.4,35.8,46.4z M44.7,47.4
		c-0.5,1.7-2.2,2.6-3.1,3c-1.5-1-2.3-2.1-2.4-3.4c-0.2-2.3,1.7-4.8,3.2-6.4C44.3,43.4,45.2,45.7,44.7,47.4z M66.6,32.3
		c-3.9,0-7.6,0.5-11.2,1.5c2.9-1.8,6.7-3.4,11.2-3.4c3.9,0,7.8,1.1,11.8,3.3C75.1,32.9,70.9,32.3,66.6,32.3z"/>
</g>
</svg>
