<svg version="1.1" id="Layer_1" xmlns="http://www.w3.org/2000/svg" xmlns:xlink="http://www.w3.org/1999/xlink" preserveAspectRatio="xMidYMid meet"
	 viewBox="0 0 78.5 100">
<g class="icon-program">
	<path d="M75.5,97.6H2.6v-84L55.3,2v10.3h20.2V97.6z M7.9,92.3h62.2V17.7H49.9v-9l-42,9.2L7.9,92.3L7.9,92.3z"/>
	<polygon points="5.7,97.6 4.8,92.3 49.9,84.8 49.9,15 55.3,15 55.3,89.3 	"/>
	<rect x="52.6" y="25.4" width="12.8" height="3.6"/>
	<rect x="52.6" y="32.6" width="12.8" height="3.6"/>
	<rect x="52.6" y="40.2" width="12.8" height="3.6"/>
	<rect x="52.6" y="47.9" width="12.8" height="3.6"/>
	<rect x="52.6" y="55.8" width="12.8" height="3.6"/>
	<rect x="52.6" y="62.9" width="12.8" height="3.6"/>
	<rect x="52.6" y="70.5" width="12.8" height="3.6"/>
	<rect x="52.6" y="78.2" width="12.8" height="3.6"/>
	<polygon points="14.6,34 14.6,30.5 40,25.5 40,29 	"/>
</g>
</svg>
