<svg version="1.1" id="Layer_1" xmlns="http://www.w3.org/2000/svg" xmlns:xlink="http://www.w3.org/1999/xlink" preserveAspectRatio="xMidYMid meet"
	 viewBox="0 0 90 90">
<path d="M44.4,12c-3.8,0-7.5,0.8-11,2.3c-2.1,1-3.1,3.4-2.2,5.6c0.9,2.2,3.4,3.4,5.6,2.5c0,0,0.1,0,0.1,0c1.8-0.7,3.8-1.1,5.8-1.2
	c4.6,0.1,7.2,2.3,7.2,6.3c0,3.7-2.2,7-6,11.4c-4.5,5.4-6.5,11-5.9,16.5v0.3c0.1,1.9,1.7,3.3,3.6,3.3h2.7c1,0,1.9-0.4,2.6-1.1
	c0.7-0.7,1.1-1.7,1-2.7c-0.3-4.3,1.2-8,4.8-12.2c4.6-5.4,8-10.1,8-16.5C60.8,19.4,55.7,12,44.4,12z M50.6,41.4
	c-4.2,4.8-5.8,9.1-5.5,14.1l-0.2,0.6l-0.6,0.3h-2.7c-0.4,0-0.8-0.3-0.8-0.8v-0.3c-0.5-4.8,1.2-9.7,5.2-14.5
	c4.2-4.9,6.6-8.7,6.6-13.2c0-5.6-3.7-9-9.9-9.1c-2.4,0-4.7,0.5-6.9,1.4c-0.4,0.2-0.8,0.2-1.2,0c-0.4-0.2-0.7-0.5-0.9-1
	c-0.3-0.8,0.1-1.7,0.8-2c3.1-1.4,6.4-2.1,9.8-2.1c10.1,0,13.6,6.3,13.6,11.8S54.9,36.2,50.6,41.4L50.6,41.4z"/>
<path d="M43,63.3c-3.5-0.1-6.4,2.6-6.7,6.1l0,0c-0.3,2.3,0.6,4.7,2.3,6.2c2.7,2.5,6.9,2.3,9.3-0.4c1.2-1.3,1.8-3,1.7-4.8
	C49.7,66.3,46.9,63.3,43,63.3z M44,74.4c-1.3,0.3-2.6,0-3.6-0.9c-1.1-1-1.6-2.4-1.4-3.8c0.1-2.1,1.9-3.7,4-3.6
	c2.3,0,3.9,1.7,3.9,4.3C47,72.3,45.8,73.9,44,74.4L44,74.4z"/>
<path d="M44.7,1.8C21,1.8,1.8,21,1.8,44.7S21,87.5,44.7,87.5s42.8-19.2,42.8-42.8S68.3,1.8,44.7,1.8z M44.7,84.8
	c-22.2,0-40.2-18-40.2-40.2s18-40.2,40.2-40.2c22.2,0,40.2,18,40.2,40.2C84.8,66.8,66.8,84.8,44.7,84.8L44.7,84.8z"/>
</svg>
