<svg version="1.1" xmlns="http://www.w3.org/2000/svg" xmlns:xlink="http://www.w3.org/1999/xlink" preserveAspectRatio="xMidYMid meet"
	 viewBox="0 0 92.5 72.5">
<g id="iconSuitcase" class="iconSuitcase">
	<path class="suitcase" d="M89.2,11.2H63.1c-1.3-5.7-8.2-10-16.8-10s-15.4,4.3-16.8,10H3.2c-1.1,0-2,0.9-2,2v56c0,1.1,0.9,2,2,2h86
		c1.1,0,2-0.9,2-2v-56C91.2,12.1,90.3,11.2,89.2,11.2z M31.2,23l3,3v12.2h-6V26L31.2,23z M29.2,19.5l-4.4,4.4
		c-0.4,0.4-0.6,0.9-0.6,1.4v15c0,1.1,0.9,2,2,2h10c1.1,0,2-0.9,2-2v-15c0-0.5-0.2-1-0.6-1.4l-4.4-4.4v-4.2h40v52h-54v-52h10V19.5z
		 M46.2,5.2c5.9,0,11.1,2.6,12.6,6H33.7C35.2,7.9,40.3,5.2,46.2,5.2z M5.2,15.2h10v52h-10V15.2z M87.2,67.2h-10v-52h10V67.2z"/>
</g>
</svg>
