<?xml version="1.0" encoding="utf-8"?>
<!-- Generator: Adobe Illustrator 19.2.0, SVG Export Plug-In . SVG Version: 6.00 Build 0)  -->
<svg version="1.1" id="iconTote" xmlns="http://www.w3.org/2000/svg" xmlns:xlink="http://www.w3.org/1999/xlink" x="0px" y="0px"
	 viewBox="0 0 90.2 93" style="enable-background:new 0 0 90.2 93;" xml:space="preserve">
<path id="tote" d="M87.6,26.4H71.2V14.9c0-2.2-0.7-3.9-2.4-5.5l-7.9-7.5c0,0,0,0,0,0c-0.1-0.1-0.2-0.1-0.3-0.2c0,0,0,0-0.1,0
	c-0.1-0.1-0.2-0.1-0.4-0.1c0,0,0,0-0.1,0c-0.1,0-0.1,0-0.2,0H30.6c-0.1,0-0.1,0-0.2,0c0,0,0,0-0.1,0c-0.1,0-0.2,0.1-0.4,0.1
	c0,0,0,0-0.1,0c-0.1,0.1-0.2,0.1-0.3,0.2c0,0,0,0,0,0l-7.9,7.5c-1.6,1.6-2.4,3.2-2.4,5.5v11.5H2.9c-0.8,0-1.5,0.7-1.5,1.5v56
	c0,4.2,3.6,7.7,8,7.7h11.4h9.8h29.3h9.8h11.4c4.4,0,8-3.4,8-7.7v-56C89.1,27,88.4,26.4,87.6,26.4z M58.4,57.5H32.1V29.3h26.4
	L58.4,57.5L58.4,57.5z M58.4,26.4H32.1V13.8h26.4L58.4,26.4L58.4,26.4z M32.1,60.4h26.4v28.1H32.1V60.4z M58.4,10.8H32.1V4.4h26.4
	L58.4,10.8L58.4,10.8z M4.3,83.8V29.3h15v59.2H9.4C6.6,88.6,4.3,86.4,4.3,83.8z M22.3,88.6V14.9c0-1.4,0.4-2.3,1.5-3.3l5.4-5.1v5.9
	v76.3L22.3,88.6L22.3,88.6z M61.4,88.6V12.3V6.4l5.4,5.1c1.1,1,1.5,1.9,1.5,3.3v73.7L61.4,88.6L61.4,88.6z M86.2,83.8
	c0,2.6-2.3,4.7-5,4.7h-9.9V29.3h15V83.8z"/>
</svg>
